SplineFontDB: 3.0
FontName: Monaco-Italic
FullName: Monaco-Italic
FamilyName: Monaco
Weight: Italic
Copyright: (c) 1990-2008 Apple Inc. (c) 1990-97 Type Solutions Inc. (c) 1990-97 The Font Bureau Inc.  TrueType outline design of Monaco typeface created by Kris Holmes and Charles Bigelow.
Version: 
ItalicAngle: 0
UnderlinePosition: 0
UnderlineWidth: 155
Ascent: 1638
Descent: 410
sfntRevision: 0x00020000
LayerCount: 2
Layer: 0 0 "Back"  1
Layer: 1 0 "Fore"  0
XUID: [1021 664 1202113233 7868158]
FSType: 0
OS2Version: 0
OS2_WeightWidthSlopeOnly: 0
OS2_UseTypoMetrics: 1
CreationTime: 1412599443
ModificationTime: 1412599900
PfmFamily: 49
TTFWeight: 400
TTFWidth: 5
LineGap: 171
VLineGap: 0
Panose: 2 0 0 0 0 0 0 0 0 0
OS2TypoAscent: 2048
OS2TypoAOffset: 0
OS2TypoDescent: -512
OS2TypoDOffset: 0
OS2TypoLinegap: 171
OS2WinAscent: 2504
OS2WinAOffset: 0
OS2WinDescent: 862
OS2WinDOffset: 0
HheadAscent: 2048
HheadAOffset: 0
HheadDescent: -512
HheadDOffset: 0
OS2SubXSize: 1331
OS2SubYSize: 1228
OS2SubXOff: 0
OS2SubYOff: 153
OS2SupXSize: 1331
OS2SupYSize: 1228
OS2SupXOff: 0
OS2SupYOff: 716
OS2StrikeYSize: 155
OS2StrikeYPos: 670
OS2Vendor: 'pyrs'
OS2CodePages: 60000197.00000000
OS2UnicodeRanges: a000027f.00000003.00000000.00000000
Lookup: 1 0 0 "'rtla' Right to Left Alternates lookup 0"  {"'rtla' Right to Left Alternates lookup 0 subtable"  } ['rtla' ('DFLT' <'dflt' > ) ]
MarkAttachClasses: 1
DEI: 91125
LangName: 1065 "Copyright 1990-2008 Apple Inc. Copyright 1990-97 Type Solutions Inc. Copyright 1990-97 The Font Bureau Inc.  TrueType outline design of Monaco typeface created by Kris Holmes and Charles Bigelow." 
LangName: 1025 "Copyright 1990-2008 Apple Inc. Copyright 1990-97 Type Solutions Inc. Copyright 1990-97 The Font Bureau Inc.  TrueType outline design of Monaco typeface created by Kris Holmes and Charles Bigelow." 

StartChar: .notdef
Encoding: 65536 -1 0
Width: 1229
Flags: MW
HStem: 0 150<328 758 328 877> 1402 150<595 1025 595 595>
VStem: 147 1059
LayerCount: 2
Fore
SplineSet
1206 1552 m 1
 877 0 l 1
 147 0 l 1
 476 1552 l 1
 1206 1552 l 1
758 150 m 1
 1025 1402 l 1
 595 1402 l 1
 328 150 l 1
 758 150 l 1
EndSplineSet
EndChar

StartChar: exclam
Encoding: 33 33 4
Width: 1229
Flags: MW
HStem: -47 21G<585.5 624> 1532 20G<812 1060 1060 1060>
VStem: 488 572
LayerCount: 2
Fore
SplineSet
777 442 m 1
 622 442 l 1
 812 1552 l 1
 1060 1552 l 1
 777 442 l 1
605 -47 m 0
 566 -47 535 -33 512 -4 c 0
 490 24 483 58 491 97 c 0
 500 136 521 170 555 198 c 0
 590 226 627 240 666 240 c 0
 705 240 735 226 757 198 c 0
 780 171 787 137 778 97 c 0
 769 57 748 23 713 -5 c 0
 679 -33 643 -47 605 -47 c 0
EndSplineSet
EndChar

StartChar: quotedbl
Encoding: 34 34 5
Width: 1229
Flags: MW
HStem: 1055 559<616 689 561 865 616 993 1055 1120>
VStem: 561 738<1055 1614>
LayerCount: 2
Fore
SplineSet
865 1614 m 1
 689 1055 l 1
 561 1055 l 1
 616 1614 l 1
 865 1614 l 1
1299 1614 m 1
 1120 1055 l 1
 993 1055 l 1
 1055 1614 l 1
 1299 1614 l 1
EndSplineSet
EndChar

StartChar: numbersign
Encoding: 35 35 6
Width: 1229
Flags: MW
HStem: 0 21G<119 267 119 119 540 688 540 540> 419 140<189 319 160 385 189 466 532 745 959 1246> 970 139<306 583 277 647 793 1013 306 727 1224 1363> 1532 20G<858 1004 1004 1004 1292 1438 1438 1438>
VStem: 119 1319
LayerCount: 2
Fore
SplineSet
319 419 m 1
 160 419 l 1
 189 559 l 1
 385 559 l 1
 583 970 l 1
 277 970 l 1
 306 1109 l 1
 647 1109 l 1
 858 1552 l 1
 1004 1552 l 1
 793 1109 l 1
 1076 1109 l 1
 1292 1552 l 1
 1438 1552 l 1
 1224 1109 l 1
 1392 1109 l 1
 1363 970 l 1
 1156 970 l 1
 959 559 l 1
 1275 559 l 1
 1246 419 l 1
 891 419 l 1
 688 0 l 1
 540 0 l 1
 745 419 l 1
 466 419 l 1
 267 0 l 1
 119 0 l 1
 319 419 l 1
727 970 m 1
 532 559 l 1
 812 559 l 1
 1013 970 l 1
 727 970 l 1
EndSplineSet
EndChar

StartChar: dollar
Encoding: 36 36 7
Width: 1229
Flags: MW
HStem: -155 1862<547 1082 547 1082> 2 156<557.5 613>
VStem: 410 208 994 208
LayerCount: 2
Fore
SplineSet
687 -155 m 1xb0
 547 -155 l 1
 580 2 l 1
 535 2 489 4 442 9 c 0
 395 14 352 21 312 30 c 0
 272 40 227 57 178 82 c 1
 219 274 l 1
 338 205 442 170 613 158 c 1x70
 731 715 l 1
 637 773 l 2
 457 882 384 1013 417 1167 c 0
 434 1249 485 1329 568 1406 c 0
 652 1484 765 1529 907 1541 c 1
 942 1707 l 1
 1082 1707 l 1
 1047 1541 l 1
 1126 1541 1216 1527 1317 1500 c 1
 1281 1327 l 1
 1248 1337 l 2
 1153 1365 1076 1382 1015 1388 c 1
 899 844 l 1
 997 780 l 2
 1090 719 1149 660 1176 601 c 0
 1203 542 1209 480 1194 414 c 0
 1182 355 1155 297 1113 241 c 0
 1030 130 906 46 723 15 c 1
 687 -155 l 1xb0
777 928 m 1
 875 1390 l 1
 734 1359 643 1285 622 1190 c 0
 613 1145 619 1102 641 1061 c 0
 664 1020 709 976 777 928 c 1
854 632 m 1
 756 172 l 1
 834 198 890 230 923 267 c 0
 957 305 979 347 989 394 c 0
 999 439 995 478 976 510 c 0
 957 543 917 583 854 632 c 1
EndSplineSet
EndChar

StartChar: percent
Encoding: 37 37 8
Width: 1229
Flags: MW
HStem: -47 21G<-7 156 -7 -7> 0 124<919.5 953.5> 652 124<1029.5 1079.5> 776 124<478 526.5> 1427 125<594.5 643.5> 1578 20G<1402 1567 1567 1567>
VStem: 236 158 672 156 728 157 1164 158
LayerCount: 2
Fore
SplineSet
643 1552 m 0xdf40
 740 1552 808 1516 847 1444 c 0
 887 1372 895 1279 871 1164 c 0xdec0
 846 1049 799 955 728 883 c 0
 658 812 575 776 478 776 c 0
 381 776 313 812 273 883 c 0
 233 955 225 1049 250 1164 c 0
 274 1279 321 1372 392 1444 c 0
 463 1516 546 1552 643 1552 c 0xdf40
617 1427 m 0
 563 1427 518 1401 482 1349 c 0
 447 1298 421 1236 406 1164 c 0
 391 1091 390 1029 403 977 c 0
 417 926 451 900 505 900 c 0
 558 900 603 926 639 977 c 0
 675 1029 701 1091 716 1164 c 0
 731 1236 732 1298 718 1349 c 0
 704 1401 670 1427 617 1427 c 0
1567 1598 m 1xef40
 156 -47 l 1
 -7 -47 l 1
 1402 1598 l 1
 1567 1598 l 1xef40
1076 776 m 0
 1169 776 1237 741 1280 672 c 0
 1323 603 1333 513 1310 404 c 0
 1283 278 1232 179 1155 107 c 0
 1079 36 997 0 910 0 c 0
 825 0 759 34 714 102 c 0
 669 171 660 266 686 388 c 0
 711 504 758 598 829 669 c 0
 900 740 983 776 1076 776 c 0
1053 652 m 0
 1000 652 956 627 920 576 c 0
 884 525 858 461 841 382 c 0
 822 295 824 230 845 187 c 0
 867 145 899 124 940 124 c 0
 984 124 1026 147 1065 193 c 0
 1105 239 1134 305 1153 392 c 0
 1168 460 1168 520 1154 573 c 0
 1140 626 1106 652 1053 652 c 0
EndSplineSet
EndChar

StartChar: ampersand
Encoding: 38 38 9
Width: 1229
Flags: MW
HStem: -47 155<461.5 504.5> 0 21G<990 990 990 1228> 1458 140<754.5 807.5>
VStem: 72 187 366 192 920 175
LayerCount: 2
Fore
SplineSet
990 0 m 1x7c
 908 130 l 1
 827 61 752 14 683 -10 c 0
 614 -35 542 -47 467 -47 c 0xbc
 324 -47 218 -7 148 74 c 0
 78 155 56 258 83 383 c 0
 120 558 246 722 461 874 c 1
 381 1011 350 1130 373 1233 c 0
 386 1295 415 1355 460 1414 c 0
 551 1531 685 1598 824 1598 c 0
 916 1598 988 1573 1039 1524 c 0
 1091 1475 1107 1404 1087 1312 c 0
 1073 1245 1040 1177 988 1110 c 0
 936 1043 841 964 703 874 c 1
 965 438 l 1
 982 471 994 499 1001 520 c 0
 1009 541 1020 580 1034 637 c 2
 1059 742 l 1
 1070 791 l 1
 1256 791 l 1
 1246 744 l 2
 1237 700 1218 637 1191 554 c 0
 1164 472 1118 385 1052 292 c 1
 1228 0 l 1
 990 0 l 1x7c
616 1022 m 2
 631 992 l 1
 708 1039 773 1091 824 1147 c 0
 875 1204 906 1255 916 1300 c 0
 925 1343 919 1380 898 1411 c 0
 877 1442 837 1458 778 1458 c 0
 727 1458 682 1439 642 1402 c 0
 603 1365 577 1319 565 1265 c 0
 559 1235 557 1204 558 1173 c 0
 559 1142 579 1092 616 1022 c 2
831 254 m 1
 532 752 l 1
 382 643 294 525 267 398 c 0
 248 311 262 241 309 188 c 0
 356 135 420 108 503 108 c 0
 547 108 593 116 641 131 c 0
 689 146 752 187 831 254 c 1
EndSplineSet
EndChar

StartChar: quotesingle
Encoding: 39 39 10
Width: 1229
Flags: MW
HStem: 993 621<787 894 760 1128>
VStem: 760 368
LayerCount: 2
Fore
SplineSet
1128 1614 m 1
 894 993 l 1
 760 993 l 1
 787 1614 l 1
 1128 1614 l 1
EndSplineSet
EndChar

StartChar: parenleft
Encoding: 40 40 11
Width: 1229
Flags: MW
HStem: -372 2017<992 1421>
VStem: 301 201
LayerCount: 2
Fore
SplineSet
1025 -217 m 1
 992 -372 l 1
 810 -361 665 -308 558 -215 c 0
 451 -122 377 3 335 161 c 0
 293 319 289 477 323 636 c 0
 356 795 428 953 537 1111 c 0
 756 1427 1046 1621 1421 1645 c 1
 1388 1489 l 1
 1246 1476 1116 1429 998 1348 c 0
 881 1267 780 1164 696 1039 c 0
 612 914 555 779 525 636 c 0
 494 493 494 358 525 233 c 0
 556 108 613 5 696 -76 c 0
 779 -157 889 -204 1025 -217 c 1
EndSplineSet
Substitution2: "'rtla' Right to Left Alternates lookup 0 subtable" parenright
EndChar

StartChar: parenright
Encoding: 41 41 12
Width: 1229
Flags: MW
HStem: -372 2017<77 506>
VStem: 997 201
LayerCount: 2
Fore
SplineSet
473 1489 m 1
 506 1645 l 1
 688 1633 832 1580 939 1487 c 0
 1046 1394 1121 1269 1163 1111 c 0
 1205 953 1209 795 1176 636 c 0
 1142 477 1070 319 961 161 c 0
 852 3 724 -122 577 -215 c 0
 431 -308 264 -361 77 -372 c 1
 110 -217 l 1
 253 -204 383 -157 500 -76 c 0
 617 5 718 108 802 233 c 0
 887 358 944 493 975 636 c 0
 1005 779 1004 914 973 1039 c 0
 942 1164 885 1267 802 1348 c 0
 719 1429 610 1476 473 1489 c 1
EndSplineSet
Substitution2: "'rtla' Right to Left Alternates lookup 0 subtable" parenleft
EndChar

StartChar: asterisk
Encoding: 42 42 13
Width: 1229
Flags: MW
HStem: 1108 20G<710 710 995 995> 1578 20G<858 1046 1046 1046>
VStem: 371 965<978 1280>
LayerCount: 2
Fore
SplineSet
847 659 m 1
 659 659 l 1
 753 1006 l 1
 430 816 l 1
 371 978 l 1
 710 1128 l 1
 436 1280 l 1
 562 1439 l 1
 805 1250 l 1
 858 1598 l 1
 1046 1598 l 1
 946 1250 l 1
 1275 1439 l 1
 1336 1280 l 1
 995 1128 l 1
 1271 978 l 1
 1143 816 l 1
 894 1006 l 1
 847 659 l 1
EndSplineSet
EndChar

StartChar: plus
Encoding: 43 43 14
Width: 1229
Flags: MW
HStem: 0 21G<536 692 536 536> 465 156<202 634 169 667 823 1255 202 790>
VStem: 169 1119<465 621>
LayerCount: 2
Fore
SplineSet
823 621 m 1
 1288 621 l 1
 1255 465 l 1
 790 465 l 1
 692 0 l 1
 536 0 l 1
 634 465 l 1
 169 465 l 1
 202 621 l 1
 667 621 l 1
 766 1086 l 1
 922 1086 l 1
 823 621 l 1
EndSplineSet
EndChar

StartChar: comma
Encoding: 44 44 15
Width: 1229
Flags: MW
HStem: -434 21G<331 331> -34 21G<577 608>
VStem: 331 487
LayerCount: 2
Fore
SplineSet
331 -434 m 1
 358 -310 l 1
 409 -297 449 -279 479 -255 c 0
 539 -208 587 -137 608 -34 c 1
 546 -34 504 -17 482 18 c 0
 461 53 454 91 462 131 c 0
 472 177 497 216 536 247 c 0
 575 279 617 295 660 295 c 0
 716 295 759 271 789 222 c 0
 820 174 826 108 809 24 c 0
 762 -191 569 -405 331 -434 c 1
EndSplineSet
EndChar

StartChar: hyphen
Encoding: 45 45 16
Width: 1229
Flags: MW
HStem: 551 155<377 1120 344 1153>
VStem: 344 809<551 706>
LayerCount: 2
Fore
SplineSet
1120 551 m 1
 344 551 l 1
 377 706 l 1
 1153 706 l 1
 1120 551 l 1
EndSplineSet
EndChar

StartChar: period
Encoding: 46 46 17
Width: 1229
Flags: MW
HStem: -47 21G<581.5 626.5>
VStem: 471 334
LayerCount: 2
Fore
SplineSet
604 -47 m 0
 559 -47 524 -31 499 1 c 0
 474 33 466 71 475 116 c 0
 485 161 509 200 548 231 c 0
 587 263 629 279 673 279 c 0
 717 279 752 263 777 231 c 0
 803 200 811 161 801 116 c 0
 792 71 768 33 729 1 c 0
 690 -31 649 -47 604 -47 c 0
EndSplineSet
EndChar

StartChar: slash
Encoding: 47 47 18
Width: 1229
Flags: MW
HStem: -47 21G<23 206 23 23> 1578 20G<1359 1536 1536 1536>
VStem: 23 1513
LayerCount: 2
Fore
SplineSet
1536 1598 m 1
 206 -47 l 1
 23 -47 l 1
 1359 1598 l 1
 1536 1598 l 1
EndSplineSet
EndChar

StartChar: zero
Encoding: 48 48 19
Width: 1229
Flags: MW
HStem: -47 155<582 691.5 582 692.5> 1443 155<865 941.5>
VStem: 198 207 1148 211
LayerCount: 2
Fore
SplineSet
953 1598 m 0
 1130 1598 1249 1524 1310 1375 c 0
 1371 1227 1375 1027 1321 776 c 0
 1268 524 1179 324 1055 175 c 0
 931 27 781 -47 604 -47 c 0
 428 -47 309 27 247 175 c 0
 186 324 182 524 235 776 c 0
 289 1027 378 1227 502 1375 c 0
 627 1524 777 1598 953 1598 c 0
405 444 m 1
 1121 1285 l 1
 1100 1347 1071 1389 1036 1410 c 0
 1001 1432 963 1443 920 1443 c 0
 809 1443 711 1381 626 1257 c 0
 542 1134 480 977 440 787 c 0
 431 744 422 697 414 647 c 0
 406 597 403 529 405 444 c 1
1148 1100 m 1
 435 254 l 1
 472 157 536 108 628 108 c 0
 755 108 860 179 943 320 c 0
 1027 462 1087 619 1124 792 c 0
 1147 899 1155 1001 1148 1100 c 1
EndSplineSet
EndChar

StartChar: one
Encoding: 49 49 20
Width: 1229
Flags: MW
HStem: 0 155<220 600 786 1127 188 600> 1532 20G<897 1083 1083 1083>
VStem: 188 971<0 155>
LayerCount: 2
Fore
SplineSet
220 155 m 1
 600 155 l 1
 855 1353 l 1
 790 1308 727 1270 668 1239 c 0
 609 1208 529 1176 430 1143 c 1
 466 1311 l 1
 625 1373 769 1453 897 1552 c 1
 1083 1552 l 1
 786 155 l 1
 1159 155 l 1
 1127 0 l 1
 188 0 l 1
 220 155 l 1
EndSplineSet
EndChar

StartChar: two
Encoding: 50 50 21
Width: 1229
Flags: MW
HStem: 0 171<185 185 378 1088 149 185> 1443 155<890 1020.5>
VStem: 1130 208
LayerCount: 2
Fore
SplineSet
1124 171 m 1
 1088 0 l 1
 149 0 l 1
 185 171 l 2
 194 215 213 262 242 312 c 0
 271 363 317 419 381 482 c 0
 445 545 511 605 580 663 c 2
 709 771 l 2
 735 793 792 844 881 924 c 0
 970 1004 1031 1065 1063 1108 c 0
 1096 1151 1116 1193 1125 1234 c 0
 1139 1301 1123 1352 1077 1388 c 0
 1032 1425 976 1443 909 1443 c 0
 871 1443 828 1439 779 1430 c 0
 730 1421 687 1411 649 1399 c 0
 611 1388 549 1364 462 1328 c 1
 497 1493 l 1
 590 1533 680 1560 767 1575 c 0
 854 1590 925 1598 980 1598 c 0
 1061 1598 1132 1585 1194 1558 c 0
 1256 1532 1298 1491 1319 1436 c 0
 1340 1381 1344 1322 1331 1259 c 0
 1316 1189 1280 1117 1222 1044 c 0
 1164 971 1064 876 922 761 c 2
 784 648 l 1
 668 554 l 2
 595 493 533 433 483 376 c 0
 434 319 399 250 378 171 c 1
 1124 171 l 1
EndSplineSet
EndChar

StartChar: three
Encoding: 51 51 22
Width: 1229
Flags: MW
HStem: -47 155<508 595.5> 776 155<505 575 472 648> 1443 155<810.5 886>
VStem: 998 208 1083 208
LayerCount: 2
Fore
SplineSet
150 28 m 1xf0
 192 224 l 1
 328 147 452 108 564 108 c 0
 667 108 758 139 838 201 c 0
 919 264 969 344 990 442 c 0
 1011 541 992 621 931 683 c 0xf0
 870 745 752 776 575 776 c 2
 472 776 l 1
 505 931 l 1
 648 931 l 2
 778 931 878 960 949 1018 c 0
 1020 1077 1062 1142 1077 1213 c 0
 1091 1278 1079 1332 1041 1376 c 0
 1003 1421 935 1443 837 1443 c 0
 727 1443 602 1412 462 1350 c 1
 500 1527 l 1
 637 1574 758 1598 863 1598 c 0
 1052 1598 1174 1561 1230 1486 c 0
 1286 1412 1304 1327 1283 1232 c 0
 1268 1161 1235 1095 1184 1033 c 0xe8
 1133 971 1051 916 939 867 c 1
 1023 840 1084 808 1122 769 c 0
 1198 692 1223 586 1195 455 c 0
 1164 310 1085 190 957 95 c 0
 830 0 681 -47 510 -47 c 0
 461 -47 407 -43 350 -36 c 0
 293 -29 227 -7 150 28 c 1xf0
EndSplineSet
EndChar

StartChar: four
Encoding: 52 52 23
Width: 1229
Flags: MW
HStem: 0 21G<707 894 707 707> 434 156<173 173 371 799 140 173 1019 1273> 1532 20G<1036 1223 1223 1223>
VStem: 140 1166<434 590>
LayerCount: 2
Fore
SplineSet
894 0 m 1
 707 0 l 1
 799 434 l 1
 140 434 l 1
 173 590 l 1
 1036 1552 l 1
 1223 1552 l 1
 1019 590 l 1
 1306 590 l 1
 1273 434 l 1
 986 434 l 1
 894 0 l 1
371 590 m 1
 832 590 l 1
 976 1270 l 1
 371 590 l 1
EndSplineSet
EndChar

StartChar: five
Encoding: 53 53 24
Width: 1229
Flags: MW
HStem: -47 171<537.5 581> 807 186<359 617> 1373 179<665 1348 665 665>
VStem: 998 218
LayerCount: 2
Fore
SplineSet
480 807 m 2
 359 807 l 1
 517 1552 l 1
 1386 1552 l 1
 1348 1373 l 1
 665 1373 l 1
 585 993 l 1
 617 993 l 2
 840 993 1002 946 1103 853 c 0
 1204 760 1237 634 1204 476 c 0
 1183 376 1139 286 1073 207 c 0
 1008 128 926 65 828 20 c 0
 730 -25 631 -47 531 -47 c 0
 431 -47 308 -23 162 26 c 1
 205 229 l 1
 255 198 313 173 379 153 c 0
 445 134 508 124 567 124 c 0
 626 124 687 138 750 167 c 0
 813 196 865 237 908 292 c 0
 951 347 979 404 991 461 c 0
 1012 558 986 639 915 706 c 0
 844 773 699 807 480 807 c 2
EndSplineSet
EndChar

StartChar: six
Encoding: 54 54 25
Width: 1229
Flags: MW
HStem: -47 155<641 704 641 710> 815 155<868.5 906.5> 1443 155<977.5 1083> 1532 20G<1370 1370>
VStem: 228 224 1086 191
LayerCount: 2
Fore
SplineSet
455 768 m 2xec
 446 728 l 1
 509 799 581 857 662 902 c 0
 743 947 826 970 911 970 c 0
 992 970 1064 950 1128 911 c 0
 1256 832 1303 688 1263 501 c 0
 1232 354 1157 225 1040 116 c 0
 923 7 787 -47 633 -47 c 0
 452 -47 332 29 274 180 c 0
 217 332 213 525 263 759 c 0
 318 1018 418 1222 564 1372 c 0
 710 1523 880 1598 1075 1598 c 0xec
 1180 1598 1278 1583 1370 1552 c 1xdc
 1330 1364 l 1
 1231 1417 1132 1443 1034 1443 c 0
 895 1443 774 1379 671 1252 c 0
 568 1125 496 963 455 768 c 2xec
679 108 m 0
 729 108 782 123 839 152 c 0
 896 182 946 228 988 289 c 0
 1031 351 1060 418 1075 491 c 0
 1095 586 1087 663 1051 724 c 0
 1015 785 952 815 861 815 c 0
 767 815 682 780 607 709 c 0
 532 639 483 554 462 453 c 0
 440 352 452 269 497 204 c 0
 542 140 603 108 679 108 c 0
EndSplineSet
EndChar

StartChar: seven
Encoding: 55 55 26
Width: 1229
Flags: MW
HStem: 0 21G<319 521 319 319> 1365 187<493 1259 454 1478>
VStem: 319 1159
LayerCount: 2
Fore
SplineSet
521 0 m 1
 319 0 l 1
 348 139 l 2
 371 248 403 339 443 413 c 0
 484 487 545 569 626 660 c 0
 707 751 772 821 819 870 c 2
 1027 1084 l 1
 1101 1159 l 2
 1158 1218 1210 1287 1259 1365 c 1
 454 1365 l 1
 493 1552 l 1
 1478 1552 l 1
 1452 1428 l 2
 1441 1379 1422 1333 1393 1291 c 0
 1365 1249 1287 1159 1158 1022 c 0
 1127 989 1096 957 1066 924 c 2
 931 778 l 2
 844 684 779 609 735 553 c 0
 691 497 654 439 625 378 c 0
 596 317 571 238 550 139 c 2
 521 0 l 1
EndSplineSet
EndChar

StartChar: eight
Encoding: 56 56 27
Width: 1229
Flags: MW
HStem: -47 156<611.5 687.5 611.5 693.5> 1443 155<926.5 966.5>
VStem: 198 208 469 186 987 210 1130 194
LayerCount: 2
Fore
SplineSet
636 837 m 1xf4
 608 862 l 2
 567 895 531 944 500 1009 c 0
 469 1074 461 1146 478 1224 c 0
 500 1327 559 1415 656 1488 c 0
 753 1561 864 1598 989 1598 c 0
 1066 1598 1132 1584 1187 1556 c 0xf4
 1299 1501 1343 1385 1316 1257 c 0
 1307 1213 1290 1170 1266 1129 c 0
 1242 1088 1210 1048 1171 1007 c 0
 1132 967 1060 910 954 837 c 1
 1024 770 l 2
 1105 690 1157 621 1178 563 c 0
 1200 505 1203 440 1188 368 c 0xf8
 1164 256 1103 159 1004 76 c 0
 905 -6 775 -47 612 -47 c 0
 449 -47 334 -9 269 68 c 0
 204 145 184 241 208 355 c 0
 244 525 387 686 636 837 c 1xf4
808 966 m 2
 848 932 l 1
 957 1003 1028 1063 1062 1111 c 0
 1096 1159 1117 1204 1126 1245 c 0
 1137 1295 1124 1340 1089 1381 c 0
 1054 1422 1001 1443 932 1443 c 0
 857 1443 796 1421 747 1376 c 0
 699 1331 670 1285 659 1237 c 0
 650 1190 657 1146 680 1105 c 0
 704 1064 747 1017 808 966 c 2
805 691 m 2
 755 738 l 1
 550 603 436 476 411 358 c 0
 396 288 412 229 460 181 c 0
 508 133 572 109 651 109 c 0
 724 109 793 132 860 178 c 0
 927 224 968 281 983 350 c 0
 997 417 977 486 922 555 c 0xf8
 867 624 828 670 805 691 c 2
EndSplineSet
EndChar

StartChar: nine
Encoding: 57 57 28
Width: 1229
Flags: MW
HStem: -47 156<474 579.5> 0 21G<187 187> 582 155<650.5 688.5> 1443 155<852 915>
VStem: 280 191 1105 223
LayerCount: 2
Fore
SplineSet
1102 784 m 2xbc
 1111 824 l 1
 1048 753 976 694 895 649 c 0
 814 604 731 582 646 582 c 0
 565 582 493 601 429 640 c 0
 301 719 254 864 294 1051 c 0
 325 1198 400 1325 517 1434 c 0
 634 1543 770 1598 924 1598 c 0
 1105 1598 1225 1522 1282 1370 c 0
 1339 1219 1343 1026 1294 792 c 0
 1239 533 1138 329 992 178 c 0
 847 28 677 -47 482 -47 c 0xbc
 377 -47 279 -31 187 0 c 1x7c
 226 187 l 1
 326 135 425 109 523 109 c 0
 662 109 782 173 885 300 c 0
 988 427 1061 589 1102 784 c 2xbc
877 1443 m 0
 827 1443 773 1428 716 1398 c 0
 659 1369 610 1323 568 1262 c 0
 526 1201 497 1133 482 1060 c 0
 462 966 470 889 506 828 c 0
 542 767 605 737 696 737 c 0
 790 737 875 772 950 842 c 0
 1025 913 1074 998 1095 1098 c 0
 1116 1199 1104 1282 1059 1346 c 0
 1014 1411 953 1443 877 1443 c 0
EndSplineSet
EndChar

StartChar: colon
Encoding: 58 58 29
Width: 1229
Flags: MW
HStem: -47 21G<581.5 626.5> 1128 20G<836 880>
VStem: 471 519
LayerCount: 2
Fore
SplineSet
604 -47 m 0
 559 -47 524 -31 499 1 c 0
 474 33 466 71 475 116 c 0
 485 161 509 200 548 231 c 0
 587 263 629 279 673 279 c 0
 717 279 752 263 777 231 c 0
 803 200 811 161 801 116 c 0
 792 71 768 33 729 1 c 0
 690 -31 649 -47 604 -47 c 0
788 822 m 0
 743 822 708 838 683 870 c 0
 658 902 651 940 660 985 c 0
 669 1030 694 1069 733 1100 c 0
 772 1132 814 1148 858 1148 c 0
 902 1148 937 1132 962 1100 c 0
 987 1069 995 1030 986 985 c 0
 977 940 952 902 913 870 c 0
 874 838 833 822 788 822 c 0
EndSplineSet
EndChar

StartChar: semicolon
Encoding: 59 59 30
Width: 1229
Flags: MW
HStem: -434 21G<331 331> -34 21G<577 608> 1128 20G<820 864>
VStem: 331 643
LayerCount: 2
Fore
SplineSet
331 -434 m 1
 358 -310 l 1
 409 -297 449 -279 479 -255 c 0
 539 -208 587 -137 608 -34 c 1
 546 -34 504 -17 482 18 c 0
 461 53 454 91 462 131 c 0
 472 177 497 216 536 247 c 0
 575 279 617 295 660 295 c 0
 716 295 759 271 789 222 c 0
 820 174 826 108 809 24 c 0
 762 -191 569 -405 331 -434 c 1
772 822 m 0
 727 822 692 838 667 870 c 0
 642 902 635 940 644 985 c 0
 653 1030 678 1069 717 1100 c 0
 756 1132 798 1148 842 1148 c 0
 886 1148 921 1132 946 1100 c 0
 971 1069 979 1030 970 985 c 0
 961 940 936 902 897 870 c 0
 858 838 817 822 772 822 c 0
EndSplineSet
EndChar

StartChar: less
Encoding: 60 60 31
Width: 1229
Flags: MW
HStem: 0 21G<1157 1157>
VStem: 186 1201<543 1086>
LayerCount: 2
Fore
SplineSet
1157 0 m 1
 186 543 l 1
 1387 1086 l 1
 1351 913 l 1
 530 544 l 1
 1193 171 l 1
 1157 0 l 1
EndSplineSet
Substitution2: "'rtla' Right to Left Alternates lookup 0 subtable" greater
EndChar

StartChar: equal
Encoding: 61 61 32
Width: 1229
Flags: MW
HStem: 287 155<164 1218 132 1250> 636 155<239 1292 206 1325>
VStem: 132 1193<287 791>
LayerCount: 2
Fore
SplineSet
239 791 m 1
 1325 791 l 1
 1292 636 l 1
 206 636 l 1
 239 791 l 1
164 442 m 1
 1250 442 l 1
 1218 287 l 1
 132 287 l 1
 164 442 l 1
EndSplineSet
EndChar

StartChar: greater
Encoding: 62 62 33
Width: 1229
Flags: MW
HStem: 0 21G<71 71>
VStem: 71 1201<0 543>
LayerCount: 2
Fore
SplineSet
301 1086 m 1
 1272 543 l 1
 71 0 l 1
 107 173 l 1
 929 542 l 1
 265 915 l 1
 301 1086 l 1
EndSplineSet
Substitution2: "'rtla' Right to Left Alternates lookup 0 subtable" less
EndChar

StartChar: question
Encoding: 63 63 34
Width: 1229
Flags: MW
HStem: -47 21G<473.5 512.5> 1443 155<873 947>
VStem: 1123 207
LayerCount: 2
Fore
SplineSet
680 442 m 1
 494 442 l 1
 502 477 l 2
 514 532 528 578 545 615 c 0
 562 652 588 691 623 730 c 0
 658 770 707 818 772 874 c 2
 848 940 l 2
 863 953 884 973 913 1002 c 2
 997 1085 l 2
 1068 1154 1108 1214 1119 1265 c 0
 1129 1312 1118 1353 1085 1389 c 0
 1053 1425 992 1443 902 1443 c 0
 844 1443 783 1435 719 1419 c 0
 656 1404 579 1373 489 1328 c 1
 527 1508 l 1
 663 1568 798 1598 933 1598 c 0
 1082 1598 1190 1567 1255 1506 c 0
 1320 1445 1343 1366 1322 1269 c 0
 1302 1173 1230 1073 1107 970 c 2
 1026 902 l 1
 931 821 l 1
 844 748 l 2
 812 719 782 685 754 647 c 0
 726 609 705 556 690 488 c 2
 680 442 l 1
493 -47 m 0
 454 -47 424 -33 401 -4 c 0
 379 24 372 58 380 97 c 0
 389 136 410 170 444 198 c 0
 479 226 515 240 554 240 c 0
 593 240 624 226 646 198 c 0
 669 171 676 137 667 97 c 0
 658 57 637 23 602 -5 c 0
 568 -33 532 -47 493 -47 c 0
EndSplineSet
EndChar

StartChar: at
Encoding: 64 64 35
Width: 1229
Flags: MW
HStem: -47 117<595.5 647> 434 140<1051 1065.5> 434 156<581 594> 1078 132<865.5 1124 933 941> 1482 116<879.5 969.5>
VStem: 136 130 380 165 844 167 1307 131
LayerCount: 2
Fore
SplineSet
963 200 m 1xdf80
 930 43 l 1
 866 6 811 -18 765 -29 c 0
 720 -41 672 -47 622 -47 c 0
 483 -47 377 -13 303 54 c 0
 155 190 93 432 168 781 c 0
 219 1024 317 1220 460 1371 c 0
 603 1522 770 1598 959 1598 c 0
 1146 1598 1280 1531 1361 1398 c 0
 1442 1265 1459 1089 1413 872 c 0
 1392 776 1361 697 1320 635 c 0
 1239 512 1131 434 1000 434 c 0
 949 434 910 445 883 467 c 0xdf80
 856 490 843 541 844 622 c 1
 816 579 778 536 731 495 c 0
 684 454 627 434 561 434 c 0
 492 434 442 465 410 527 c 0xbf80
 378 590 372 666 391 757 c 0
 415 868 469 972 554 1067 c 0
 639 1162 765 1210 933 1210 c 2
 1124 1210 l 1
 1031 772 l 2
 1018 714 1012 673 1011 648 c 0
 1010 600 1035 574 1067 574 c 0
 1146 569 1259 705 1288 866 c 0
 1311 977 1314 1085 1295 1190 c 0
 1277 1295 1233 1370 1162 1415 c 0
 1092 1460 1013 1482 926 1482 c 0
 833 1482 746 1454 663 1398 c 0
 581 1343 506 1259 437 1148 c 0
 368 1037 320 914 291 779 c 0
 262 644 258 518 278 403 c 0
 298 288 340 203 405 150 c 0
 470 97 549 70 642 70 c 0
 748 70 855 113 963 200 c 1xdf80
883 809 m 1
 941 1078 l 1
 905 1078 l 2
 826 1078 767 1066 727 1041 c 0
 687 1016 651 978 620 925 c 0
 589 872 566 814 553 751 c 0
 532 648 553 590 609 590 c 0
 648 590 693 613 744 658 c 0xbf80
 795 704 841 754 883 809 c 1
EndSplineSet
EndChar

StartChar: A
Encoding: 65 65 36
Width: 1229
Flags: MW
HStem: 0 21G<33 227 33 33 984 984 984 1197> 341 155<404 938 485 938 485 950> 1532 20G<840 1045 1045 1045>
VStem: 33 1164<0 0>
LayerCount: 2
Fore
SplineSet
404 341 m 1
 227 0 l 1
 33 0 l 1
 840 1552 l 1
 1045 1552 l 1
 1197 0 l 1
 984 0 l 1
 950 341 l 1
 404 341 l 1
793 1085 m 1
 485 496 l 1
 938 496 l 1
 876 1085 l 1
 865 1241 l 1
 793 1085 l 1
EndSplineSet
EndChar

StartChar: B
Encoding: 66 66 37
Width: 1229
Flags: MW
HStem: 0 155<406 549> 698 155<522 767 555 578> 1396 156<670 670 670 804 804 811>
VStem: 970 203 1088 201
LayerCount: 2
Fore
SplineSet
549 0 m 2xf0
 172 0 l 1
 501 1552 l 1
 804 1552 l 2
 986 1552 1105 1538 1161 1510 c 0xe8
 1273 1455 1309 1342 1280 1203 c 0
 1269 1148 1249 1096 1220 1047 c 0
 1164 950 1084 871 933 799 c 1
 1046 750 1117 689 1145 617 c 0
 1174 545 1180 473 1165 401 c 0
 1150 332 1118 266 1067 201 c 0
 1016 136 954 87 880 52 c 0
 806 17 696 0 549 0 c 2xf0
670 1396 m 1
 555 853 l 1
 767 853 l 1
 842 882 898 912 936 943 c 0
 1013 1007 1061 1085 1081 1178 c 0
 1096 1251 1086 1306 1051 1342 c 0
 1016 1378 936 1396 811 1396 c 2
 670 1396 l 1
522 698 m 1
 406 155 l 1
 597 155 l 2
 704 155 788 180 850 230 c 0
 912 281 950 341 965 412 c 0
 976 464 972 512 953 555 c 0xf0
 934 599 898 634 845 659 c 0
 792 685 703 698 578 698 c 2
 522 698 l 1
EndSplineSet
EndChar

StartChar: C
Encoding: 67 67 38
Width: 1229
Flags: MW
HStem: -47 155<710.5 812> 1443 156<1053.5 1127>
VStem: 255 213
LayerCount: 2
Fore
SplineSet
1130 201 m 1
 1091 18 l 1
 966 -25 858 -47 766 -47 c 0
 645 -47 540 -15 451 50 c 0
 363 115 304 212 275 340 c 0
 246 469 248 614 282 776 c 0
 317 937 375 1081 458 1209 c 0
 541 1337 641 1434 757 1500 c 0
 873 1566 992 1599 1115 1599 c 0
 1207 1599 1307 1577 1414 1534 c 1
 1374 1350 l 1
 1280 1412 1180 1443 1074 1443 c 0
 994 1443 915 1416 837 1361 c 0
 759 1306 688 1226 625 1120 c 0
 562 1015 518 900 491 776 c 0
 464 650 461 534 480 427 c 0
 519 214 631 108 790 108 c 0
 895 108 1009 139 1130 201 c 1
EndSplineSet
EndChar

StartChar: D
Encoding: 68 68 39
Width: 1229
Flags: MW
HStem: 0 171<393 523> 1396 156<653 653 653 804>
VStem: 1151 196
LayerCount: 2
Fore
SplineSet
523 0 m 2
 155 0 l 1
 484 1552 l 1
 852 1552 l 2
 1021 1552 1141 1522 1211 1463 c 0
 1281 1404 1324 1315 1340 1196 c 0
 1356 1077 1347 935 1312 772 c 0
 1279 617 1228 481 1159 364 c 0
 1091 247 1010 157 917 94 c 0
 824 31 692 0 523 0 c 2
653 1396 m 1
 393 171 l 1
 528 171 l 2
 665 171 767 195 836 244 c 0
 905 293 961 360 1004 446 c 0
 1047 533 1085 652 1117 804 c 0
 1149 953 1159 1067 1146 1147 c 0
 1134 1227 1105 1288 1059 1331 c 0
 1014 1374 929 1396 804 1396 c 2
 653 1396 l 1
EndSplineSet
EndChar

StartChar: E
Encoding: 69 69 40
Width: 1229
Flags: MW
HStem: 0 171<441 1041> 714 155<589 1114 556 1147> 1396 156<701 1321 701 701>
VStem: 203 1151
LayerCount: 2
Fore
SplineSet
441 171 m 1
 1077 171 l 1
 1041 0 l 1
 203 0 l 1
 532 1552 l 1
 1354 1552 l 1
 1321 1396 l 1
 701 1396 l 1
 589 869 l 1
 1147 869 l 1
 1114 714 l 1
 556 714 l 1
 441 171 l 1
EndSplineSet
EndChar

StartChar: F
Encoding: 70 70 41
Width: 1229
Flags: MW
HStem: 0 21G<227 429 227 227> 714 155<613 1169 580 1202> 1396 156<725 1376 725 725>
VStem: 227 1182
LayerCount: 2
Fore
SplineSet
429 0 m 1
 227 0 l 1
 556 1552 l 1
 1409 1552 l 1
 1376 1396 l 1
 725 1396 l 1
 613 869 l 1
 1202 869 l 1
 1169 714 l 1
 580 714 l 1
 429 0 l 1
EndSplineSet
EndChar

StartChar: G
Encoding: 71 71 42
Width: 1229
Flags: MW
HStem: -47 155<744.5 822.5> 613 155<894 1016 861 1251> 1443 156<1053 1126>
VStem: 255 213
LayerCount: 2
Fore
SplineSet
1251 768 m 1
 1088 1 l 1
 972 -31 868 -47 777 -47 c 0
 648 -47 539 -15 451 49 c 0
 364 113 305 209 275 338 c 0
 246 467 248 613 282 776 c 0
 317 937 375 1081 458 1209 c 0
 541 1337 641 1434 757 1500 c 0
 873 1566 992 1599 1114 1599 c 0
 1206 1599 1306 1577 1413 1534 c 1
 1373 1350 l 1
 1279 1412 1179 1443 1073 1443 c 0
 993 1443 914 1416 836 1361 c 0
 758 1306 688 1226 625 1120 c 0
 562 1015 518 899 491 774 c 0
 455 606 461 453 508 315 c 0
 555 177 662 108 827 108 c 0
 848 108 876 110 910 113 c 1
 1016 613 l 1
 861 613 l 1
 894 768 l 1
 1251 768 l 1
EndSplineSet
EndChar

StartChar: H
Encoding: 72 72 43
Width: 1229
Flags: MW
HStem: 0 21G<126 328 126 126 902 902 902 1103> 729 155<515 1056 482 1089> 1532 20G<455 657 657 657 1231 1432 1432 1432>
VStem: 126 1306
LayerCount: 2
Fore
SplineSet
328 0 m 1
 126 0 l 1
 455 1552 l 1
 657 1552 l 1
 515 884 l 1
 1089 884 l 1
 1231 1552 l 1
 1432 1552 l 1
 1103 0 l 1
 902 0 l 1
 1056 729 l 1
 482 729 l 1
 328 0 l 1
EndSplineSet
EndChar

StartChar: I
Encoding: 73 73 44
Width: 1229
Flags: MW
HStem: 0 155<204 545 747 1056 172 545> 1396 156<501 809 468 1385 1011 1011 1011 1352>
VStem: 172 1213
LayerCount: 2
Fore
SplineSet
1056 0 m 1
 172 0 l 1
 204 155 l 1
 545 155 l 1
 809 1396 l 1
 468 1396 l 1
 501 1552 l 1
 1385 1552 l 1
 1352 1396 l 1
 1011 1396 l 1
 747 155 l 1
 1088 155 l 1
 1056 0 l 1
EndSplineSet
EndChar

StartChar: J
Encoding: 74 74 45
Width: 1229
Flags: MW
HStem: -47 156<449 523.5 449 576> 1396 156<734 1050 701 1285>
VStem: 117 1168
LayerCount: 2
Fore
SplineSet
117 34 m 1
 157 224 l 1
 286 147 400 109 498 109 c 0
 549 109 598 119 644 139 c 0
 691 159 731 192 766 239 c 0
 801 286 835 387 868 541 c 2
 1050 1396 l 1
 701 1396 l 1
 734 1552 l 1
 1285 1552 l 1
 1069 536 l 2
 1034 371 990 252 937 179 c 0
 830 34 682 -47 470 -47 c 0
 351 -47 234 -20 117 34 c 1
EndSplineSet
EndChar

StartChar: K
Encoding: 75 75 46
Width: 1229
Flags: MW
HStem: 0 21G<157 359 157 157 975 975 975 1228> 1532 20G<486 688 688 688 1265 1479 1479 1479>
VStem: 157 1322
LayerCount: 2
Fore
SplineSet
359 0 m 1
 157 0 l 1
 486 1552 l 1
 688 1552 l 1
 527 791 l 1
 1265 1552 l 1
 1479 1552 l 1
 766 815 l 1
 1228 0 l 1
 975 0 l 1
 527 791 l 1
 359 0 l 1
EndSplineSet
EndChar

StartChar: L
Encoding: 76 76 47
Width: 1229
Flags: MW
HStem: 0 171<457 1057> 1532 20G<548 750 750 750>
VStem: 219 874<0 171>
LayerCount: 2
Fore
SplineSet
457 171 m 1
 1093 171 l 1
 1057 0 l 1
 219 0 l 1
 548 1552 l 1
 750 1552 l 1
 457 171 l 1
EndSplineSet
EndChar

StartChar: M
Encoding: 77 77 48
Width: 1229
Flags: MW
HStem: 0 21G<56 219 56 56 987 987 987 1173> 1532 20G<385 588 588 588 1304 1502 1502 1502>
VStem: 56 1446
LayerCount: 2
Fore
SplineSet
429 989 m 1
 219 0 l 1
 56 0 l 1
 385 1552 l 1
 588 1552 l 1
 729 530 l 1
 1304 1552 l 1
 1502 1552 l 1
 1173 0 l 1
 987 0 l 1
 1197 989 l 1
 1231 1125 l 1
 1226 1125 l 1
 1153 989 l 1
 768 310 l 1
 566 310 l 1
 468 989 l 1
 458 1125 l 1
 453 1125 l 1
 429 989 l 1
EndSplineSet
EndChar

StartChar: N
Encoding: 78 78 49
Width: 1229
Flags: MW
HStem: 0 21G<126 312 126 126 917 917 917 1103> 1532 20G<455 637 637 637 1246 1432 1432 1432>
VStem: 126 1306
LayerCount: 2
Fore
SplineSet
528 1018 m 1
 312 0 l 1
 126 0 l 1
 455 1552 l 1
 637 1552 l 1
 967 519 l 1
 994 365 l 1
 999 365 l 1
 1027 519 l 1
 1246 1552 l 1
 1432 1552 l 1
 1103 0 l 1
 917 0 l 1
 598 1016 l 1
 558 1179 l 1
 528 1018 l 1
EndSplineSet
EndChar

StartChar: O
Encoding: 79 79 50
Width: 1229
Flags: MW
HStem: -47 156<588.5 685.5 588.5 692.5> 1443 155<871.5 968.5>
VStem: 198 202 1157 202
LayerCount: 2
Fore
SplineSet
604 -47 m 0
 428 -47 309 27 247 175 c 0
 186 324 182 524 235 776 c 0
 289 1027 378 1227 502 1375 c 0
 627 1524 777 1598 953 1598 c 0
 1130 1598 1249 1524 1310 1375 c 0
 1371 1227 1375 1027 1321 776 c 0
 1268 524 1179 324 1055 175 c 0
 931 27 781 -47 604 -47 c 0
637 109 m 0
 734 109 827 164 915 274 c 0
 1004 385 1072 552 1119 776 c 0
 1167 1000 1170 1167 1128 1277 c 0
 1087 1388 1017 1443 920 1443 c 0
 823 1443 730 1388 641 1277 c 0
 553 1167 485 1000 437 776 c 0
 390 552 387 385 428 274 c 0
 470 164 540 109 637 109 c 0
EndSplineSet
EndChar

StartChar: P
Encoding: 80 80 51
Width: 1229
Flags: MW
HStem: 0 21G<176 378 176 176> 566 155<531 580 498 618> 1396 156<674 674 674 795>
VStem: 1175 206
LayerCount: 2
Fore
SplineSet
580 566 m 2
 498 566 l 1
 378 0 l 1
 176 0 l 1
 505 1552 l 1
 891 1552 l 2
 1050 1552 1162 1534 1227 1498 c 0
 1292 1463 1337 1411 1361 1342 c 0
 1385 1273 1388 1197 1370 1112 c 0
 1349 1013 1303 920 1232 834 c 0
 1162 748 1076 682 973 635 c 0
 870 589 739 566 580 566 c 2
674 1396 m 1
 531 721 l 1
 618 721 l 2
 743 721 839 737 906 769 c 0
 973 802 1030 848 1075 909 c 0
 1121 970 1152 1035 1167 1106 c 0
 1186 1195 1171 1266 1124 1318 c 0
 1077 1370 967 1396 795 1396 c 2
 674 1396 l 1
EndSplineSet
EndChar

StartChar: Q
Encoding: 81 81 52
Width: 1229
Flags: MW
HStem: -434 155<1022.5 1167 1087 1167> -29 21G 1443 155<871.5 968.5>
VStem: 205 195 1157 202
LayerCount: 2
Fore
SplineSet
739 -29 m 1
 770 -106 800 -160 830 -190 c 0
 891 -250 1006 -279 1149 -279 c 2
 1167 -279 l 1
 1134 -434 l 1
 1087 -434 l 2
 958 -434 867 -421 814 -394 c 0
 709 -341 626 -236 581 -45 c 1
 462 -32 373 7 316 71 c 0
 259 135 223 234 210 368 c 0
 197 502 208 646 241 800 c 0
 288 1025 373 1215 496 1368 c 0
 619 1521 771 1598 953 1598 c 0
 1129 1598 1248 1524 1309 1376 c 0
 1371 1228 1375 1028 1321 775 c 0
 1296 655 1259 540 1211 430 c 0
 1164 321 1101 224 1024 141 c 0
 947 58 852 2 739 -29 c 1
920 1443 m 0
 823 1443 730 1388 641 1277 c 0
 553 1167 485 1000 437 776 c 0
 390 552 387 385 428 274 c 0
 470 164 540 109 637 109 c 0
 734 109 827 164 915 274 c 0
 1004 385 1072 552 1119 776 c 0
 1167 1000 1170 1167 1128 1277 c 0
 1087 1388 1017 1443 920 1443 c 0
EndSplineSet
EndChar

StartChar: R
Encoding: 82 82 53
Width: 1229
Flags: MW
HStem: 0 21G<149 351 149 149 964 964 964 1204> 659 156<524 693 491 807> 1396 156<647 647 647 798>
VStem: 1122 205
LayerCount: 2
Fore
SplineSet
693 659 m 1
 491 659 l 1
 351 0 l 1
 149 0 l 1
 478 1552 l 1
 893 1552 l 2
 1028 1552 1125 1538 1183 1510 c 0
 1242 1483 1282 1441 1305 1385 c 0
 1328 1329 1333 1269 1319 1204 c 0
 1306 1144 1282 1084 1246 1023 c 0
 1210 962 1166 908 1115 860 c 0
 1064 813 995 768 909 725 c 1
 1204 0 l 1
 964 0 l 1
 693 659 l 1
647 1396 m 1
 524 815 l 1
 807 815 l 1
 878 850 932 885 971 921 c 0
 1048 993 1099 1077 1116 1158 c 0
 1131 1231 1117 1288 1073 1331 c 0
 1029 1374 937 1396 798 1396 c 2
 647 1396 l 1
EndSplineSet
EndChar

StartChar: S
Encoding: 83 83 54
Width: 1229
Flags: MW
HStem: -47 156<550.5 638.5> 1443 155<927 1022>
VStem: 415 210 983 212
LayerCount: 2
Fore
SplineSet
164 33 m 1
 204 223 l 1
 348 147 485 109 616 109 c 0
 671 109 725 119 779 140 c 0
 888 183 958 267 978 359 c 0
 989 413 982 463 957 510 c 0
 932 557 876 609 791 666 c 2
 702 725 l 1
 611 784 l 2
 452 891 390 1025 424 1184 c 0
 449 1301 510 1399 608 1478 c 0
 706 1558 841 1598 1013 1598 c 0
 1124 1598 1227 1582 1324 1550 c 1
 1287 1377 l 1
 1182 1421 1076 1443 968 1443 c 0
 882 1443 808 1420 745 1375 c 0
 682 1330 644 1275 631 1211 c 0
 618 1148 627 1095 658 1053 c 0
 690 1011 734 972 790 937 c 2
 858 890 l 1
 942 831 l 1
 1014 783 l 1
 1162 679 1219 548 1186 391 c 0
 1160 271 1094 168 989 82 c 0
 884 -4 735 -47 542 -47 c 0
 481 -47 423 -42 369 -31 c 0
 316 -21 247 0 164 33 c 1
EndSplineSet
EndChar

StartChar: T
Encoding: 84 84 55
Width: 1229
Flags: MW
HStem: 0 21G<513 715 513 513> 1381 171<377 806 341 1510 1008 1008 1008 1474>
VStem: 341 1169<1381 1552>
LayerCount: 2
Fore
SplineSet
715 0 m 1
 513 0 l 1
 806 1381 l 1
 341 1381 l 1
 377 1552 l 1
 1510 1552 l 1
 1474 1381 l 1
 1008 1381 l 1
 715 0 l 1
EndSplineSet
EndChar

StartChar: U
Encoding: 85 85 56
Width: 1229
Flags: MW
HStem: -47 155<584.5 671 584.5 703.5> 1532 20G<455 657 657 657 1246 1432 1432 1432>
VStem: 206 205
LayerCount: 2
Fore
SplineSet
244 559 m 2
 455 1552 l 1
 657 1552 l 1
 441 533 l 2
 412 399 404 307 416 258 c 0
 440 161 528 108 641 108 c 0
 701 108 757 122 810 149 c 0
 863 177 907 220 942 279 c 0
 977 338 1012 449 1047 612 c 2
 1246 1552 l 1
 1432 1552 l 1
 1217 539 l 2
 1186 394 1141 281 1080 199 c 0
 960 36 809 -47 598 -47 c 0
 501 -47 419 -29 352 7 c 0
 285 43 241 97 218 169 c 0
 195 241 204 371 244 559 c 2
EndSplineSet
EndChar

StartChar: V
Encoding: 86 86 57
Width: 1229
Flags: MW
HStem: 0 21G<514 719 514 514> 1532 20G<362 575 575 575 1332 1526 1526 1526>
VStem: 362 1164<1552 1552>
LayerCount: 2
Fore
SplineSet
765 467 m 1
 1332 1552 l 1
 1526 1552 l 1
 719 0 l 1
 514 0 l 1
 362 1552 l 1
 575 1552 l 1
 682 468 l 1
 692 310 l 1
 765 467 l 1
EndSplineSet
EndChar

StartChar: W
Encoding: 87 87 58
Width: 1229
Flags: MW
HStem: 0 21G<208 397 208 208 822 822 822 1013> 1532 20G<357 541 541 541 849 1033 1033 1033 1372 1530 1530 1530>
VStem: 833 170 851 170
LayerCount: 2
Fore
SplineSet
397 0 m 1xe0
 208 0 l 1
 357 1552 l 1
 541 1552 l 1
 447 607 l 1
 427 450 l 1
 432 450 l 1
 486 607 l 1
 849 1552 l 1
 1033 1552 l 1xd0
 1010 569 l 1
 998 419 l 1
 1003 419 l 1
 1047 570 l 1
 1372 1552 l 1
 1530 1552 l 1
 1013 0 l 1
 822 0 l 1xe0
 845 1052 l 1
 858 1210 l 1
 853 1210 l 1
 800 1052 l 1xd0
 397 0 l 1xe0
EndSplineSet
EndChar

StartChar: X
Encoding: 88 88 59
Width: 1229
Flags: MW
HStem: 0 21G<48 258 48 48 948 948 948 1181> 1532 20G<421 650 650 650 1251 1462 1462 1462>
VStem: 48 1414
LayerCount: 2
Fore
SplineSet
738 619 m 1
 258 0 l 1
 48 0 l 1
 674 811 l 1
 421 1552 l 1
 650 1552 l 1
 834 1017 l 1
 1251 1552 l 1
 1462 1552 l 1
 898 826 l 1
 1181 0 l 1
 948 0 l 1
 738 619 l 1
EndSplineSet
EndChar

StartChar: Y
Encoding: 89 89 60
Width: 1229
Flags: MW
HStem: 0 21G<514 716 514 514> 1532 20G<381 610 610 610 1299 1506 1506 1506>
VStem: 381 1125<1552 1552>
LayerCount: 2
Fore
SplineSet
716 0 m 1
 514 0 l 1
 666 718 l 1
 381 1552 l 1
 610 1552 l 1
 824 936 l 1
 1299 1552 l 1
 1506 1552 l 1
 868 718 l 1
 716 0 l 1
EndSplineSet
EndChar

StartChar: Z
Encoding: 90 90 61
Width: 1229
Flags: MW
HStem: 0 171<158 158 392 1107 122 158> 1396 156<474 1155 441 1421 1388 1388>
VStem: 122 1299
LayerCount: 2
Fore
SplineSet
1107 0 m 1
 122 0 l 1
 158 171 l 1
 1155 1396 l 1
 441 1396 l 1
 474 1552 l 1
 1421 1552 l 1
 1388 1396 l 1
 392 171 l 1
 1143 171 l 1
 1107 0 l 1
EndSplineSet
EndChar

StartChar: bracketleft
Encoding: 91 91 62
Width: 1229
Flags: MW
HStem: -372 155<494 1082> 1489 156<857 1478 857 857>
VStem: 275 1236
LayerCount: 2
Fore
SplineSet
1082 -372 m 1
 275 -372 l 1
 704 1645 l 1
 1511 1645 l 1
 1478 1489 l 1
 857 1489 l 1
 494 -217 l 1
 1115 -217 l 1
 1082 -372 l 1
EndSplineSet
Substitution2: "'rtla' Right to Left Alternates lookup 0 subtable" bracketright
EndChar

StartChar: backslash
Encoding: 92 92 63
Width: 1229
Flags: MW
HStem: -47 21G<1004 1187 1004 1004> 1578 20G<372 549 549 549>
VStem: 372 815
LayerCount: 2
Fore
SplineSet
1187 -47 m 1
 1004 -47 l 1
 372 1598 l 1
 549 1598 l 1
 1187 -47 l 1
EndSplineSet
EndChar

StartChar: bracketright
Encoding: 93 93 64
Width: 1229
Flags: MW
HStem: -372 155<20 641 20 794 -12 641> 1489 156<416 1004 383 1223>
VStem: -12 1235
LayerCount: 2
Fore
SplineSet
416 1645 m 1
 1223 1645 l 1
 794 -372 l 1
 -12 -372 l 1
 20 -217 l 1
 641 -217 l 1
 1004 1489 l 1
 383 1489 l 1
 416 1645 l 1
EndSplineSet
Substitution2: "'rtla' Right to Left Alternates lookup 0 subtable" bracketleft
EndChar

StartChar: asciicircum
Encoding: 94 94 65
Width: 1229
Flags: MW
HStem: 1532 20G<943 943>
VStem: 169 1086<465 465>
LayerCount: 2
Fore
SplineSet
169 465 m 1
 943 1552 l 1
 1255 465 l 1
 1084 465 l 1
 871 1212 l 1
 340 465 l 1
 169 465 l 1
EndSplineSet
EndChar

StartChar: underscore
Encoding: 95 95 66
Width: 1229
Flags: MW
HStem: -155 155<71 1124 38 1157>
VStem: 38 1119<-155 0>
LayerCount: 2
Fore
SplineSet
1124 -155 m 1
 38 -155 l 1
 71 0 l 1
 1157 0 l 1
 1124 -155 l 1
EndSplineSet
EndChar

StartChar: grave
Encoding: 96 96 67
Width: 1229
Flags: MW
HStem: 1288 326<663 1105 663 935>
VStem: 663 442<1288 1614>
LayerCount: 2
Fore
SplineSet
879 1614 m 1
 1105 1288 l 1
 935 1288 l 1
 663 1614 l 1
 879 1614 l 1
EndSplineSet
EndChar

StartChar: a
Encoding: 97 97 68
Width: 1229
Flags: MW
HStem: -31 21G<411.5 491.5> -31 178<411.5 569> 0 21G<924 1118 924 924> 977 156<854.5 938.5 799 940.5> 1097 20G<1126 1313 1313 1313>
VStem: 179 212 924 190
LayerCount: 2
Fore
SplineSet
942 251 m 1xb6
 865 158 782 87 692 40 c 0
 603 -7 525 -31 458 -31 c 0
 365 -31 289 9 232 90 c 0
 175 171 164 293 199 457 c 0
 226 586 275 702 346 803 c 0
 489 1007 677 1133 921 1133 c 0xb6
 956 1133 1009 1129 1079 1122 c 2
 1126 1117 l 1
 1313 1117 l 1xae
 1145 328 l 2
 1116 193 1107 84 1118 0 c 1
 924 0 l 1
 922 61 928 145 942 251 c 1xb6
989 472 m 1
 1091 951 l 1
 1028 968 969 977 912 977 c 0
 797 977 692 933 597 844 c 0
 502 755 439 635 406 482 c 0
 383 371 386 288 415 231 c 0
 445 175 487 147 540 147 c 0
 598 147 668 176 750 235 c 0x56
 833 294 912 373 989 472 c 1
EndSplineSet
EndChar

StartChar: b
Encoding: 98 98 69
Width: 1229
Flags: MW
HStem: -16 156<513.5 598.5 513.5 653> 0 21G<141 327 141 141> 970 178<884 1041.5> 1128 20G<961.5 1041.5>
VStem: 1063 212
LayerCount: 2
Fore
SplineSet
670 1614 m 1x98
 511 866 l 1
 588 959 671 1030 760 1077 c 0
 850 1124 928 1148 995 1148 c 0
 1088 1148 1164 1108 1221 1027 c 0
 1278 946 1290 824 1255 660 c 0
 1228 531 1178 415 1107 313 c 0
 964 110 775 -16 531 -16 c 0x98
 496 -16 444 -12 373 -5 c 2
 327 0 l 1
 141 0 l 1x58
 484 1614 l 1
 670 1614 l 1x98
464 645 m 1
 362 166 l 1
 425 149 485 140 542 140 c 0
 655 140 759 184 855 272 c 0
 951 361 1015 482 1047 635 c 0
 1071 746 1068 830 1038 886 c 0
 1008 942 966 970 913 970 c 0
 855 970 785 941 702 882 c 0xa8
 620 823 541 744 464 645 c 1
EndSplineSet
EndChar

StartChar: c
Encoding: 99 99 70
Width: 1229
Flags: MW
HStem: -31 171<732 788.5> 993 155<923 1008.5>
VStem: 266 209
LayerCount: 2
Fore
SplineSet
1139 211 m 1
 1101 32 l 1
 968 -10 845 -31 732 -31 c 0
 397 -33 207 224 282 558 c 0
 318 727 403 868 537 980 c 0
 672 1092 817 1148 973 1148 c 0
 1088 1148 1206 1126 1325 1083 c 1
 1287 904 l 1
 1170 963 1060 993 957 993 c 0
 889 993 821 976 754 942 c 0
 687 909 629 856 581 785 c 0
 534 714 502 640 486 565 c 0
 464 464 475 368 518 277 c 0
 562 186 651 140 786 140 c 0
 827 140 867 143 908 148 c 0
 949 154 1026 175 1139 211 c 1
EndSplineSet
EndChar

StartChar: d
Encoding: 100 100 71
Width: 1229
Flags: MW
HStem: -31 21G<423.5 503.5> -31 178<423.5 581> 0 21G<901 901 901 1088> 977 156<866.5 950.5 811 952.5> 1097 20G<1138 1138> 1102 20G<1091 1091>
VStem: 191 212
LayerCount: 2
Fore
SplineSet
901 0 m 1xb2
 954 251 l 1
 877 158 794 87 704 40 c 0
 615 -7 537 -31 470 -31 c 0
 377 -31 301 9 244 90 c 0
 187 171 176 293 211 457 c 0
 238 586 287 702 358 803 c 0
 501 1007 689 1133 933 1133 c 0xb2
 968 1133 1021 1129 1091 1122 c 2xa6
 1138 1117 l 1xaa
 1244 1614 l 1
 1431 1614 l 1
 1088 0 l 1
 901 0 l 1xb2
1001 472 m 1
 1103 951 l 1
 1040 968 981 977 924 977 c 0
 809 977 704 933 609 844 c 0
 514 755 451 635 418 482 c 0
 395 371 398 288 427 231 c 0
 457 175 499 147 552 147 c 0
 610 147 680 176 762 235 c 0x52
 845 294 924 373 1001 472 c 1
EndSplineSet
EndChar

StartChar: e
Encoding: 101 101 72
Width: 1229
Flags: MW
HStem: -32 156<644.5 721.5> 528 139<482 1039 482 1212 442 1039> 993 155<854 900.5>
VStem: 233 197 1055 191
LayerCount: 2
Fore
SplineSet
1135 244 m 1
 1099 74 l 1
 936 3 788 -32 655 -32 c 0
 554 -32 470 -7 401 43 c 0
 332 93 284 164 256 257 c 0
 228 350 225 450 248 556 c 0
 269 658 313 756 378 850 c 0
 443 944 522 1017 615 1069 c 0
 708 1122 804 1148 904 1148 c 0
 1037 1148 1133 1101 1193 1006 c 0
 1253 911 1262 765 1220 568 c 2
 1212 528 l 1
 442 528 l 1
 425 451 426 380 445 316 c 0
 482 188 577 124 712 124 c 0
 832 124 973 164 1135 244 c 1
482 667 m 1
 1039 667 l 1
 1045 694 l 2
 1064 785 1057 858 1024 912 c 0
 991 966 938 993 863 993 c 0
 712 993 571 882 482 667 c 1
EndSplineSet
EndChar

StartChar: f
Encoding: 102 102 73
Width: 1229
Flags: MW
HStem: 0 21G<415 601 415 415> 869 155<384 599 351 632 384 785 818 1228> 1489 156<1189.5 1256.5>
VStem: 351 1152<869 1618>
LayerCount: 2
Fore
SplineSet
601 0 m 1
 415 0 l 1
 599 869 l 1
 351 869 l 1
 384 1024 l 1
 632 1024 l 1
 643 1076 l 2
 674 1223 714 1332 762 1403 c 0
 811 1474 875 1532 954 1577 c 0
 1033 1622 1130 1645 1245 1645 c 0
 1332 1645 1418 1636 1503 1618 c 1
 1466 1441 l 1
 1376 1473 1294 1489 1219 1489 c 0
 1160 1489 1105 1478 1055 1456 c 0
 1005 1434 962 1398 925 1348 c 0
 889 1299 858 1215 833 1096 c 2
 818 1024 l 1
 1261 1024 l 1
 1228 869 l 1
 785 869 l 1
 601 0 l 1
EndSplineSet
EndChar

StartChar: g
Encoding: 103 103 74
Width: 1229
Flags: MW
HStem: -465 155<434 497.5> -31 21G<423.5 503.5> -31 178<423.5 581> 977 156<866.5 950.5 811 952.5> 1097 20G<1138 1325 1325 1325>
VStem: 191 212
LayerCount: 2
Fore
SplineSet
920 93 m 2xd4
 954 251 l 1
 877 158 794 87 704 40 c 0
 615 -7 537 -31 470 -31 c 0
 377 -31 301 9 244 90 c 0
 187 171 176 293 211 457 c 0
 238 586 287 702 358 803 c 0
 501 1007 689 1133 933 1133 c 0xd4
 968 1133 1021 1129 1091 1122 c 2
 1138 1117 l 1
 1325 1117 l 1xcc
 1157 327 l 2
 1117 139 1090 24 1076 -17 c 0
 1062 -59 1045 -101 1025 -144 c 0
 977 -243 899 -322 792 -379 c 0
 685 -436 565 -465 430 -465 c 0
 295 -465 165 -430 41 -361 c 1
 81 -173 l 1
 126 -209 184 -241 255 -268 c 0
 326 -296 398 -310 470 -310 c 0
 583 -310 699 -273 776 -205 c 0
 815 -171 844 -131 865 -86 c 0
 886 -41 904 18 920 93 c 2xd4
1001 472 m 1
 1103 951 l 1
 1040 968 981 977 924 977 c 0
 809 977 704 933 609 844 c 0
 514 755 451 635 418 482 c 0
 395 371 398 288 427 231 c 0
 457 175 499 147 552 147 c 0
 610 147 680 176 762 235 c 0xb4
 845 294 924 373 1001 472 c 1
EndSplineSet
EndChar

StartChar: h
Encoding: 104 104 75
Width: 1229
Flags: MW
HStem: 0 21G<155 341 155 155 900 900 900 1086> 977 171<966.5 976.5>
VStem: 1066 195
LayerCount: 2
Fore
SplineSet
341 0 m 1
 155 0 l 1
 498 1614 l 1
 684 1614 l 1
 526 873 l 1
 597 959 676 1026 762 1075 c 0
 848 1124 929 1148 1004 1148 c 0
 1067 1148 1122 1132 1167 1099 c 0
 1212 1067 1240 1028 1251 982 c 0
 1260 947 1264 909 1261 869 c 0
 1259 830 1245 748 1218 624 c 2
 1086 0 l 1
 900 0 l 1
 1037 647 l 2
 1060 754 1069 825 1066 859 c 0
 1061 928 1009 977 944 977 c 0
 879 977 802 946 714 884 c 0
 626 822 548 744 479 651 c 1
 341 0 l 1
EndSplineSet
EndChar

StartChar: i
Encoding: 105 105 76
Width: 1229
Flags: MW
HStem: 0 155<686 965> 962 155<395 672 362 891>
VStem: 362 651 756 257
LayerCount: 2
Fore
SplineSet
965 0 m 1xe0
 468 0 l 1
 672 962 l 1
 362 962 l 1
 395 1117 l 1
 891 1117 l 1
 686 155 l 1
 997 155 l 1
 965 0 l 1xe0
760 1520 m 0xd0
 769 1562 789 1593 822 1614 c 0
 855 1635 885 1645 910 1645 c 0
 936 1645 961 1635 985 1614 c 0
 1010 1593 1018 1562 1009 1520 c 0
 1000 1479 978 1448 945 1427 c 0
 912 1406 883 1396 857 1396 c 0
 832 1396 807 1406 782 1427 c 0
 758 1448 751 1479 760 1520 c 0xd0
EndSplineSet
EndChar

StartChar: j
Encoding: 106 106 77
Width: 1229
Flags: MW
HStem: -466 156<333.5 383> -438 21G<78 78> 962 155<494 935 461 1154>
VStem: 78 1197 1019 256
LayerCount: 2
Fore
SplineSet
78 -438 m 1x70
 115 -264 l 1
 213 -295 298 -310 369 -310 c 0
 431 -310 486 -299 533 -277 c 0
 581 -256 623 -219 658 -168 c 0
 693 -117 725 -27 752 100 c 2
 935 962 l 1
 461 962 l 1
 494 1117 l 1
 1154 1117 l 1
 945 135 l 2
 905 -54 855 -186 794 -259 c 0
 734 -333 669 -386 598 -418 c 0
 528 -450 438 -466 328 -466 c 0xb0
 249 -466 165 -457 78 -438 c 1x70
1023 1520 m 0xa8
 1032 1562 1052 1593 1085 1614 c 0
 1118 1635 1147 1645 1173 1645 c 0
 1199 1645 1224 1635 1248 1614 c 0
 1272 1593 1280 1562 1271 1520 c 0
 1262 1479 1241 1448 1208 1427 c 0
 1175 1406 1146 1396 1120 1396 c 0
 1094 1396 1069 1406 1045 1427 c 0
 1021 1448 1014 1479 1023 1520 c 0xa8
EndSplineSet
EndChar

StartChar: k
Encoding: 107 107 78
Width: 1229
Flags: MW
HStem: 0 21G<205 391 205 205 934 934 934 1190> 1097 20G<1165 1413 1413 1413>
VStem: 205 1208<0 1117>
LayerCount: 2
Fore
SplineSet
391 0 m 1
 205 0 l 1
 548 1614 l 1
 734 1614 l 1
 518 600 l 1
 1165 1117 l 1
 1413 1117 l 1
 767 600 l 1
 1190 0 l 1
 934 0 l 1
 518 600 l 1
 391 0 l 1
EndSplineSet
EndChar

StartChar: l
Encoding: 108 108 79
Width: 1229
Flags: MW
HStem: 0 155<673 990> 1458 156<464 764 430 984>
VStem: 430 592
LayerCount: 2
Fore
SplineSet
990 0 m 1
 455 0 l 1
 764 1458 l 1
 430 1458 l 1
 464 1614 l 1
 984 1614 l 1
 673 155 l 1
 1022 155 l 1
 990 0 l 1
EndSplineSet
EndChar

StartChar: m
Encoding: 109 109 80
Width: 1229
Flags: MW
HStem: 0 21G<71 234 71 71 536 536 536 692 994 994 994 1157> 962 186<642 810> 1097 20G<308 471 471 471> 1128 20G<733.5 810 1183.5 1251>
VStem: 715 179 1177 179
LayerCount: 2
Fore
SplineSet
234 0 m 1xbc
 71 0 l 1
 308 1117 l 1
 471 1117 l 1xbc
 417 861 l 1
 491 970 555 1045 608 1086 c 0
 661 1127 711 1148 756 1148 c 0
 864 1148 917 1060 884 904 c 2
 871 844 l 1
 908 912 946 967 986 1009 c 0
 1066 1094 1140 1148 1227 1148 c 0
 1275 1148 1312 1128 1337 1087 c 0
 1362 1046 1362 965 1336 844 c 2
 1157 0 l 1
 994 0 l 1
 1156 763 l 2
 1169 826 1176 868 1177 891 c 0
 1178 938 1157 962 1129 962 c 0
 1094 962 1051 935 1000 882 c 0
 949 829 890 742 823 619 c 1
 692 0 l 1
 536 0 l 1
 697 762 l 2
 718 861 721 919 705 936 c 0
 690 953 674 962 659 962 c 0
 625 962 582 932 530 873 c 0xcc
 479 814 426 738 371 645 c 1
 234 0 l 1xbc
EndSplineSet
EndChar

StartChar: n
Encoding: 110 110 81
Width: 1229
Flags: MW
HStem: 0 21G<155 341 155 155 900 900 900 1086> 977 171<966.5 976.5> 1097 20G<392 578 578 578>
VStem: 1066 193
LayerCount: 2
Fore
SplineSet
341 0 m 1xb0
 155 0 l 1
 392 1117 l 1
 578 1117 l 1xb0
 526 873 l 1
 597 959 676 1026 762 1075 c 0
 848 1124 929 1148 1004 1148 c 0
 1070 1148 1126 1130 1172 1095 c 0
 1219 1060 1247 1015 1256 958 c 0
 1266 901 1253 790 1218 624 c 2
 1086 0 l 1
 900 0 l 1
 1037 647 l 2
 1060 754 1069 825 1066 859 c 0
 1061 928 1009 977 944 977 c 0
 879 977 802 946 714 884 c 0xd0
 626 822 548 744 479 651 c 1
 341 0 l 1xb0
EndSplineSet
EndChar

StartChar: o
Encoding: 111 111 82
Width: 1229
Flags: MW
HStem: -31 155<591 687.5> 993 155<779 875.5>
VStem: 187 203 1075 203
LayerCount: 2
Fore
SplineSet
608 -31 m 0
 448 -31 332 25 259 136 c 0
 187 248 169 389 205 559 c 0
 242 729 320 870 439 981 c 0
 559 1092 699 1148 859 1148 c 0
 1018 1148 1134 1092 1206 981 c 0
 1279 870 1297 729 1260 559 c 0
 1224 389 1146 248 1026 136 c 0
 907 25 767 -31 608 -31 c 0
641 124 m 0
 740 124 827 163 902 240 c 0
 977 317 1029 424 1058 559 c 0
 1087 694 1080 800 1038 877 c 0
 996 954 925 993 826 993 c 0
 726 993 638 954 563 877 c 0
 488 800 436 694 407 559 c 0
 378 424 385 317 427 240 c 0
 470 163 541 124 641 124 c 0
EndSplineSet
EndChar

StartChar: p
Encoding: 112 112 83
Width: 1229
Flags: MW
HStem: -434 21G<48 234 48 48> -16 156<513.5 598.5 513.5 653> -5 21G<373 373> 0 21G<327 327> 970 178<884 1041.5> 1097 20G<378 564 564 564> 1128 20G<961.5 1041.5>
VStem: 1063 212
LayerCount: 2
Fore
SplineSet
564 1117 m 1xc7
 511 866 l 1
 588 959 671 1030 760 1077 c 0
 850 1124 928 1148 995 1148 c 0
 1088 1148 1164 1108 1221 1027 c 0
 1278 946 1290 824 1255 660 c 0
 1228 531 1178 415 1107 313 c 0
 964 110 775 -16 531 -16 c 0xc7
 496 -16 444 -12 373 -5 c 2xa7
 327 0 l 1x97
 234 -434 l 1
 48 -434 l 1
 378 1117 l 1
 564 1117 l 1xc7
464 645 m 1
 362 166 l 1
 425 149 485 140 542 140 c 0
 655 140 759 184 855 272 c 0
 951 361 1015 482 1047 635 c 0
 1071 746 1068 830 1038 886 c 0
 1008 942 966 970 913 970 c 0
 855 970 785 941 702 882 c 0xc9
 620 823 541 744 464 645 c 1
EndSplineSet
EndChar

StartChar: q
Encoding: 113 113 84
Width: 1229
Flags: MW
HStem: -434 21G<808 808 808 995> -31 21G<423.5 503.5> -31 178<423.5 581> 977 156<866.5 950.5 811 952.5> 1097 20G<1138 1325 1325 1325>
VStem: 191 212
LayerCount: 2
Fore
SplineSet
808 -434 m 1xd4
 954 251 l 1
 877 158 794 87 704 40 c 0
 615 -7 537 -31 470 -31 c 0
 377 -31 301 9 244 90 c 0
 187 171 176 293 211 457 c 0
 238 586 287 702 358 803 c 0
 501 1007 689 1133 933 1133 c 0xd4
 968 1133 1021 1129 1091 1122 c 2
 1138 1117 l 1
 1325 1117 l 1xcc
 995 -434 l 1
 808 -434 l 1xd4
1001 472 m 1
 1103 951 l 1
 1040 968 981 977 924 977 c 0
 809 977 704 933 609 844 c 0
 514 755 451 635 418 482 c 0
 395 371 398 288 427 231 c 0
 457 175 499 147 552 147 c 0
 610 147 680 176 762 235 c 0xb4
 845 294 924 373 1001 472 c 1
EndSplineSet
EndChar

StartChar: r
Encoding: 114 114 85
Width: 1229
Flags: MW
HStem: 0 21G<250 436 250 250> 977 171<1038 1051> 1097 20G<487 673 673 673 1325 1325>
VStem: 250 1075
LayerCount: 2
Fore
SplineSet
436 0 m 1xb0
 250 0 l 1
 487 1117 l 1
 673 1117 l 1xb0
 621 873 l 1
 776 1057 946 1148 1130 1148 c 0xd0
 1197 1148 1262 1138 1325 1117 c 1xb0
 1239 714 l 1
 1060 714 l 1
 1114 969 l 1
 1084 974 1060 977 1042 977 c 0xd0
 903 977 746 868 573 649 c 1
 436 0 l 1xb0
EndSplineSet
EndChar

StartChar: s
Encoding: 115 115 86
Width: 1229
Flags: MW
HStem: -31 155<614 682.5> 993 155<815.5 909>
VStem: 368 202 945 201
LayerCount: 2
Fore
SplineSet
180 59 m 1
 222 256 l 1
 286 207 358 173 437 153 c 0
 516 134 585 124 643 124 c 0
 737 124 808 139 855 169 c 0
 903 200 932 238 942 283 c 0
 948 313 944 339 929 360 c 0
 914 381 872 408 802 439 c 2
 743 465 l 1
 625 516 l 2
 498 570 421 620 395 666 c 0
 368 711 362 767 375 832 c 0
 395 924 447 1000 530 1059 c 0
 614 1118 736 1148 895 1148 c 0
 1014 1148 1123 1131 1222 1096 c 1
 1187 927 l 1
 1074 971 963 993 855 993 c 0
 776 993 712 979 661 951 c 0
 611 924 582 889 573 848 c 0
 564 808 577 776 610 752 c 0
 643 728 700 700 779 669 c 2
 895 623 l 2
 1002 581 1073 535 1109 486 c 0
 1145 437 1155 375 1139 301 c 0
 1119 204 1065 125 977 62 c 0
 890 0 764 -31 601 -31 c 0
 458 -31 318 -1 180 59 c 1
EndSplineSet
EndChar

StartChar: t
Encoding: 116 116 87
Width: 1229
Flags: MW
HStem: -31 155<782.5 796.5> 869 155<313 559 280 592 313 745 778 1242>
VStem: 442 192
LayerCount: 2
Fore
SplineSet
1133 209 m 1
 1098 45 l 1
 1003 8 935 -13 894 -20 c 0
 853 -27 815 -31 778 -31 c 0
 700 -31 632 -16 573 14 c 0
 515 44 476 88 455 147 c 0
 434 206 437 296 464 419 c 2
 559 869 l 1
 280 869 l 1
 313 1024 l 1
 592 1024 l 1
 688 1474 l 1
 874 1474 l 1
 778 1024 l 1
 1275 1024 l 1
 1242 869 l 1
 745 869 l 1
 650 422 l 2
 631 332 629 268 642 231 c 0
 669 158 734 124 831 124 c 0
 921 124 1022 152 1133 209 c 1
EndSplineSet
EndChar

StartChar: u
Encoding: 117 117 88
Width: 1229
Flags: MW
HStem: -31 171<488 534.5> 0 21G<888 1074 888 888> 1097 20G<380 566 566 566 1125 1311 1311 1311>
VStem: 205 193
LayerCount: 2
Fore
SplineSet
1125 1117 m 1x70
 1311 1117 l 1
 1074 0 l 1
 888 0 l 1x70
 940 245 l 1
 780 61 608 -31 461 -31 c 0
 396 -31 339 -14 292 21 c 0
 245 56 217 102 208 159 c 0
 199 216 212 328 247 493 c 2
 380 1117 l 1
 566 1117 l 1
 428 470 l 2
 405 363 395 292 398 257 c 0
 405 189 456 140 520 140 c 0
 585 140 662 171 750 232 c 0xb0
 839 294 918 372 987 466 c 1
 1125 1117 l 1x70
EndSplineSet
EndChar

StartChar: v
Encoding: 118 118 89
Width: 1229
Flags: MW
HStem: 0 21G<518 708 518 518> 1097 20G<270 474 474 474 1248 1434 1434 1434>
VStem: 270 1164<1117 1117>
LayerCount: 2
Fore
SplineSet
708 0 m 1
 518 0 l 1
 270 1117 l 1
 474 1117 l 1
 669 233 l 1
 1248 1117 l 1
 1434 1117 l 1
 708 0 l 1
EndSplineSet
EndChar

StartChar: w
Encoding: 119 119 90
Width: 1229
Flags: MW
HStem: 0 21G<202 383 202 202 853 853 853 1027> 1097 20G<257 430 430 430 769 936 936 936 1302 1445 1445 1445>
VStem: 202 1243<0 1117>
LayerCount: 2
Fore
SplineSet
383 0 m 1
 202 0 l 1
 257 1117 l 1
 430 1117 l 1
 391 437 l 1
 386 279 l 1
 446 437 l 1
 769 1117 l 1
 936 1117 l 1
 992 437 l 1
 994 279 l 1
 1050 437 l 1
 1302 1117 l 1
 1445 1117 l 1
 1027 0 l 1
 853 0 l 1
 791 719 l 1
 791 877 l 1
 786 877 l 1
 722 720 l 1
 383 0 l 1
EndSplineSet
EndChar

StartChar: x
Encoding: 120 120 91
Width: 1229
Flags: MW
HStem: 0 21G<56 271 56 56 942 942 942 1181> 1097 20G<322 560 560 560 1134 1345 1345 1345>
VStem: 56 1289<0 1117>
LayerCount: 2
Fore
SplineSet
696 445 m 1
 271 0 l 1
 56 0 l 1
 619 585 l 1
 322 1117 l 1
 560 1117 l 1
 771 742 l 1
 1134 1117 l 1
 1345 1117 l 1
 848 603 l 1
 1181 0 l 1
 942 0 l 1
 696 445 l 1
EndSplineSet
EndChar

StartChar: y
Encoding: 121 121 92
Width: 1229
Flags: MW
HStem: -466 155<88.5 142 88.5 149.5> -451 21G<-63 -63> 1097 20G<287 492 492 492 1247 1434 1434 1434>
VStem: -63 1497
LayerCount: 2
Fore
SplineSet
549 2 m 2xb0
 575 45 l 1
 287 1117 l 1
 492 1117 l 1
 725 279 l 1
 1247 1117 l 1
 1434 1117 l 1
 780 79 l 2
 642 -140 524 -286 426 -358 c 0
 329 -430 215 -466 84 -466 c 0xb0
 28 -466 -21 -461 -63 -451 c 1x70
 -29 -287 l 1
 18 -303 65 -311 112 -311 c 0
 172 -311 228 -299 279 -276 c 0
 331 -253 383 -211 434 -152 c 0
 485 -93 524 -41 549 2 c 2xb0
EndSplineSet
EndChar

StartChar: z
Encoding: 122 122 93
Width: 1229
Flags: MW
HStem: 0 171<169 169 410 1087 133 169> 962 155<386 1022 353 1301 1268 1268>
VStem: 133 1168<0 1117>
LayerCount: 2
Fore
SplineSet
1087 0 m 1
 133 0 l 1
 169 171 l 1
 1022 962 l 1
 353 962 l 1
 386 1117 l 1
 1301 1117 l 1
 1268 962 l 1
 410 171 l 1
 1123 171 l 1
 1087 0 l 1
EndSplineSet
EndChar

StartChar: braceleft
Encoding: 123 123 94
Width: 1229
Flags: MW
HStem: -372 155<774.5 1056 901 1023> 559 155<362 418 329 451> 1489 156<1215 1452 1295 1419>
VStem: 489 197 659 188 790 191<999.5 1205 1091 1253>
LayerCount: 2
Fore
SplineSet
682 636 m 1xf4
 737 603 775 571 797 540 c 0
 842 477 857 415 840 330 c 0
 832 292 815 242 788 181 c 2
 739 67 l 2xe8
 712 5 696 -41 689 -71 c 0
 680 -112 689 -146 714 -174 c 0
 740 -203 802 -217 901 -217 c 2
 1056 -217 l 1
 1023 -372 l 1
 866 -372 l 2
 683 -372 572 -343 532 -284 c 0
 492 -225 480 -159 495 -85 c 0
 504 -46 518 -3 537 42 c 2
 572 122 l 1
 608 209 l 1
 631 262 l 2xf4
 641 287 648 311 653 334 c 0
 666 396 657 449 624 493 c 0xe8
 592 537 523 559 418 559 c 2
 329 559 l 1
 362 714 l 1
 451 714 l 2
 555 714 633 736 684 779 c 0
 736 822 769 876 783 941 c 0
 788 965 790 988 790 1011 c 2
 789 1063 l 1
 791 1150 l 1
 790 1230 l 2
 790 1276 794 1319 802 1358 c 0
 818 1431 858 1497 923 1556 c 0
 988 1615 1112 1645 1295 1645 c 2
 1452 1645 l 1
 1419 1489 l 1
 1264 1489 l 2
 1166 1489 1098 1475 1060 1446 c 0
 1022 1418 999 1383 990 1342 c 0
 983 1313 980 1267 981 1205 c 2
 981 1091 l 2
 982 1030 978 980 970 942 c 0
 961 899 945 861 924 828 c 0
 903 795 874 763 838 732 c 0
 803 701 751 669 682 636 c 1xf4
EndSplineSet
Substitution2: "'rtla' Right to Left Alternates lookup 0 subtable" braceright
EndChar

StartChar: bar
Encoding: 124 124 95
Width: 1229
Flags: MW
HStem: -47 21G<523 686 523 523> 1578 20G<872 1035 1035 1035>
VStem: 523 512
LayerCount: 2
Fore
SplineSet
686 -47 m 1
 523 -47 l 1
 872 1598 l 1
 1035 1598 l 1
 686 -47 l 1
EndSplineSet
EndChar

StartChar: braceright
Encoding: 125 125 96
Width: 1229
Flags: MW
HStem: -372 155<79 203 46 234> 559 155<995 1169 1080 1136> 1489 156<475 597 442 632>
VStem: 518 190<42 42 42 67> 652 187 812 199
LayerCount: 2
Fore
SplineSet
817 636 m 1xe8
 762 669 723 701 700 732 c 0
 656 795 641 857 660 942 c 0
 668 980 685 1030 710 1091 c 2
 760 1205 l 2xe8
 786 1267 802 1313 809 1343 c 0
 818 1384 809 1418 783 1446 c 0
 758 1475 696 1489 597 1489 c 2
 442 1489 l 1
 475 1645 l 1
 632 1645 l 2
 815 1645 926 1615 967 1556 c 0
 1008 1497 1020 1431 1004 1358 c 0
 995 1318 981 1275 961 1230 c 2
 926 1150 l 1
 890 1063 l 1
 867 1011 l 2xe4
 857 986 850 961 845 938 c 0
 832 877 841 824 873 780 c 0xe8
 906 736 975 714 1080 714 c 2
 1169 714 l 1
 1136 559 l 1
 1047 559 l 2
 943 559 865 537 813 493 c 0
 762 450 729 396 716 331 c 0
 711 308 708 285 708 262 c 2
 709 209 l 1
 707 122 l 1
 708 42 l 2
 709 -4 706 -47 697 -86 c 0
 682 -160 641 -226 575 -284 c 0
 510 -343 386 -372 203 -372 c 2
 46 -372 l 1
 79 -217 l 1
 234 -217 l 2
 333 -217 401 -203 438 -174 c 0
 476 -146 500 -111 509 -70 c 0
 515 -41 518 5 518 67 c 2
 517 181 l 2
 518 242 522 292 530 330 c 0
 539 373 553 410 574 443 c 0xf0
 595 476 624 509 659 540 c 0
 695 571 748 603 817 636 c 1xe8
EndSplineSet
Substitution2: "'rtla' Right to Left Alternates lookup 0 subtable" braceleft
EndChar

StartChar: asciitilde
Encoding: 126 126 97
Width: 1229
Flags: MW
HStem: 372 156<988.5 992.5> 590 155<456.5 475.5>
VStem: 141 1183<403 714>
LayerCount: 2
Fore
SplineSet
261 403 m 1
 141 403 l 1
 145 421 l 2
 164 508 206 584 271 648 c 0
 336 713 413 745 500 745 c 0
 522 745 543 743 563 738 c 0
 583 734 605 727 630 716 c 0
 655 706 690 686 737 656 c 2
 844 589 l 2
 909 548 965 528 1012 528 c 0
 1061 528 1101 546 1132 581 c 0
 1163 617 1184 656 1193 698 c 2
 1196 714 l 1
 1324 714 l 1
 1321 698 l 2
 1297 587 1248 504 1174 451 c 0
 1100 398 1028 372 957 372 c 0
 891 372 810 403 714 465 c 2
 625 524 l 2
 557 568 499 590 452 590 c 0
 425 590 399 583 373 569 c 0
 347 555 324 533 303 502 c 0
 282 471 270 444 265 421 c 2
 261 403 l 1
EndSplineSet
EndChar

StartChar: exclamdown
Encoding: 161 161 99
Width: 1229
Flags: MW
HStem: -450 21G<402 650 402 402> 1128 20G<840 877.5>
VStem: 402 572
LayerCount: 2
Fore
SplineSet
685 659 m 1
 840 659 l 1
 650 -450 l 1
 402 -450 l 1
 685 659 l 1
859 1148 m 0
 896 1148 926 1134 949 1105 c 0
 972 1076 979 1043 971 1005 c 0
 963 966 941 933 906 904 c 0
 871 875 835 861 798 861 c 0
 760 861 729 875 706 904 c 0
 683 933 676 966 684 1005 c 0
 692 1043 714 1076 749 1105 c 0
 784 1134 821 1148 859 1148 c 0
EndSplineSet
EndChar

StartChar: cent
Encoding: 162 162 100
Width: 1229
Flags: MW
HStem: -155 1862<574 1124 574 1124>
VStem: 266 204
LayerCount: 2
Fore
SplineSet
729 -155 m 1
 574 -155 l 1
 647 191 l 1
 363 226 218 457 280 766 c 0
 302 870 341 962 398 1043 c 0
 511 1204 670 1314 894 1353 c 1
 969 1707 l 1
 1124 1707 l 1
 1049 1353 l 1
 1157 1340 1249 1322 1324 1297 c 1
 1286 1118 l 1
 1219 1158 1141 1190 1017 1203 c 1
 833 337 l 1
 888 343 930 350 960 358 c 0
 991 366 1038 383 1102 410 c 2
 1139 426 l 1
 1101 246 l 1
 994 213 895 195 802 191 c 1
 729 -155 l 1
680 345 m 1
 861 1195 l 1
 751 1163 666 1108 605 1030 c 0
 544 952 503 864 482 765 c 0
 464 681 466 598 489 515 c 0
 512 433 575 376 680 345 c 1
EndSplineSet
EndChar

StartChar: sterling
Encoding: 163 163 101
Width: 1229
Flags: MW
HStem: 0 171<177 177 438 1111 141 177> 768 155<337 529 304 562 337 715 748 1041> 1443 155<1052 1113>
VStem: 141 1235
LayerCount: 2
Fore
SplineSet
1111 0 m 1
 141 0 l 1
 177 171 l 1
 242 185 291 206 326 233 c 0
 397 289 449 393 484 557 c 2
 529 768 l 1
 304 768 l 1
 337 923 l 1
 562 923 l 1
 576 992 l 2
 614 1169 658 1296 708 1372 c 0
 808 1524 951 1598 1126 1598 c 0
 1209 1598 1292 1579 1376 1540 c 1
 1338 1360 l 1
 1244 1415 1155 1443 1071 1443 c 0
 1033 1443 994 1430 953 1405 c 0
 913 1380 879 1342 851 1291 c 0
 824 1240 795 1143 764 1002 c 2
 748 923 l 1
 1074 923 l 1
 1041 768 l 1
 715 768 l 1
 690 651 l 2
 663 526 636 431 607 366 c 0
 579 301 523 236 438 171 c 1
 1147 171 l 1
 1111 0 l 1
EndSplineSet
EndChar

StartChar: currency
Encoding: 164 164 102
Width: 1229
Flags: MW
HStem: 310 155<672.5 695.5> 1086 155<862.5 869>
VStem: 314 147 1092 150
LayerCount: 2
Fore
SplineSet
1105 1170 m 1
 1335 1381 l 1
 1429 1280 l 1
 1200 1068 l 1
 1234 1000 1252 945 1253 903 c 0
 1255 862 1251 819 1242 774 c 0
 1233 729 1218 685 1198 642 c 0
 1179 600 1137 545 1074 477 c 1
 1213 266 l 1
 1078 171 l 1
 937 377 l 1
 869 345 817 326 781 319 c 0
 746 313 712 310 679 310 c 0
 646 310 613 313 580 319 c 0
 547 326 504 345 451 377 c 1
 222 171 l 1
 127 266 l 1
 356 477 l 1
 322 545 304 600 302 642 c 0
 301 685 305 729 314 774 c 0
 323 819 338 862 357 903 c 0
 377 945 419 1000 482 1068 c 1
 343 1280 l 1
 479 1381 l 1
 619 1170 l 1
 686 1206 738 1227 776 1232 c 0
 814 1238 848 1241 877 1241 c 0
 906 1241 939 1238 975 1232 c 0
 1011 1227 1054 1206 1105 1170 c 1
712 465 m 0
 791 465 869 494 944 551 c 0
 1019 609 1066 682 1085 770 c 0
 1097 827 1094 881 1077 930 c 0
 1060 980 1030 1018 985 1045 c 0
 941 1072 894 1086 844 1086 c 0
 794 1086 741 1072 685 1045 c 0
 630 1018 583 980 544 930 c 0
 506 881 481 827 469 770 c 0
 450 682 466 609 517 551 c 0
 568 494 633 465 712 465 c 0
EndSplineSet
EndChar

StartChar: yen
Encoding: 165 165 103
Width: 1229
Flags: MW
HStem: 0 21G<522 708 522 522> 248 140<278 574 248 604 790 1078> 582 139<349 645 319 666 861 1149> 1532 20G<381 586 586 586 1321 1506 1506 1506>
VStem: 248 1258
LayerCount: 2
Fore
SplineSet
708 0 m 1
 522 0 l 1
 574 248 l 1
 248 248 l 1
 278 388 l 1
 604 388 l 1
 645 582 l 1
 319 582 l 1
 349 721 l 1
 666 721 l 1
 381 1552 l 1
 586 1552 l 1
 817 910 l 1
 1321 1552 l 1
 1506 1552 l 1
 861 721 l 1
 1179 721 l 1
 1149 582 l 1
 831 582 l 1
 790 388 l 1
 1108 388 l 1
 1078 248 l 1
 760 248 l 1
 708 0 l 1
EndSplineSet
EndChar

StartChar: brokenbar
Encoding: 166 166 104
Width: 1229
Flags: MW
HStem: -47 21G<523 686 523 523> 1578 20G<872 1035 1035 1035>
VStem: 523 512
LayerCount: 2
Fore
SplineSet
686 -47 m 1
 523 -47 l 1
 678 683 l 1
 841 683 l 1
 686 -47 l 1
880 869 m 1
 717 869 l 1
 872 1598 l 1
 1035 1598 l 1
 880 869 l 1
EndSplineSet
EndChar

StartChar: section
Encoding: 167 167 105
Width: 1229
Flags: MW
HStem: -372 155<499.5 580.5 499.5 597.5> 1443 155<909.5 981>
VStem: 313 196 884 208 1043 182
LayerCount: 2
Fore
SplineSet
85 -301 m 1xe8
 127 -100 l 1
 188 -137 254 -165 327 -186 c 0
 400 -207 468 -217 531 -217 c 0
 630 -217 711 -197 772 -156 c 0
 834 -115 870 -72 880 -25 c 0
 889 14 883 48 863 77 c 0xf0
 842 106 794 145 717 194 c 2
 587 277 l 2
 472 350 395 420 355 486 c 0
 316 552 304 621 319 694 c 0
 342 803 412 901 527 990 c 1
 455 1054 429 1136 450 1236 c 0
 464 1301 495 1361 544 1416 c 0
 641 1527 788 1598 997 1598 c 0
 1096 1598 1204 1579 1322 1541 c 1
 1284 1363 l 1
 1248 1384 1197 1403 1131 1419 c 0
 1066 1435 1007 1443 955 1443 c 0
 864 1443 794 1425 745 1389 c 0
 696 1353 667 1313 658 1269 c 0
 649 1222 663 1181 702 1144 c 0
 740 1107 776 1078 809 1055 c 2
 864 1020 l 1
 995 932 l 2
 1107 856 1176 789 1202 732 c 0
 1227 674 1232 610 1217 541 c 0xe8
 1194 432 1125 333 1010 244 c 1
 1061 193 1088 148 1092 108 c 0
 1096 68 1095 33 1088 2 c 0xf0
 1075 -61 1039 -123 981 -185 c 0
 866 -310 704 -372 491 -372 c 0
 344 -372 209 -348 85 -301 c 1xe8
754 416 m 2
 900 319 l 1
 978 372 1025 434 1040 505 c 0
 1050 553 1038 600 1005 645 c 0xe8
 972 691 930 730 881 762 c 2
 799 815 l 1
 637 920 l 1
 589 876 558 840 543 813 c 0
 529 786 519 761 514 736 c 0
 503 682 511 634 538 592 c 0
 566 551 638 492 754 416 c 2
EndSplineSet
EndChar

StartChar: dieresis
Encoding: 168 168 106
Width: 1229
Flags: MW
HStem: 1288 248<653 739.5>
VStem: 570 254 570 689 1004 255
LayerCount: 2
Fore
SplineSet
670 1288 m 0xa0
 636 1288 609 1300 590 1324 c 0
 571 1348 566 1377 573 1412 c 0
 580 1447 599 1476 628 1500 c 0
 658 1524 690 1536 723 1536 c 0
 756 1536 783 1524 802 1500 c 0
 822 1476 828 1447 821 1412 c 0
 814 1377 795 1348 765 1324 c 0xc0
 736 1300 704 1288 670 1288 c 0xa0
1105 1288 m 0
 1071 1288 1044 1300 1025 1324 c 0
 1006 1348 1000 1377 1007 1412 c 0
 1014 1447 1033 1476 1063 1500 c 0
 1093 1524 1125 1536 1158 1536 c 0
 1191 1536 1218 1524 1237 1500 c 0
 1257 1476 1263 1447 1256 1412 c 0
 1249 1377 1230 1348 1200 1324 c 0x90
 1170 1300 1138 1288 1105 1288 c 0
EndSplineSet
EndChar

StartChar: copyright
Encoding: 169 169 107
Width: 1229
Flags: MW
HStem: -47 125<588.5 673.5 588.5 734.5> 248 140<739.5 773.5> 1149 154<875.5 938.5> 1474 124<887 970.5>
VStem: 138 130 377 170 1291 129
LayerCount: 2
Fore
SplineSet
605 -47 m 0
 476 -47 375 -13 303 54 c 0
 231 121 182 218 155 345 c 0
 128 472 132 615 166 776 c 0
 199 931 254 1070 330 1194 c 0
 406 1318 495 1416 598 1489 c 0
 701 1562 820 1598 954 1598 c 0
 1083 1598 1184 1564 1256 1496 c 0
 1328 1428 1377 1331 1403 1205 c 0
 1430 1079 1426 936 1392 776 c 0
 1358 615 1301 472 1220 345 c 0
 1059 92 864 -47 605 -47 c 0
631 78 m 0
 716 78 802 105 888 158 c 0
 974 212 1052 296 1122 411 c 0
 1192 526 1241 647 1268 776 c 0
 1295 904 1298 1026 1277 1141 c 0
 1256 1256 1213 1341 1150 1394 c 0
 1087 1447 1013 1474 928 1474 c 0
 841 1474 754 1446 666 1390 c 0
 579 1335 501 1250 432 1135 c 0
 364 1021 317 901 290 776 c 0
 263 646 260 523 282 407 c 0
 304 291 346 207 409 155 c 0
 472 104 546 78 631 78 c 0
986 433 m 1
 953 281 l 1
 888 259 815 248 732 248 c 0
 473 244 328 485 391 775 c 0
 412 872 450 962 506 1044 c 0
 618 1208 760 1303 941 1303 c 0
 1009 1303 1083 1292 1164 1271 c 1
 1130 1112 l 1
 1056 1136 959 1149 918 1149 c 0
 833 1149 759 1115 694 1046 c 0
 630 977 586 886 562 773 c 0
 535 648 544 553 588 487 c 0
 633 421 697 388 782 388 c 0
 837 388 905 403 986 433 c 1
EndSplineSet
EndChar

StartChar: ordfeminine
Encoding: 170 170 108
Width: 1229
Flags: MW
HStem: 892 132<652.5 775> 1474 124<958.5 1027> 1570 20G<1176 1316 1316 1316>
VStem: 454 161 1065 136
LayerCount: 2
Fore
SplineSet
1065 1060 m 1x58
 1016 1009 955 969 884 938 c 0
 813 907 748 892 690 892 c 0
 615 892 553 916 504 965 c 0
 455 1014 442 1089 463 1190 c 0
 480 1269 515 1338 566 1399 c 0
 670 1522 814 1598 1013 1598 c 0xd8
 1043 1598 1086 1596 1141 1593 c 2
 1176 1590 l 1
 1316 1590 l 1x38
 1215 1114 l 2
 1208 1081 1204 1050 1201 1019 c 0
 1198 989 1204 952 1219 908 c 1
 1064 908 l 1
 1059 947 1059 997 1065 1060 c 1x58
1095 1208 m 1
 1148 1463 l 1
 1098 1470 1050 1474 1004 1474 c 0
 913 1474 831 1450 758 1402 c 0
 685 1354 639 1287 621 1201 c 0
 608 1142 615 1097 642 1068 c 0
 669 1039 706 1024 751 1024 c 0
 799 1024 856 1041 921 1076 c 0
 986 1111 1044 1155 1095 1208 c 1
EndSplineSet
EndChar

StartChar: guillemotleft
Encoding: 171 171 109
Width: 1229
Flags: MW
HStem: 62 993<550 761 761 1023>
VStem: 255 1069<481 946>
LayerCount: 2
Fore
SplineSet
1023 62 m 1
 728 481 l 1
 761 636 l 1
 1234 1055 l 1
 1324 946 l 1
 929 559 l 1
 1157 160 l 1
 1023 62 l 1
550 62 m 1
 255 481 l 1
 288 636 l 1
 761 1055 l 1
 850 946 l 1
 456 559 l 1
 683 160 l 1
 550 62 l 1
EndSplineSet
EndChar

StartChar: logicalnot
Encoding: 172 172 110
Width: 1229
Flags: MW
HStem: 465 156<202 1100 169 1288>
VStem: 169 1119<465 621>
LayerCount: 2
Fore
SplineSet
202 621 m 1
 1288 621 l 1
 1189 155 l 1
 1034 155 l 1
 1100 465 l 1
 169 465 l 1
 202 621 l 1
EndSplineSet
EndChar

StartChar: softhyphen
Encoding: 173 173 111
Width: 1229
Flags: MW
HStem: 551 155<377 1120 344 1153>
VStem: 344 809<551 706>
LayerCount: 2
Fore
SplineSet
1120 551 m 1
 344 551 l 1
 377 706 l 1
 1153 706 l 1
 1120 551 l 1
EndSplineSet
EndChar

StartChar: registered
Encoding: 174 174 112
Width: 1229
Flags: MW
HStem: -47 125<588.5 673.5 588.5 734.5> 718 111<670 728 646 786> 1143 110<736 736 736 781> 1474 124<887 970.5>
VStem: 138 130 956 145 1291 129
LayerCount: 2
Fore
SplineSet
605 -47 m 0
 476 -47 375 -13 303 54 c 0
 231 121 182 218 155 345 c 0
 128 472 132 615 166 776 c 0
 199 931 254 1070 330 1194 c 0
 406 1318 495 1416 598 1489 c 0
 701 1562 820 1598 954 1598 c 0
 1083 1598 1184 1564 1256 1496 c 0
 1328 1428 1377 1331 1403 1205 c 0
 1430 1079 1426 936 1392 776 c 0
 1358 615 1301 472 1220 345 c 0
 1059 92 864 -47 605 -47 c 0
631 78 m 0
 716 78 802 105 888 158 c 0
 974 212 1052 296 1122 411 c 0
 1192 526 1241 647 1268 776 c 0
 1295 904 1298 1026 1277 1141 c 0
 1256 1256 1213 1341 1150 1394 c 0
 1087 1447 1013 1474 928 1474 c 0
 841 1474 754 1446 666 1390 c 0
 579 1335 501 1250 432 1135 c 0
 364 1021 317 901 290 776 c 0
 263 646 260 523 282 407 c 0
 304 291 346 207 409 155 c 0
 472 104 546 78 631 78 c 0
728 718 m 1
 646 718 l 1
 566 339 l 1
 427 339 l 1
 621 1253 l 1
 841 1253 l 2
 958 1253 1033 1231 1065 1188 c 0
 1098 1145 1108 1097 1097 1042 c 0
 1076 942 999 831 864 763 c 1
 1010 339 l 1
 844 339 l 1
 728 718 l 1
736 1143 m 1
 670 829 l 1
 786 829 l 1
 881 877 936 939 952 1016 c 0
 961 1055 953 1086 930 1109 c 0
 907 1132 858 1143 781 1143 c 2
 736 1143 l 1
EndSplineSet
EndChar

StartChar: overscore
Encoding: 175 175 113
Width: 1229
Flags: MW
HStem: 1288 124<635 1167 608 1194>
VStem: 608 586<1288 1412>
LayerCount: 2
Fore
SplineSet
1167 1288 m 1
 608 1288 l 1
 635 1412 l 1
 1194 1412 l 1
 1167 1288 l 1
EndSplineSet
EndChar

StartChar: degree
Encoding: 176 176 114
Width: 1229
Flags: MW
HStem: 1055 93<833.5 876.5> 1505 93<917 958.5>
VStem: 618 95 1079 95
LayerCount: 2
Fore
SplineSet
839 1055 m 0
 763 1055 704 1082 663 1135 c 0
 622 1189 609 1253 624 1326 c 0
 640 1401 680 1465 745 1518 c 0
 810 1571 880 1598 954 1598 c 0
 1028 1598 1086 1571 1128 1518 c 0
 1170 1465 1183 1401 1167 1326 c 0
 1152 1253 1112 1189 1048 1135 c 0
 984 1082 914 1055 839 1055 c 0
859 1148 m 0
 909 1148 955 1166 996 1202 c 0
 1038 1238 1064 1279 1074 1326 c 0
 1085 1375 1076 1417 1048 1452 c 0
 1021 1487 983 1505 934 1505 c 0
 885 1505 839 1487 796 1452 c 0
 754 1417 728 1375 717 1326 c 0
 707 1279 715 1238 742 1202 c 0
 769 1166 808 1148 859 1148 c 0
EndSplineSet
EndChar

StartChar: plusminus
Encoding: 177 177 115
Width: 1229
Flags: MW
HStem: 0 155<103 1157 71 1189> 776 155<268 700 235 733 889 1321 268 856>
VStem: 71 1283<0 931>
LayerCount: 2
Fore
SplineSet
889 931 m 1
 1354 931 l 1
 1321 776 l 1
 856 776 l 1
 757 310 l 1
 601 310 l 1
 700 776 l 1
 235 776 l 1
 268 931 l 1
 733 931 l 1
 832 1396 l 1
 988 1396 l 1
 889 931 l 1
103 155 m 1
 1189 155 l 1
 1157 0 l 1
 71 0 l 1
 103 155 l 1
EndSplineSet
EndChar

StartChar: twosuperior
Encoding: 178 178 116
Width: 1229
Flags: MW
HStem: 644 132<563 1126> 1474 124<911 947.5>
VStem: 374 900 1112 162
LayerCount: 2
Fore
SplineSet
1154 776 m 1xe0
 1126 644 l 1
 374 644 l 1
 399 760 l 2
 408 799 433 841 475 886 c 0
 517 931 590 987 694 1054 c 2
 791 1116 l 2
 903 1189 983 1243 1031 1279 c 0
 1079 1314 1106 1346 1112 1375 c 0
 1119 1408 1101 1433 1058 1449 c 0
 1015 1466 971 1474 924 1474 c 0
 889 1474 848 1472 801 1467 c 0
 754 1462 677 1446 570 1417 c 1
 596 1542 l 1
 722 1579 848 1598 974 1598 c 0
 1093 1598 1175 1578 1220 1539 c 0
 1266 1500 1283 1451 1270 1392 c 0
 1261 1348 1235 1304 1194 1261 c 0xd0
 1152 1217 1077 1161 969 1094 c 2
 864 1029 l 1
 777 975 l 2
 665 904 588 847 563 776 c 1
 1154 776 l 1xe0
EndSplineSet
EndChar

StartChar: threesuperior
Encoding: 179 179 117
Width: 1229
Flags: MW
HStem: 621 124<831 901.5> 1086 124<789 845 762 903> 1474 124<1004.5 1102.5>
VStem: 1210 159
LayerCount: 2
Fore
SplineSet
540 661 m 1
 570 804 l 1
 681 765 784 745 878 745 c 0
 965 745 1039 762 1100 795 c 0
 1161 829 1197 870 1207 917 c 0
 1231 1030 1110 1086 845 1086 c 2
 762 1086 l 1
 789 1210 l 1
 903 1210 l 2
 1006 1210 1085 1226 1142 1258 c 0
 1199 1290 1232 1325 1240 1364 c 0
 1255 1428 1180 1474 1025 1474 c 0
 937 1474 838 1460 727 1431 c 1
 755 1563 l 1
 865 1586 962 1598 1047 1598 c 0
 1188 1598 1287 1576 1342 1531 c 0
 1387 1495 1410 1433 1398 1377 c 0
 1391 1342 1370 1305 1336 1266 c 0
 1303 1227 1252 1195 1185 1168 c 1
 1325 1129 1389 1043 1364 926 c 0
 1345 835 1286 761 1188 705 c 0
 1091 649 972 621 831 621 c 0
 724 621 627 634 540 661 c 1
EndSplineSet
EndChar

StartChar: acute
Encoding: 180 180 118
Width: 1229
Flags: MW
HStem: 1288 326<593 1175>
VStem: 593 582<1288 1614>
LayerCount: 2
Fore
SplineSet
763 1288 m 1
 593 1288 l 1
 959 1614 l 1
 1175 1614 l 1
 763 1288 l 1
EndSplineSet
EndChar

StartChar: mu
Encoding: 181 181 119
Width: 1229
Flags: MW
HStem: -31 162<511.5 570.5 511.5 576.5> 0 21G<890 1076 890 890> 1097 20G<359 545 545 545 1127 1313 1313 1313>
VStem: 42 1271
LayerCount: 2
Fore
SplineSet
1127 1117 m 1x70
 1313 1117 l 1
 1076 0 l 1
 890 0 l 1x70
 941 242 l 1
 800 53 641 -31 512 -31 c 0
 489 -31 466 -28 442 -23 c 0
 418 -18 398 -11 381 -2 c 0
 364 6 343 22 317 47 c 1
 228 -372 l 1
 42 -372 l 1
 359 1117 l 1
 545 1117 l 1
 407 468 l 2
 380 342 381 254 410 205 c 0
 439 156 482 131 541 131 c 0
 600 131 661 153 725 196 c 0xb0
 790 240 877 327 987 458 c 1
 1127 1117 l 1x70
EndSplineSet
EndChar

StartChar: paragraph
Encoding: 182 182 120
Width: 1229
Flags: MW
HStem: 1396 156<1004 1159 1004 1004 1314 1477 1314 1314>
VStem: 315 1195
LayerCount: 2
Fore
SplineSet
628 -372 m 1
 472 -372 l 1
 697 683 l 1
 544 699 438 749 379 833 c 0
 320 918 302 1015 325 1124 c 0
 341 1199 375 1270 427 1339 c 0
 479 1408 542 1460 617 1497 c 0
 692 1534 810 1552 973 1552 c 2
 1510 1552 l 1
 1477 1396 l 1
 1314 1396 l 1
 938 -372 l 1
 783 -372 l 1
 1159 1396 l 1
 1004 1396 l 1
 628 -372 l 1
EndSplineSet
EndChar

StartChar: middot
Encoding: 183 183 121
Width: 1229
Flags: MW
HStem: 380 326<670.5 787.5>
VStem: 562 334
LayerCount: 2
Fore
SplineSet
764 706 m 0
 811 706 846 689 869 655 c 0
 893 622 901 584 892 543 c 0
 883 502 860 464 821 430 c 0
 783 397 741 380 694 380 c 0
 647 380 612 397 588 430 c 0
 565 464 557 502 566 543 c 0
 575 584 598 622 636 655 c 0
 675 689 717 706 764 706 c 0
EndSplineSet
EndChar

StartChar: cedilla
Encoding: 184 184 122
Width: 1229
Flags: MW
HStem: -435 86<482.5 499.5 467.5 541.5>
VStem: 357 369 593 133
LayerCount: 2
Fore
SplineSet
577 0 m 1xc0
 685 0 l 1
 584 -131 l 1
 652 -145 694 -167 709 -196 c 0
 725 -226 730 -257 723 -289 c 0
 715 -326 693 -359 657 -389 c 0
 622 -420 573 -435 510 -435 c 0
 455 -435 404 -426 357 -407 c 1
 376 -318 l 1
 410 -339 447 -349 488 -349 c 0
 511 -349 534 -342 555 -328 c 0
 577 -314 590 -299 593 -284 c 0xa0
 603 -239 547 -210 426 -197 c 1
 577 0 l 1xc0
EndSplineSet
EndChar

StartChar: onesuperior
Encoding: 185 185 123
Width: 1229
Flags: MW
HStem: 644 124<432 742 882 1157 405 742> 1555 20G<917 1053 1053 1053>
VStem: 405 779<644 768>
LayerCount: 2
Fore
SplineSet
432 768 m 1
 742 768 l 1
 883 1431 l 1
 774 1377 662 1336 547 1309 c 1
 574 1435 l 1
 703 1471 817 1518 917 1575 c 1
 1053 1575 l 1
 882 768 l 1
 1184 768 l 1
 1157 644 l 1
 405 644 l 1
 432 768 l 1
EndSplineSet
EndChar

StartChar: ordmasculine
Encoding: 186 186 124
Width: 1229
Flags: MW
HStem: 884 124<787 869.5 787 874> 1474 124<886 968.5>
VStem: 435 157 1163 157
LayerCount: 2
Fore
SplineSet
801 884 m 0
 656 884 555 920 498 991 c 0
 441 1062 423 1146 443 1241 c 0
 464 1337 517 1420 604 1491 c 0
 691 1562 808 1598 953 1598 c 0
 1099 1598 1200 1562 1257 1491 c 0
 1314 1420 1333 1337 1312 1241 c 0
 1292 1146 1238 1062 1151 991 c 0
 1064 920 947 884 801 884 c 0
828 1008 m 0
 911 1008 982 1028 1042 1068 c 0
 1103 1108 1141 1166 1157 1241 c 0
 1173 1316 1159 1374 1116 1414 c 0
 1073 1454 1010 1474 927 1474 c 0
 845 1474 774 1454 713 1414 c 0
 652 1374 614 1316 598 1241 c 0
 582 1166 596 1108 639 1068 c 0
 683 1028 746 1008 828 1008 c 0
EndSplineSet
EndChar

StartChar: guillemotright
Encoding: 187 187 125
Width: 1229
Flags: MW
HStem: 62 993<232 443 443 705>
VStem: 142 1069<171 636>
LayerCount: 2
Fore
SplineSet
443 1055 m 1
 737 636 l 1
 704 481 l 1
 232 62 l 1
 142 171 l 1
 536 559 l 1
 309 957 l 1
 443 1055 l 1
916 1055 m 1
 1211 636 l 1
 1178 481 l 1
 705 62 l 1
 615 171 l 1
 1009 559 l 1
 782 957 l 1
 916 1055 l 1
EndSplineSet
EndChar

StartChar: onequarter
Encoding: 188 188 126
Width: 1229
Flags: MW
HStem: -47 21G<-7 156 -7 -7> 0 21G<925 1080 925 925> 155 124<573 573 739 957 546 573 1139 1260> 776 124<193 426 589 678 166 426> 1532 20G<564 727 727 727> 1578 20G<1398 1567 1567 1567>
VStem: -7 1574
LayerCount: 2
Fore
SplineSet
678 776 m 1
 166 776 l 1
 193 900 l 1
 426 900 l 1
 532 1398 l 1
 266 1243 l 1
 299 1398 l 1
 564 1552 l 1
 727 1552 l 1
 589 900 l 1
 705 900 l 1
 678 776 l 1
1567 1598 m 1
 156 -47 l 1
 -7 -47 l 1
 1398 1598 l 1
 1567 1598 l 1
1112 155 m 1
 1080 0 l 1
 925 0 l 1
 957 155 l 1
 546 155 l 1
 573 279 l 1
 1088 768 l 1
 1243 768 l 1
 1139 279 l 1
 1287 279 l 1
 1260 155 l 1
 1112 155 l 1
739 279 m 1
 984 279 l 1
 1046 572 l 1
 739 279 l 1
EndSplineSet
EndChar

StartChar: onehalf
Encoding: 189 189 127
Width: 1229
Flags: MW
HStem: -47 21G<-7 152 -7 -7> 0 124<656 656 819 1181 630 656> 644 124<1002.5 1131.5> 776 124<193 426 589 678 166 426> 1532 20G<564 727 727 727> 1578 20G<1399 1567 1567 1567>
VStem: 1143 162
LayerCount: 2
Fore
SplineSet
678 776 m 1
 166 776 l 1
 193 900 l 1
 426 900 l 1
 532 1398 l 1
 266 1243 l 1
 299 1398 l 1
 564 1552 l 1
 727 1552 l 1
 589 900 l 1
 705 900 l 1
 678 776 l 1
1567 1598 m 1
 152 -47 l 1
 -7 -47 l 1
 1399 1598 l 1
 1567 1598 l 1
1207 124 m 1
 1181 0 l 1
 630 0 l 1
 656 124 l 2
 664 164 741 253 925 366 c 2
 994 408 l 2
 1060 449 1100 478 1115 495 c 0
 1129 512 1138 531 1143 553 c 0
 1150 587 1142 611 1117 624 c 0
 1092 637 1063 644 1030 644 c 0
 975 644 907 624 824 584 c 1
 851 714 l 1
 948 750 1029 768 1092 768 c 0
 1171 768 1229 748 1265 709 c 0
 1301 670 1313 621 1300 561 c 0
 1289 512 1262 469 1219 430 c 0
 1175 391 1119 351 1050 312 c 2
 998 282 l 2
 957 258 922 235 893 212 c 0
 864 189 846 175 819 124 c 1
 1207 124 l 1
EndSplineSet
EndChar

StartChar: threequarters
Encoding: 190 190 128
Width: 1229
Flags: MW
HStem: -47 21G<-7 156 -7 -7> 0 21G<925 1080 925 925> 155 124<573 573 739 957 546 573 1139 1260> 776 124<462.5 499.5> 1102 124<386 433 360 467> 1427 125<559 693.5> 1578 20G<1398 1567 1567 1567>
VStem: 640 161 689 164
LayerCount: 2
Fore
SplineSet
433 1102 m 2xfe80
 360 1102 l 1
 386 1226 l 1
 467 1226 l 2
 559 1226 618 1238 643 1262 c 0
 669 1287 684 1310 689 1332 c 0
 694 1354 688 1375 673 1396 c 0
 658 1417 627 1427 582 1427 c 0
 536 1427 467 1414 374 1387 c 1xff
 400 1509 l 1
 494 1538 577 1552 650 1552 c 0
 737 1552 794 1531 822 1489 c 0
 850 1447 859 1403 849 1357 c 0
 833 1284 782 1223 693 1175 c 1
 778 1138 813 1081 797 1004 c 0
 785 948 749 896 688 848 c 0
 628 800 549 776 450 776 c 0
 381 776 315 787 251 809 c 1
 281 947 l 1
 370 916 438 900 487 900 c 0
 523 900 556 909 586 926 c 0
 616 944 634 967 640 995 c 0
 647 1026 637 1051 612 1071 c 0
 587 1092 527 1102 433 1102 c 2xfe80
1567 1598 m 1
 156 -47 l 1
 -7 -47 l 1xfe80
 1398 1598 l 1
 1567 1598 l 1
1112 155 m 1
 1080 0 l 1
 925 0 l 1
 957 155 l 1
 546 155 l 1
 573 279 l 1
 1088 768 l 1
 1243 768 l 1
 1139 279 l 1
 1287 279 l 1
 1260 155 l 1
 1112 155 l 1
739 279 m 1
 984 279 l 1
 1046 572 l 1
 739 279 l 1
EndSplineSet
EndChar

StartChar: questiondown
Encoding: 191 191 129
Width: 1229
Flags: MW
HStem: -497 156<514.5 588 514.5 595.5> 1120 20G<947.5 986.5>
VStem: 132 207
LayerCount: 2
Fore
SplineSet
781 659 m 1
 968 659 l 1
 960 624 l 2
 949 569 934 523 917 486 c 0
 900 449 873 411 838 371 c 0
 803 332 754 284 689 228 c 2
 613 161 l 2
 599 149 577 129 548 100 c 2
 464 17 l 2
 394 -52 354 -112 343 -163 c 0
 333 -210 344 -251 376 -287 c 0
 409 -323 470 -341 559 -341 c 0
 617 -341 678 -333 742 -318 c 0
 806 -303 883 -272 973 -227 c 1
 935 -406 l 1
 798 -467 663 -497 528 -497 c 0
 379 -497 271 -466 206 -405 c 0
 141 -344 119 -265 140 -168 c 0
 160 -72 232 28 355 132 c 2
 436 200 l 1
 530 280 l 1
 618 353 l 2
 650 383 680 417 707 454 c 0
 735 492 756 545 771 613 c 2
 781 659 l 1
906 853 m 0
 867 853 836 867 814 895 c 0
 792 924 785 958 793 997 c 0
 802 1036 823 1070 857 1098 c 0
 891 1126 928 1140 967 1140 c 0
 1006 1140 1036 1126 1059 1098 c 0
 1082 1071 1089 1037 1080 997 c 0
 1072 957 1051 923 1016 895 c 0
 981 867 945 853 906 853 c 0
EndSplineSet
EndChar

StartChar: Agrave
Encoding: 192 192 130
Width: 1229
Flags: MW
HStem: 0 21G<33 227 33 33 984 984 984 1197> 341 155<404 938 485 938 485 950> 1532 20G<840 1045 1045 1045>
VStem: 33 1200
LayerCount: 2
Fore
SplineSet
404 341 m 1
 227 0 l 1
 33 0 l 1
 840 1552 l 1
 1045 1552 l 1
 1197 0 l 1
 984 0 l 1
 950 341 l 1
 404 341 l 1
793 1085 m 1
 485 496 l 1
 938 496 l 1
 876 1085 l 1
 865 1241 l 1
 793 1085 l 1
1007 2048 m 1
 1233 1722 l 1
 1063 1722 l 1
 791 2048 l 1
 1007 2048 l 1
EndSplineSet
EndChar

StartChar: Aacute
Encoding: 193 193 131
Width: 1229
Flags: MW
HStem: 0 21G<33 227 33 33 984 984 984 1197> 341 155<404 938 485 938 485 950> 1532 20G<840 1045 1045 1045>
VStem: 33 1270
LayerCount: 2
Fore
SplineSet
404 341 m 1
 227 0 l 1
 33 0 l 1
 840 1552 l 1
 1045 1552 l 1
 1197 0 l 1
 984 0 l 1
 950 341 l 1
 404 341 l 1
793 1085 m 1
 485 496 l 1
 938 496 l 1
 876 1085 l 1
 865 1241 l 1
 793 1085 l 1
891 1722 m 1
 721 1722 l 1
 1087 2048 l 1
 1303 2048 l 1
 891 1722 l 1
EndSplineSet
EndChar

StartChar: Acircumflex
Encoding: 194 194 132
Width: 1229
Flags: MW
HStem: 0 21G<33 227 33 33 984 984 984 1197> 341 155<404 938 485 938 485 950> 1532 20G<840 1045 1045 1045>
VStem: 33 1242
LayerCount: 2
Fore
SplineSet
404 341 m 1
 227 0 l 1
 33 0 l 1
 840 1552 l 1
 1045 1552 l 1
 1197 0 l 1
 984 0 l 1
 950 341 l 1
 404 341 l 1
793 1085 m 1
 485 496 l 1
 938 496 l 1
 876 1085 l 1
 865 1241 l 1
 793 1085 l 1
1119 1722 m 1
 1016 1890 l 1
 840 1722 l 1
 685 1722 l 1
 988 2048 l 1
 1112 2048 l 1
 1275 1722 l 1
 1119 1722 l 1
EndSplineSet
EndChar

StartChar: Atilde
Encoding: 195 195 133
Width: 1229
Flags: MW
HStem: 0 21G<33 227 33 33 984 984 984 1197> 341 155<404 938 485 938 485 950> 1532 20G<840 1045 1045 1045> 1721 140<1147 1162.5> 1838 140<871.5 889.5>
VStem: 33 1337
LayerCount: 2
Fore
SplineSet
404 341 m 1xec
 227 0 l 1
 33 0 l 1
 840 1552 l 1
 1045 1552 l 1
 1197 0 l 1
 984 0 l 1
 950 341 l 1
 404 341 l 1xec
793 1085 m 1
 485 496 l 1
 938 496 l 1
 876 1085 l 1
 865 1241 l 1
 793 1085 l 1
788 1722 m 1
 663 1722 l 1
 700 1898 795 1978 899 1978 c 0
 940 1978 979 1965 1016 1938 c 2xec
 1053 1913 l 2
 1101 1878 1136 1861 1158 1861 c 0
 1198 1861 1226 1900 1243 1978 c 1
 1370 1978 l 1
 1351 1910 1332 1860 1311 1829 c 0
 1270 1766 1197 1721 1128 1721 c 0
 1085 1721 1041 1737 997 1770 c 2
 959 1798 l 1xf4
 939 1815 l 2
 920 1830 900 1838 879 1838 c 0
 864 1838 848 1830 830 1815 c 0
 812 1800 798 1769 788 1722 c 1
EndSplineSet
EndChar

StartChar: Adieresis
Encoding: 196 196 134
Width: 1229
Flags: MW
HStem: 0 21G<33 227 33 33 984 984 984 1197> 341 155<404 938 485 938 485 950> 1532 20G<840 1045 1045 1045>
VStem: 662 254 1096 101
LayerCount: 2
Fore
SplineSet
404 341 m 1
 227 0 l 1
 33 0 l 1
 840 1552 l 1
 1045 1552 l 1
 1197 0 l 1
 984 0 l 1
 950 341 l 1
 404 341 l 1
793 1085 m 1
 485 496 l 1
 938 496 l 1
 876 1085 l 1
 865 1241 l 1
 793 1085 l 1
762 1722 m 0
 728 1722 701 1734 682 1758 c 0
 663 1782 658 1811 665 1846 c 0
 672 1881 691 1910 720 1934 c 0
 750 1958 782 1970 815 1970 c 0
 848 1970 875 1958 894 1934 c 0
 914 1910 920 1881 913 1846 c 0
 906 1811 887 1782 857 1758 c 0
 828 1734 796 1722 762 1722 c 0
1197 1722 m 0
 1163 1722 1136 1734 1117 1758 c 0
 1098 1782 1092 1811 1099 1846 c 0
 1106 1881 1125 1910 1155 1934 c 0
 1185 1958 1217 1970 1250 1970 c 0
 1283 1970 1310 1958 1329 1934 c 0
 1349 1910 1355 1881 1348 1846 c 0
 1341 1811 1322 1782 1292 1758 c 0
 1262 1734 1230 1722 1197 1722 c 0
EndSplineSet
EndChar

StartChar: Aring
Encoding: 197 197 135
Width: 1229
Flags: MW
HStem: 0 21G<33 227 33 33 984 1197 984 984> 341 155<485 938 485 950 404 938> 1532 20G<840 840 1045 1045> 1800 93<989.5 1020.5>
VStem: 785 97 984 182 1068 129
LayerCount: 2
Fore
SplineSet
1045 1552 m 1xfc
 1197 0 l 1xfa
 984 0 l 1
 950 341 l 1
 404 341 l 1
 227 0 l 1
 33 0 l 1
 840 1552 l 1
 793 1593 776 1644 789 1707 c 0
 800 1757 827 1800 871 1837 c 0
 916 1874 964 1893 1015 1893 c 0
 1066 1893 1106 1875 1134 1838 c 0
 1163 1801 1172 1758 1161 1707 c 0
 1149 1646 1110 1593 1045 1552 c 1xfc
793 1085 m 1
 485 496 l 1
 938 496 l 1
 876 1085 l 1
 865 1241 l 1
 793 1085 l 1
882 1707 m 0
 871 1656 905 1614 956 1614 c 0
 981 1614 1005 1623 1027 1641 c 0
 1049 1660 1063 1682 1068 1707 c 0
 1079 1758 1046 1800 995 1800 c 0
 970 1800 946 1791 923 1772 c 0
 901 1753 887 1732 882 1707 c 0
EndSplineSet
EndChar

StartChar: AE
Encoding: 198 198 136
Width: 1229
Flags: MW
HStem: 0 171<860 1181> 372 140<489 717 403 746> 706 155<1007 1316 974 1349> 1396 156<1120 1477 1120 1120>
VStem: 2 1508
LayerCount: 2
Fore
SplineSet
1181 0 m 1
 638 0 l 1
 717 372 l 1
 403 372 l 1
 172 0 l 1
 2 0 l 1
 967 1552 l 1
 1510 1552 l 1
 1477 1396 l 1
 1120 1396 l 1
 1007 861 l 1
 1349 861 l 1
 1316 706 l 1
 974 706 l 1
 860 171 l 1
 1217 171 l 1
 1181 0 l 1
879 1134 m 1
 489 512 l 1
 746 512 l 1
 879 1134 l 1
EndSplineSet
EndChar

StartChar: Ccedilla
Encoding: 199 199 137
Width: 1229
Flags: MW
HStem: -435 86<577.5 594.5 562.5 636.5> -49 157<741 767.5> -37 21G<643 643> 1443 156<1034 1127>
VStem: 248 220 688 133
LayerCount: 2
Fore
SplineSet
1414 1534 m 1xbc
 1374 1350 l 1
 1280 1412 1180 1443 1074 1443 c 0
 994 1443 915 1416 837 1361 c 0
 759 1306 688 1226 625 1120 c 0
 562 1015 518 900 491 776 c 0
 464 650 461 534 480 427 c 0
 519 214 631 108 790 108 c 0
 895 108 1009 139 1130 201 c 1
 1091 18 l 1
 1000 -13 932 -31 887 -38 c 0
 843 -45 794 -49 741 -49 c 1
 679 -131 l 1xdc
 747 -145 789 -167 804 -196 c 0
 820 -226 825 -257 818 -289 c 0
 810 -326 788 -359 752 -389 c 0
 717 -420 668 -435 605 -435 c 0
 550 -435 499 -426 452 -407 c 1
 471 -318 l 1
 505 -339 542 -349 583 -349 c 0
 606 -349 629 -342 650 -328 c 0
 672 -314 685 -299 688 -284 c 0
 698 -239 642 -210 521 -197 c 1
 643 -37 l 1
 520 -4 429 50 368 127 c 0
 247 282 219 482 278 754 c 0
 335 1023 441 1231 597 1378 c 0
 754 1525 926 1599 1115 1599 c 0
 1207 1599 1307 1577 1414 1534 c 1xbc
EndSplineSet
EndChar

StartChar: Egrave
Encoding: 200 200 138
Width: 1229
Flags: MW
HStem: 0 171<441 1041> 714 155<589 1114 556 1147> 1396 156<701 1321 701 701>
VStem: 203 1151
LayerCount: 2
Fore
SplineSet
441 171 m 1
 1077 171 l 1
 1041 0 l 1
 203 0 l 1
 532 1552 l 1
 1354 1552 l 1
 1321 1396 l 1
 701 1396 l 1
 589 869 l 1
 1147 869 l 1
 1114 714 l 1
 556 714 l 1
 441 171 l 1
1018 2048 m 1
 1244 1722 l 1
 1074 1722 l 1
 802 2048 l 1
 1018 2048 l 1
EndSplineSet
EndChar

StartChar: Eacute
Encoding: 201 201 139
Width: 1229
Flags: MW
HStem: 0 171<441 1041> 714 155<589 1114 556 1147> 1396 156<701 1321 701 701>
VStem: 203 1151
LayerCount: 2
Fore
SplineSet
441 171 m 1
 1077 171 l 1
 1041 0 l 1
 203 0 l 1
 532 1552 l 1
 1354 1552 l 1
 1321 1396 l 1
 701 1396 l 1
 589 869 l 1
 1147 869 l 1
 1114 714 l 1
 556 714 l 1
 441 171 l 1
902 1722 m 1
 732 1722 l 1
 1098 2048 l 1
 1314 2048 l 1
 902 1722 l 1
EndSplineSet
EndChar

StartChar: Ecircumflex
Encoding: 202 202 140
Width: 1229
Flags: MW
HStem: 0 171<441 1041> 714 155<589 1114 556 1147> 1396 156<701 1321 701 701>
VStem: 203 1151
LayerCount: 2
Fore
SplineSet
441 171 m 1
 1077 171 l 1
 1041 0 l 1
 203 0 l 1
 532 1552 l 1
 1354 1552 l 1
 1321 1396 l 1
 701 1396 l 1
 589 869 l 1
 1147 869 l 1
 1114 714 l 1
 556 714 l 1
 441 171 l 1
1119 1722 m 1
 1016 1890 l 1
 840 1722 l 1
 685 1722 l 1
 988 2048 l 1
 1112 2048 l 1
 1275 1722 l 1
 1119 1722 l 1
EndSplineSet
EndChar

StartChar: Edieresis
Encoding: 203 203 141
Width: 1229
Flags: MW
HStem: 0 171<441 1041> 714 155<589 1114 556 1147> 1396 156<701 1321 701 701>
VStem: 203 1156 670 254 1104 255
LayerCount: 2
Fore
SplineSet
441 171 m 1xf0
 1077 171 l 1
 1041 0 l 1
 203 0 l 1
 532 1552 l 1
 1354 1552 l 1
 1321 1396 l 1
 701 1396 l 1
 589 869 l 1
 1147 869 l 1
 1114 714 l 1
 556 714 l 1
 441 171 l 1xf0
770 1722 m 0
 736 1722 709 1734 690 1758 c 0
 671 1782 666 1811 673 1846 c 0
 680 1881 699 1910 728 1934 c 0
 758 1958 790 1970 823 1970 c 0
 856 1970 883 1958 902 1934 c 0
 922 1910 928 1881 921 1846 c 0
 914 1811 895 1782 865 1758 c 0xe8
 836 1734 804 1722 770 1722 c 0
1205 1722 m 0
 1171 1722 1144 1734 1125 1758 c 0
 1106 1782 1100 1811 1107 1846 c 0
 1114 1881 1133 1910 1163 1934 c 0
 1193 1958 1225 1970 1258 1970 c 0
 1291 1970 1318 1958 1337 1934 c 0
 1357 1910 1363 1881 1356 1846 c 0
 1349 1811 1330 1782 1300 1758 c 0xe4
 1270 1734 1238 1722 1205 1722 c 0
EndSplineSet
EndChar

StartChar: Igrave
Encoding: 204 204 142
Width: 1229
Flags: MW
HStem: 0 155<204 545 747 1056 172 545> 1396 156<501 809 468 1385 1011 1011 1011 1352>
VStem: 172 1213
LayerCount: 2
Fore
SplineSet
1056 0 m 1
 172 0 l 1
 204 155 l 1
 545 155 l 1
 809 1396 l 1
 468 1396 l 1
 501 1552 l 1
 1385 1552 l 1
 1352 1396 l 1
 1011 1396 l 1
 747 155 l 1
 1088 155 l 1
 1056 0 l 1
1010 2048 m 1
 1236 1722 l 1
 1066 1722 l 1
 794 2048 l 1
 1010 2048 l 1
EndSplineSet
EndChar

StartChar: Iacute
Encoding: 205 205 143
Width: 1229
Flags: MW
HStem: 0 155<204 545 747 1056 172 545> 1396 156<501 809 468 1385 1011 1011 1011 1352>
VStem: 172 1213
LayerCount: 2
Fore
SplineSet
1056 0 m 1
 172 0 l 1
 204 155 l 1
 545 155 l 1
 809 1396 l 1
 468 1396 l 1
 501 1552 l 1
 1385 1552 l 1
 1352 1396 l 1
 1011 1396 l 1
 747 155 l 1
 1088 155 l 1
 1056 0 l 1
894 1722 m 1
 724 1722 l 1
 1090 2048 l 1
 1306 2048 l 1
 894 1722 l 1
EndSplineSet
EndChar

StartChar: Icircumflex
Encoding: 206 206 144
Width: 1229
Flags: MW
HStem: 0 155<204 545 747 1056 172 545> 1396 156<501 809 468 1385 1011 1011 1011 1352>
VStem: 172 1213
LayerCount: 2
Fore
SplineSet
1056 0 m 1
 172 0 l 1
 204 155 l 1
 545 155 l 1
 809 1396 l 1
 468 1396 l 1
 501 1552 l 1
 1385 1552 l 1
 1352 1396 l 1
 1011 1396 l 1
 747 155 l 1
 1088 155 l 1
 1056 0 l 1
1119 1722 m 1
 1016 1890 l 1
 840 1722 l 1
 685 1722 l 1
 988 2048 l 1
 1112 2048 l 1
 1275 1722 l 1
 1119 1722 l 1
EndSplineSet
EndChar

StartChar: Idieresis
Encoding: 207 207 145
Width: 1229
Flags: MW
HStem: 0 155<204 545 747 1056 172 545> 1396 156<501 809 468 1385 1011 1011 1011 1352>
VStem: 665 82 1096 255
LayerCount: 2
Fore
SplineSet
1056 0 m 1
 172 0 l 1
 204 155 l 1
 545 155 l 1
 809 1396 l 1
 468 1396 l 1
 501 1552 l 1
 1385 1552 l 1
 1352 1396 l 1
 1011 1396 l 1
 747 155 l 1
 1088 155 l 1
 1056 0 l 1
762 1722 m 0
 728 1722 701 1734 682 1758 c 0
 663 1782 658 1811 665 1846 c 0
 672 1881 691 1910 720 1934 c 0
 750 1958 782 1970 815 1970 c 0
 848 1970 875 1958 894 1934 c 0
 914 1910 920 1881 913 1846 c 0
 906 1811 887 1782 857 1758 c 0
 828 1734 796 1722 762 1722 c 0
1197 1722 m 0
 1163 1722 1136 1734 1117 1758 c 0
 1098 1782 1092 1811 1099 1846 c 0
 1106 1881 1125 1910 1155 1934 c 0
 1185 1958 1217 1970 1250 1970 c 0
 1283 1970 1310 1958 1329 1934 c 0
 1349 1910 1355 1881 1348 1846 c 0
 1341 1811 1322 1782 1292 1758 c 0
 1262 1734 1230 1722 1197 1722 c 0
EndSplineSet
EndChar

StartChar: Eth
Encoding: 208 208 146
Width: 1229
Flags: MW
HStem: 0 171<395 530 530 567> 714 155<186 308 153 341 543 758> 1396 156<655 806 655 655>
VStem: 1156 192
LayerCount: 2
Fore
SplineSet
567 0 m 2
 157 0 l 1
 308 714 l 1
 153 714 l 1
 186 869 l 1
 341 869 l 1
 486 1552 l 1
 854 1552 l 2
 1036 1552 1158 1526 1220 1475 c 0
 1282 1424 1322 1334 1339 1207 c 0
 1357 1080 1349 935 1314 772 c 0
 1281 617 1229 479 1158 358 c 0
 1088 237 1010 147 925 88 c 0
 840 29 721 0 567 0 c 2
510 714 m 1
 395 171 l 1
 530 171 l 2
 676 171 779 192 839 234 c 0
 959 319 1055 500 1119 804 c 0
 1151 953 1162 1069 1152 1153 c 0
 1143 1238 1118 1299 1077 1338 c 0
 1037 1377 947 1396 806 1396 c 2
 655 1396 l 1
 543 869 l 1
 791 869 l 1
 758 714 l 1
 510 714 l 1
EndSplineSet
EndChar

StartChar: Ntilde
Encoding: 209 209 147
Width: 1229
Flags: MW
HStem: 0 21G<126 312 126 126 917 917 917 1103> 1532 20G<455 637 637 637 1246 1432 1432 1432> 1721 140<1147 1162.5> 1838 140<871.5 889.5>
VStem: 126 1306
LayerCount: 2
Fore
SplineSet
528 1018 m 1xd8
 312 0 l 1
 126 0 l 1
 455 1552 l 1
 637 1552 l 1
 967 519 l 1
 994 365 l 1
 999 365 l 1
 1027 519 l 1
 1246 1552 l 1
 1432 1552 l 1
 1103 0 l 1
 917 0 l 1
 598 1016 l 1
 558 1179 l 1
 528 1018 l 1xd8
788 1722 m 1
 663 1722 l 1
 700 1898 795 1978 899 1978 c 0
 940 1978 979 1965 1016 1938 c 2xd8
 1053 1913 l 2
 1101 1878 1136 1861 1158 1861 c 0
 1198 1861 1226 1900 1243 1978 c 1
 1370 1978 l 1
 1351 1910 1332 1860 1311 1829 c 0
 1270 1766 1197 1721 1128 1721 c 0
 1085 1721 1041 1737 997 1770 c 2
 959 1798 l 1xe8
 939 1815 l 2
 920 1830 900 1838 879 1838 c 0
 864 1838 848 1830 830 1815 c 0
 812 1800 798 1769 788 1722 c 1
EndSplineSet
EndChar

StartChar: Ograve
Encoding: 210 210 148
Width: 1229
Flags: MW
HStem: -47 156<588.5 685.5 588.5 692.5> 1443 155<871.5 968.5>
VStem: 198 202 1157 202
LayerCount: 2
Fore
SplineSet
604 -47 m 0
 428 -47 309 27 247 175 c 0
 186 324 182 524 235 776 c 0
 289 1027 378 1227 502 1375 c 0
 627 1524 777 1598 953 1598 c 0
 1130 1598 1249 1524 1310 1375 c 0
 1371 1227 1375 1027 1321 776 c 0
 1268 524 1179 324 1055 175 c 0
 931 27 781 -47 604 -47 c 0
637 109 m 0
 734 109 827 164 915 274 c 0
 1004 385 1072 552 1119 776 c 0
 1167 1000 1170 1167 1128 1277 c 0
 1087 1388 1017 1443 920 1443 c 0
 823 1443 730 1388 641 1277 c 0
 553 1167 485 1000 437 776 c 0
 390 552 387 385 428 274 c 0
 470 164 540 109 637 109 c 0
1010 2048 m 1
 1236 1722 l 1
 1066 1722 l 1
 794 2048 l 1
 1010 2048 l 1
EndSplineSet
EndChar

StartChar: Oacute
Encoding: 211 211 149
Width: 1229
Flags: MW
HStem: -47 156<588.5 685.5 588.5 692.5> 1443 155<871.5 968.5>
VStem: 198 202 1157 202
LayerCount: 2
Fore
SplineSet
604 -47 m 0
 428 -47 309 27 247 175 c 0
 186 324 182 524 235 776 c 0
 289 1027 378 1227 502 1375 c 0
 627 1524 777 1598 953 1598 c 0
 1130 1598 1249 1524 1310 1375 c 0
 1371 1227 1375 1027 1321 776 c 0
 1268 524 1179 324 1055 175 c 0
 931 27 781 -47 604 -47 c 0
637 109 m 0
 734 109 827 164 915 274 c 0
 1004 385 1072 552 1119 776 c 0
 1167 1000 1170 1167 1128 1277 c 0
 1087 1388 1017 1443 920 1443 c 0
 823 1443 730 1388 641 1277 c 0
 553 1167 485 1000 437 776 c 0
 390 552 387 385 428 274 c 0
 470 164 540 109 637 109 c 0
894 1722 m 1
 724 1722 l 1
 1090 2048 l 1
 1306 2048 l 1
 894 1722 l 1
EndSplineSet
EndChar

StartChar: Ocircumflex
Encoding: 212 212 150
Width: 1229
Flags: MW
HStem: -47 156<588.5 685.5 588.5 692.5> 1443 155<871.5 968.5>
VStem: 198 202 1157 202
LayerCount: 2
Fore
SplineSet
604 -47 m 0
 428 -47 309 27 247 175 c 0
 186 324 182 524 235 776 c 0
 289 1027 378 1227 502 1375 c 0
 627 1524 777 1598 953 1598 c 0
 1130 1598 1249 1524 1310 1375 c 0
 1371 1227 1375 1027 1321 776 c 0
 1268 524 1179 324 1055 175 c 0
 931 27 781 -47 604 -47 c 0
637 109 m 0
 734 109 827 164 915 274 c 0
 1004 385 1072 552 1119 776 c 0
 1167 1000 1170 1167 1128 1277 c 0
 1087 1388 1017 1443 920 1443 c 0
 823 1443 730 1388 641 1277 c 0
 553 1167 485 1000 437 776 c 0
 390 552 387 385 428 274 c 0
 470 164 540 109 637 109 c 0
1119 1722 m 1
 1016 1890 l 1
 840 1722 l 1
 685 1722 l 1
 988 2048 l 1
 1112 2048 l 1
 1275 1722 l 1
 1119 1722 l 1
EndSplineSet
EndChar

StartChar: Otilde
Encoding: 213 213 151
Width: 1229
Flags: MW
HStem: -47 156<588.5 685.5 588.5 692.5> 1443 155<871.5 968.5> 1721 140<1138 1153.5> 1838 140<862.5 880.5>
VStem: 198 202 1157 202
LayerCount: 2
Fore
SplineSet
604 -47 m 0xdc
 428 -47 309 27 247 175 c 0
 186 324 182 524 235 776 c 0
 289 1027 378 1227 502 1375 c 0
 627 1524 777 1598 953 1598 c 0
 1130 1598 1249 1524 1310 1375 c 0
 1371 1227 1375 1027 1321 776 c 0
 1268 524 1179 324 1055 175 c 0
 931 27 781 -47 604 -47 c 0xdc
637 109 m 0
 734 109 827 164 915 274 c 0
 1004 385 1072 552 1119 776 c 0
 1167 1000 1170 1167 1128 1277 c 0
 1087 1388 1017 1443 920 1443 c 0
 823 1443 730 1388 641 1277 c 0
 553 1167 485 1000 437 776 c 0
 390 552 387 385 428 274 c 0
 470 164 540 109 637 109 c 0
779 1722 m 1
 654 1722 l 1
 691 1898 786 1978 890 1978 c 0
 931 1978 970 1965 1007 1938 c 2xdc
 1044 1913 l 2
 1092 1878 1127 1861 1149 1861 c 0
 1189 1861 1217 1900 1234 1978 c 1
 1361 1978 l 1
 1342 1910 1323 1860 1302 1829 c 0
 1261 1766 1188 1721 1119 1721 c 0
 1076 1721 1032 1737 988 1770 c 2
 950 1798 l 1xec
 930 1815 l 2
 911 1830 891 1838 870 1838 c 0
 855 1838 839 1830 821 1815 c 0
 803 1800 789 1769 779 1722 c 1
EndSplineSet
EndChar

StartChar: Odieresis
Encoding: 214 214 152
Width: 1229
Flags: MW
HStem: -47 156<588.5 685.5 588.5 692.5> 1443 155<871.5 968.5>
VStem: 198 202 662 254 1096 255 1157 202
LayerCount: 2
Fore
SplineSet
604 -47 m 0xf4
 428 -47 309 27 247 175 c 0
 186 324 182 524 235 776 c 0
 289 1027 378 1227 502 1375 c 0
 627 1524 777 1598 953 1598 c 0
 1130 1598 1249 1524 1310 1375 c 0
 1371 1227 1375 1027 1321 776 c 0
 1268 524 1179 324 1055 175 c 0
 931 27 781 -47 604 -47 c 0xf4
637 109 m 0
 734 109 827 164 915 274 c 0
 1004 385 1072 552 1119 776 c 0
 1167 1000 1170 1167 1128 1277 c 0
 1087 1388 1017 1443 920 1443 c 0
 823 1443 730 1388 641 1277 c 0
 553 1167 485 1000 437 776 c 0
 390 552 387 385 428 274 c 0
 470 164 540 109 637 109 c 0
762 1722 m 0
 728 1722 701 1734 682 1758 c 0
 663 1782 658 1811 665 1846 c 0
 672 1881 691 1910 720 1934 c 0
 750 1958 782 1970 815 1970 c 0
 848 1970 875 1958 894 1934 c 0
 914 1910 920 1881 913 1846 c 0
 906 1811 887 1782 857 1758 c 0
 828 1734 796 1722 762 1722 c 0
1197 1722 m 0
 1163 1722 1136 1734 1117 1758 c 0
 1098 1782 1092 1811 1099 1846 c 0
 1106 1881 1125 1910 1155 1934 c 0
 1185 1958 1217 1970 1250 1970 c 0
 1283 1970 1310 1958 1329 1934 c 0
 1349 1910 1355 1881 1348 1846 c 0
 1341 1811 1322 1782 1292 1758 c 0xf8
 1262 1734 1230 1722 1197 1722 c 0
EndSplineSet
EndChar

StartChar: multiply
Encoding: 215 215 153
Width: 1229
Flags: MW
HStem: 0 21G<184 184 1044 1044>
VStem: 94 1271<112 979>
LayerCount: 2
Fore
SplineSet
1180 112 m 1
 1044 0 l 1
 707 436 l 1
 184 0 l 1
 94 112 l 1
 620 541 l 1
 279 979 l 1
 414 1086 l 1
 754 656 l 1
 1274 1086 l 1
 1365 979 l 1
 839 541 l 1
 1180 112 l 1
EndSplineSet
EndChar

StartChar: Oslash
Encoding: 216 216 154
Width: 1229
Flags: MW
HStem: -47 156<595.5 658.5> 1443 155<868.5 938.5>
VStem: 200 197 1165 190
LayerCount: 2
Fore
SplineSet
320 69 m 1
 185 -109 l 1
 47 -109 l 1
 254 167 l 1
 226 234 209 297 204 356 c 0
 193 476 204 624 237 785 c 0
 294 1050 386 1252 513 1390 c 0
 641 1529 786 1598 948 1598 c 0
 984 1598 1020 1594 1057 1586 c 0
 1094 1579 1126 1569 1153 1556 c 0
 1180 1543 1212 1521 1247 1488 c 1
 1376 1660 l 1
 1509 1660 l 1
 1309 1387 l 1
 1335 1318 1351 1257 1357 1202 c 0
 1363 1147 1362 1080 1355 1000 c 0
 1348 921 1336 842 1319 765 c 0
 1284 599 1231 454 1160 329 c 0
 1089 204 1009 110 920 47 c 0
 831 -16 723 -47 594 -47 c 0
 539 -47 493 -41 454 -28 c 0
 416 -15 371 17 320 69 c 1
397 360 m 1
 1128 1329 l 1
 1097 1378 1064 1409 1028 1422 c 0
 993 1436 957 1443 920 1443 c 0
 817 1443 722 1385 635 1268 c 0
 548 1152 483 992 440 789 c 0
 433 757 424 708 412 642 c 0
 400 577 393 527 391 493 c 0
 390 459 392 415 397 360 c 1
1165 1195 m 1
 437 225 l 1
 489 137 559 109 632 109 c 0
 748 109 848 170 931 293 c 0
 1014 416 1077 578 1120 777 c 0
 1127 812 1136 858 1146 915 c 0
 1156 972 1162 1019 1165 1055 c 0
 1168 1092 1168 1138 1165 1195 c 1
EndSplineSet
EndChar

StartChar: Ugrave
Encoding: 217 217 155
Width: 1229
Flags: MW
HStem: -47 155<584.5 671 584.5 703.5> 1532 20G<455 657 657 657 1246 1432 1432 1432>
VStem: 206 205
LayerCount: 2
Fore
SplineSet
244 559 m 2
 455 1552 l 1
 657 1552 l 1
 441 533 l 2
 412 399 404 307 416 258 c 0
 440 161 528 108 641 108 c 0
 701 108 757 122 810 149 c 0
 863 177 907 220 942 279 c 0
 977 338 1012 449 1047 612 c 2
 1246 1552 l 1
 1432 1552 l 1
 1217 539 l 2
 1186 394 1141 281 1080 199 c 0
 960 36 809 -47 598 -47 c 0
 501 -47 419 -29 352 7 c 0
 285 43 241 97 218 169 c 0
 195 241 204 371 244 559 c 2
1010 2048 m 1
 1236 1722 l 1
 1066 1722 l 1
 794 2048 l 1
 1010 2048 l 1
EndSplineSet
EndChar

StartChar: Uacute
Encoding: 218 218 156
Width: 1229
Flags: MW
HStem: -47 155<584.5 671 584.5 703.5> 1532 20G<455 657 657 657 1246 1432 1432 1432>
VStem: 206 205
LayerCount: 2
Fore
SplineSet
244 559 m 2
 455 1552 l 1
 657 1552 l 1
 441 533 l 2
 412 399 404 307 416 258 c 0
 440 161 528 108 641 108 c 0
 701 108 757 122 810 149 c 0
 863 177 907 220 942 279 c 0
 977 338 1012 449 1047 612 c 2
 1246 1552 l 1
 1432 1552 l 1
 1217 539 l 2
 1186 394 1141 281 1080 199 c 0
 960 36 809 -47 598 -47 c 0
 501 -47 419 -29 352 7 c 0
 285 43 241 97 218 169 c 0
 195 241 204 371 244 559 c 2
894 1722 m 1
 724 1722 l 1
 1090 2048 l 1
 1306 2048 l 1
 894 1722 l 1
EndSplineSet
EndChar

StartChar: Ucircumflex
Encoding: 219 219 157
Width: 1229
Flags: MW
HStem: -47 155<584.5 671 584.5 703.5> 1532 20G<455 657 657 657 1246 1432 1432 1432>
VStem: 206 205
LayerCount: 2
Fore
SplineSet
244 559 m 2
 455 1552 l 1
 657 1552 l 1
 441 533 l 2
 412 399 404 307 416 258 c 0
 440 161 528 108 641 108 c 0
 701 108 757 122 810 149 c 0
 863 177 907 220 942 279 c 0
 977 338 1012 449 1047 612 c 2
 1246 1552 l 1
 1432 1552 l 1
 1217 539 l 2
 1186 394 1141 281 1080 199 c 0
 960 36 809 -47 598 -47 c 0
 501 -47 419 -29 352 7 c 0
 285 43 241 97 218 169 c 0
 195 241 204 371 244 559 c 2
1119 1722 m 1
 1016 1890 l 1
 840 1722 l 1
 685 1722 l 1
 988 2048 l 1
 1112 2048 l 1
 1275 1722 l 1
 1119 1722 l 1
EndSplineSet
EndChar

StartChar: Udieresis
Encoding: 220 220 158
Width: 1229
Flags: MW
HStem: -47 155<584.5 671 584.5 703.5> 1532 20G<455 657 657 657 1246 1432 1432 1432>
VStem: 206 205 662 254 1096 255
LayerCount: 2
Fore
SplineSet
244 559 m 2
 455 1552 l 1
 657 1552 l 1
 441 533 l 2
 412 399 404 307 416 258 c 0
 440 161 528 108 641 108 c 0
 701 108 757 122 810 149 c 0
 863 177 907 220 942 279 c 0
 977 338 1012 449 1047 612 c 2
 1246 1552 l 1
 1432 1552 l 1
 1217 539 l 2
 1186 394 1141 281 1080 199 c 0
 960 36 809 -47 598 -47 c 0
 501 -47 419 -29 352 7 c 0
 285 43 241 97 218 169 c 0
 195 241 204 371 244 559 c 2
762 1722 m 0
 728 1722 701 1734 682 1758 c 0
 663 1782 658 1811 665 1846 c 0
 672 1881 691 1910 720 1934 c 0
 750 1958 782 1970 815 1970 c 0
 848 1970 875 1958 894 1934 c 0
 914 1910 920 1881 913 1846 c 0
 906 1811 887 1782 857 1758 c 0
 828 1734 796 1722 762 1722 c 0
1197 1722 m 0
 1163 1722 1136 1734 1117 1758 c 0
 1098 1782 1092 1811 1099 1846 c 0
 1106 1881 1125 1910 1155 1934 c 0
 1185 1958 1217 1970 1250 1970 c 0
 1283 1970 1310 1958 1329 1934 c 0
 1349 1910 1355 1881 1348 1846 c 0
 1341 1811 1322 1782 1292 1758 c 0
 1262 1734 1230 1722 1197 1722 c 0
EndSplineSet
EndChar

StartChar: Yacute
Encoding: 221 221 159
Width: 1229
Flags: MW
HStem: 0 21G<514 716 514 514> 1532 20G<381 610 610 610 1299 1506 1506 1506>
VStem: 381 1125<1552 1552>
LayerCount: 2
Fore
SplineSet
716 0 m 1
 514 0 l 1
 666 718 l 1
 381 1552 l 1
 610 1552 l 1
 824 936 l 1
 1299 1552 l 1
 1506 1552 l 1
 868 718 l 1
 716 0 l 1
894 1722 m 1
 724 1722 l 1
 1090 2048 l 1
 1306 2048 l 1
 894 1722 l 1
EndSplineSet
EndChar

StartChar: Thorn
Encoding: 222 222 160
Width: 1229
Flags: MW
HStem: 0 21G<176 378 176 176> 303 155<475 524 442 562> 1133 155<618 835 651 739> 1532 20G<505 707 707 707>
VStem: 1118 207
LayerCount: 2
Fore
SplineSet
524 303 m 2
 442 303 l 1
 378 0 l 1
 176 0 l 1
 505 1552 l 1
 707 1552 l 1
 651 1288 l 1
 835 1288 l 2
 994 1288 1106 1270 1171 1234 c 0
 1236 1199 1281 1147 1305 1078 c 0
 1329 1009 1332 933 1314 849 c 0
 1293 749 1247 656 1176 570 c 0
 1106 484 1020 418 917 372 c 0
 814 326 683 303 524 303 c 2
618 1133 m 1
 475 458 l 1
 562 458 l 2
 687 458 783 474 850 506 c 0
 917 538 974 584 1019 645 c 0
 1065 706 1095 772 1110 842 c 0
 1129 931 1115 1002 1068 1054 c 0
 1021 1107 911 1133 739 1133 c 2
 618 1133 l 1
EndSplineSet
EndChar

StartChar: germandbls
Encoding: 223 223 161
Width: 1229
Flags: MW
HStem: -31 155<742.5 777.5 742.5 788.5> 0 21G<130 316 130 130 479 479> 1489 156<867 910>
VStem: 607 204 1016 195
LayerCount: 2
Fore
SplineSet
316 0 m 1x78
 130 0 l 1x78
 368 1122 l 2
 396 1254 437 1355 490 1425 c 0
 597 1566 752 1645 947 1645 c 0
 1074 1645 1160 1615 1204 1555 c 0
 1249 1496 1264 1433 1250 1368 c 0
 1241 1327 1221 1286 1189 1246 c 0
 1158 1207 1101 1157 1020 1098 c 2
 940 1040 l 2
 924 1029 900 1010 868 984 c 0
 836 959 817 933 811 906 c 0
 807 887 808 871 813 858 c 0
 818 845 837 824 870 795 c 2
 924 748 l 1
 1032 661 l 2
 1093 613 1141 561 1176 504 c 0
 1211 447 1220 381 1203 304 c 0
 1182 207 1128 126 1039 63 c 0
 950 0 847 -31 730 -31 c 0
 705 -31 674 -30 639 -27 c 0
 604 -25 577 -23 558 -20 c 0xb8
 539 -17 513 -11 479 0 c 1x78
 518 185 l 1
 554 168 585 155 612 148 c 0
 665 135 724 124 761 124 c 0
 794 124 831 130 870 142 c 0xb8
 949 166 1000 227 1012 283 c 0
 1021 324 1013 365 990 405 c 0
 965 445 920 490 855 541 c 2
 752 621 l 2
 648 704 590 777 611 876 c 0
 618 913 636 949 663 984 c 0
 690 1019 744 1068 825 1130 c 2
 895 1185 l 2
 972 1244 1034 1300 1047 1363 c 0
 1056 1406 1042 1438 1005 1458 c 0
 968 1479 930 1489 890 1489 c 0
 844 1489 799 1478 755 1455 c 0
 712 1433 673 1399 639 1353 c 0
 606 1308 577 1231 554 1122 c 2
 316 0 l 1x78
EndSplineSet
EndChar

StartChar: agrave
Encoding: 224 224 162
Width: 1229
Flags: MW
HStem: -31 21G<411.5 491.5> -31 178<411.5 569> 0 21G<924 1118 924 924> 977 156<854.5 938.5 799 940.5> 1097 20G<1126 1313 1313 1313>
VStem: 179 212 924 190
LayerCount: 2
Fore
SplineSet
942 251 m 1xb6
 865 158 782 87 692 40 c 0
 603 -7 525 -31 458 -31 c 0
 365 -31 289 9 232 90 c 0
 175 171 164 293 199 457 c 0
 226 586 275 702 346 803 c 0
 489 1007 677 1133 921 1133 c 0xb6
 956 1133 1009 1129 1079 1122 c 2
 1126 1117 l 1
 1313 1117 l 1xae
 1145 328 l 2
 1116 193 1107 84 1118 0 c 1
 924 0 l 1
 922 61 928 145 942 251 c 1xb6
989 472 m 1
 1091 951 l 1
 1028 968 969 977 912 977 c 0
 797 977 692 933 597 844 c 0
 502 755 439 635 406 482 c 0
 383 371 386 288 415 231 c 0
 445 175 487 147 540 147 c 0
 598 147 668 176 750 235 c 0x56
 833 294 912 373 989 472 c 1
945 1614 m 1
 1171 1288 l 1
 1001 1288 l 1
 729 1614 l 1
 945 1614 l 1
EndSplineSet
EndChar

StartChar: aacute
Encoding: 225 225 163
Width: 1229
Flags: MW
HStem: -31 21G<411.5 491.5> -31 178<411.5 569> 0 21G<924 1118 924 924> 977 156<854.5 938.5 799 940.5> 1097 20G<1126 1313 1313 1313>
VStem: 179 212 924 190
LayerCount: 2
Fore
SplineSet
942 251 m 1xb6
 865 158 782 87 692 40 c 0
 603 -7 525 -31 458 -31 c 0
 365 -31 289 9 232 90 c 0
 175 171 164 293 199 457 c 0
 226 586 275 702 346 803 c 0
 489 1007 677 1133 921 1133 c 0xb6
 956 1133 1009 1129 1079 1122 c 2
 1126 1117 l 1
 1313 1117 l 1xae
 1145 328 l 2
 1116 193 1107 84 1118 0 c 1
 924 0 l 1
 922 61 928 145 942 251 c 1xb6
989 472 m 1
 1091 951 l 1
 1028 968 969 977 912 977 c 0
 797 977 692 933 597 844 c 0
 502 755 439 635 406 482 c 0
 383 371 386 288 415 231 c 0
 445 175 487 147 540 147 c 0
 598 147 668 176 750 235 c 0x56
 833 294 912 373 989 472 c 1
922 1288 m 1
 752 1288 l 1
 1118 1614 l 1
 1334 1614 l 1
 922 1288 l 1
EndSplineSet
EndChar

StartChar: acircumflex
Encoding: 226 226 164
Width: 1229
Flags: MW
HStem: -31 21G<411.5 491.5> -31 178<411.5 569> 0 21G<924 1118 924 924> 977 156<854.5 938.5 799 940.5> 1097 20G<1126 1313 1313 1313>
VStem: 179 212 924 190
LayerCount: 2
Fore
SplineSet
942 251 m 1xb6
 865 158 782 87 692 40 c 0
 603 -7 525 -31 458 -31 c 0
 365 -31 289 9 232 90 c 0
 175 171 164 293 199 457 c 0
 226 586 275 702 346 803 c 0
 489 1007 677 1133 921 1133 c 0xb6
 956 1133 1009 1129 1079 1122 c 2
 1126 1117 l 1
 1313 1117 l 1xae
 1145 328 l 2
 1116 193 1107 84 1118 0 c 1
 924 0 l 1
 922 61 928 145 942 251 c 1xb6
989 472 m 1
 1091 951 l 1
 1028 968 969 977 912 977 c 0
 797 977 692 933 597 844 c 0
 502 755 439 635 406 482 c 0
 383 371 386 288 415 231 c 0
 445 175 487 147 540 147 c 0
 598 147 668 176 750 235 c 0x56
 833 294 912 373 989 472 c 1
1116 1288 m 1
 1013 1456 l 1
 837 1288 l 1
 682 1288 l 1
 985 1614 l 1
 1109 1614 l 1
 1272 1288 l 1
 1116 1288 l 1
EndSplineSet
EndChar

StartChar: atilde
Encoding: 227 227 165
Width: 1229
Flags: MW
HStem: -31 21G<411.5 491.5> -31 178<411.5 569> 0 21G<924 1118 924 924> 977 156<854.5 938.5 799 940.5> 1097 20G<1126 1313 1313 1313> 1287 140<1089 1104.5> 1404 140<813.5 831.5>
VStem: 179 212 924 190
LayerCount: 2
Fore
SplineSet
942 251 m 1xb380
 865 158 782 87 692 40 c 0
 603 -7 525 -31 458 -31 c 0
 365 -31 289 9 232 90 c 0
 175 171 164 293 199 457 c 0
 226 586 275 702 346 803 c 0
 489 1007 677 1133 921 1133 c 0xb380
 956 1133 1009 1129 1079 1122 c 2
 1126 1117 l 1
 1313 1117 l 1xab80
 1145 328 l 2
 1116 193 1107 84 1118 0 c 1
 924 0 l 1
 922 61 928 145 942 251 c 1xb380
989 472 m 1
 1091 951 l 1
 1028 968 969 977 912 977 c 0
 797 977 692 933 597 844 c 0
 502 755 439 635 406 482 c 0
 383 371 386 288 415 231 c 0
 445 175 487 147 540 147 c 0
 598 147 668 176 750 235 c 0x5380
 833 294 912 373 989 472 c 1
730 1288 m 1
 605 1288 l 1
 642 1464 737 1544 841 1544 c 0
 882 1544 921 1531 958 1504 c 2xb380
 995 1479 l 2
 1043 1444 1078 1427 1100 1427 c 0
 1140 1427 1168 1466 1185 1544 c 1
 1312 1544 l 1
 1293 1476 1274 1426 1253 1395 c 0
 1212 1332 1139 1287 1070 1287 c 0
 1027 1287 983 1303 939 1336 c 2
 901 1364 l 1xb580
 881 1381 l 2
 862 1396 842 1404 821 1404 c 0
 806 1404 790 1396 772 1381 c 0
 754 1366 740 1335 730 1288 c 1
EndSplineSet
EndChar

StartChar: adieresis
Encoding: 228 228 166
Width: 1229
Flags: MW
HStem: -31 21G<411.5 491.5> -31 178<411.5 569> 0 21G<924 1118 924 924> 977 156<854.5 938.5 799 940.5> 1097 20G<1126 1313 1313 1313>
VStem: 179 212 628 254 924 190 1062 255
LayerCount: 2
Fore
SplineSet
942 251 m 1xb5
 865 158 782 87 692 40 c 0
 603 -7 525 -31 458 -31 c 0
 365 -31 289 9 232 90 c 0
 175 171 164 293 199 457 c 0
 226 586 275 702 346 803 c 0
 489 1007 677 1133 921 1133 c 0xb5
 956 1133 1009 1129 1079 1122 c 2
 1126 1117 l 1
 1313 1117 l 1xad
 1145 328 l 2
 1116 193 1107 84 1118 0 c 1
 924 0 l 1
 922 61 928 145 942 251 c 1xb5
989 472 m 1
 1091 951 l 1
 1028 968 969 977 912 977 c 0
 797 977 692 933 597 844 c 0
 502 755 439 635 406 482 c 0
 383 371 386 288 415 231 c 0
 445 175 487 147 540 147 c 0
 598 147 668 176 750 235 c 0x57
 833 294 912 373 989 472 c 1
728 1288 m 0
 694 1288 667 1300 648 1324 c 0
 629 1348 624 1377 631 1412 c 0
 638 1447 657 1476 686 1500 c 0
 716 1524 748 1536 781 1536 c 0
 814 1536 841 1524 860 1500 c 0
 880 1476 886 1447 879 1412 c 0
 872 1377 853 1348 823 1324 c 0
 794 1300 762 1288 728 1288 c 0
1163 1288 m 0
 1129 1288 1102 1300 1083 1324 c 0
 1064 1348 1058 1377 1065 1412 c 0
 1072 1447 1091 1476 1121 1500 c 0
 1151 1524 1183 1536 1216 1536 c 0
 1249 1536 1276 1524 1295 1500 c 0
 1315 1476 1321 1447 1314 1412 c 0
 1307 1377 1288 1348 1258 1324 c 0xb480
 1228 1300 1196 1288 1163 1288 c 0
EndSplineSet
EndChar

StartChar: aring
Encoding: 229 229 167
Width: 1229
Flags: MW
HStem: -31 21G<411.5 491.5> -31 178<411.5 569> 0 21G<924 1118 924 924> 977 156<854.5 938.5 799 940.5> 1097 20G<1126 1313 1313 1313> 1288 93<924.5 956> 1567 93<983.5 1016>
VStem: 179 212 779 98 924 190 1063 98
LayerCount: 2
Fore
SplineSet
942 251 m 1xb7c0
 865 158 782 87 692 40 c 0
 603 -7 525 -31 458 -31 c 0
 365 -31 289 9 232 90 c 0
 175 171 164 293 199 457 c 0
 226 586 275 702 346 803 c 0
 489 1007 677 1133 921 1133 c 0xb7c0
 956 1133 1009 1129 1079 1122 c 2
 1126 1117 l 1
 1313 1117 l 1xafc0
 1145 328 l 2
 1116 193 1107 84 1118 0 c 1
 924 0 l 1
 922 61 928 145 942 251 c 1xb7c0
989 472 m 1
 1091 951 l 1
 1028 968 969 977 912 977 c 0
 797 977 692 933 597 844 c 0
 502 755 439 635 406 482 c 0
 383 371 386 288 415 231 c 0
 445 175 487 147 540 147 c 0
 598 147 668 176 750 235 c 0x57c0
 833 294 912 373 989 472 c 1
950 1381 m 0
 976 1381 1000 1390 1022 1408 c 0
 1044 1427 1058 1449 1063 1474 c 0
 1074 1525 1042 1567 990 1567 c 0xb7a0
 965 1567 941 1558 918 1539 c 0
 896 1521 882 1499 877 1474 c 0
 866 1423 899 1381 950 1381 c 0
930 1288 m 0
 878 1288 838 1307 810 1344 c 0
 782 1381 773 1425 784 1474 c 0
 795 1524 822 1567 866 1604 c 0
 910 1641 958 1660 1009 1660 c 0
 1061 1660 1101 1641 1129 1604 c 0
 1158 1567 1167 1524 1156 1474 c 0
 1145 1425 1118 1381 1074 1344 c 0
 1030 1307 982 1288 930 1288 c 0
EndSplineSet
EndChar

StartChar: ae
Encoding: 230 230 168
Width: 1229
Flags: MW
HStem: -31 155<934.5 942.5> -31 209 535 132<903 1120 903 1279 875 1120> 993 155<656 721.5>
VStem: 143 190 640 195 1154 175
LayerCount: 2
Fore
SplineSet
640 226 m 1xbe
 533 53 418 -31 333 -31 c 0
 258 -31 204 17 169 113 c 0
 135 209 134 332 166 483 c 0
 246 880 500 1151 710 1148 c 0
 733 1148 757 1145 782 1140 c 0
 807 1135 830 1129 849 1121 c 0
 868 1114 892 1099 919 1077 c 1
 976 1113 1018 1134 1046 1139 c 0
 1074 1145 1098 1148 1119 1148 c 0
 1204 1148 1265 1110 1303 1034 c 0
 1342 959 1337 809 1290 585 c 2
 1279 535 l 1
 875 535 l 1
 858 452 l 2
 837 353 829 284 835 243 c 0
 848 163 900 124 969 124 c 0
 1036 124 1116 150 1209 203 c 1
 1173 33 l 1
 1070 -10 980 -31 905 -31 c 0
 856 -31 812 -22 774 -5 c 0
 737 12 706 37 683 71 c 0
 660 105 645 157 640 226 c 1xbe
675 470 m 1
 779 959 l 1
 752 982 724 993 695 993 c 0
 617 993 547 938 484 828 c 0
 421 718 376 596 348 463 c 0
 331 384 328 317 338 260 c 0
 348 203 370 176 404 178 c 0x7e
 475 183 566 280 675 470 c 1
910 699 m 2
 903 667 l 1
 1120 667 l 1
 1127 699 l 2
 1152 816 1159 895 1150 934 c 0
 1141 973 1119 993 1084 993 c 0
 1011 993 951 895 910 699 c 2
EndSplineSet
EndChar

StartChar: ccedilla
Encoding: 231 231 169
Width: 1229
Flags: MW
HStem: -435 86<573.5 590 558 632> -28 21G<646 646> 993 155<923 1008.5>
VStem: 263 212 683 134
LayerCount: 2
Fore
SplineSet
749 -34 m 1
 674 -131 l 1
 743 -145 785 -167 800 -196 c 0
 816 -226 821 -257 814 -289 c 0
 806 -326 784 -359 748 -389 c 0
 712 -420 663 -435 601 -435 c 0
 546 -435 495 -426 448 -407 c 1
 467 -318 l 1
 501 -339 538 -349 578 -349 c 0
 602 -349 625 -342 646 -328 c 0
 667 -314 680 -299 683 -284 c 0
 693 -239 638 -210 517 -197 c 1
 646 -28 l 1
 540 -9 457 28 397 84 c 0
 278 196 236 342 280 547 c 0
 319 728 406 874 542 983 c 0
 678 1093 822 1148 973 1148 c 0
 1088 1148 1206 1126 1325 1083 c 1
 1287 904 l 1
 1170 963 1060 993 957 993 c 0
 889 993 821 976 754 942 c 0
 687 909 629 856 581 785 c 0
 534 714 502 640 486 565 c 0
 464 464 475 368 518 277 c 0
 562 186 651 140 786 140 c 0
 827 140 867 143 908 148 c 0
 949 154 1026 175 1139 211 c 1
 1101 32 l 1
 989 -5 872 -27 749 -34 c 1
EndSplineSet
EndChar

StartChar: egrave
Encoding: 232 232 170
Width: 1229
Flags: MW
HStem: -32 156<644.5 721.5> 528 139<482 1039 482 1212 442 1039> 993 155<854 900.5>
VStem: 233 197 1055 191
LayerCount: 2
Fore
SplineSet
1135 244 m 1
 1099 74 l 1
 936 3 788 -32 655 -32 c 0
 554 -32 470 -7 401 43 c 0
 332 93 284 164 256 257 c 0
 228 350 225 450 248 556 c 0
 269 658 313 756 378 850 c 0
 443 944 522 1017 615 1069 c 0
 708 1122 804 1148 904 1148 c 0
 1037 1148 1133 1101 1193 1006 c 0
 1253 911 1262 765 1220 568 c 2
 1212 528 l 1
 442 528 l 1
 425 451 426 380 445 316 c 0
 482 188 577 124 712 124 c 0
 832 124 973 164 1135 244 c 1
482 667 m 1
 1039 667 l 1
 1045 694 l 2
 1064 785 1057 858 1024 912 c 0
 991 966 938 993 863 993 c 0
 712 993 571 882 482 667 c 1
957 1614 m 1
 1183 1288 l 1
 1013 1288 l 1
 741 1614 l 1
 957 1614 l 1
EndSplineSet
EndChar

StartChar: eacute
Encoding: 233 233 171
Width: 1229
Flags: MW
HStem: -32 156<644.5 721.5> 528 139<482 1039 482 1212 442 1039> 993 155<854 900.5>
VStem: 233 197 1055 191
LayerCount: 2
Fore
SplineSet
1135 244 m 1
 1099 74 l 1
 936 3 788 -32 655 -32 c 0
 554 -32 470 -7 401 43 c 0
 332 93 284 164 256 257 c 0
 228 350 225 450 248 556 c 0
 269 658 313 756 378 850 c 0
 443 944 522 1017 615 1069 c 0
 708 1122 804 1148 904 1148 c 0
 1037 1148 1133 1101 1193 1006 c 0
 1253 911 1262 765 1220 568 c 2
 1212 528 l 1
 442 528 l 1
 425 451 426 380 445 316 c 0
 482 188 577 124 712 124 c 0
 832 124 973 164 1135 244 c 1
482 667 m 1
 1039 667 l 1
 1045 694 l 2
 1064 785 1057 858 1024 912 c 0
 991 966 938 993 863 993 c 0
 712 993 571 882 482 667 c 1
887 1288 m 1
 717 1288 l 1
 1083 1614 l 1
 1299 1614 l 1
 887 1288 l 1
EndSplineSet
EndChar

StartChar: ecircumflex
Encoding: 234 234 172
Width: 1229
Flags: MW
HStem: -32 156<644.5 721.5> 528 139<482 1039 482 1212 442 1039> 993 155<854 900.5>
VStem: 233 197 1055 191
LayerCount: 2
Fore
SplineSet
1135 244 m 1
 1099 74 l 1
 936 3 788 -32 655 -32 c 0
 554 -32 470 -7 401 43 c 0
 332 93 284 164 256 257 c 0
 228 350 225 450 248 556 c 0
 269 658 313 756 378 850 c 0
 443 944 522 1017 615 1069 c 0
 708 1122 804 1148 904 1148 c 0
 1037 1148 1133 1101 1193 1006 c 0
 1253 911 1262 765 1220 568 c 2
 1212 528 l 1
 442 528 l 1
 425 451 426 380 445 316 c 0
 482 188 577 124 712 124 c 0
 832 124 973 164 1135 244 c 1
482 667 m 1
 1039 667 l 1
 1045 694 l 2
 1064 785 1057 858 1024 912 c 0
 991 966 938 993 863 993 c 0
 712 993 571 882 482 667 c 1
1066 1288 m 1
 963 1456 l 1
 787 1288 l 1
 632 1288 l 1
 935 1614 l 1
 1059 1614 l 1
 1222 1288 l 1
 1066 1288 l 1
EndSplineSet
EndChar

StartChar: edieresis
Encoding: 235 235 173
Width: 1229
Flags: MW
HStem: -32 156<644.5 721.5> 528 139<482 1039 482 1212 442 1039> 993 155<854 900.5>
VStem: 233 197 624 254 1055 191 1058 255
LayerCount: 2
Fore
SplineSet
1135 244 m 1xfc
 1099 74 l 1
 936 3 788 -32 655 -32 c 0
 554 -32 470 -7 401 43 c 0
 332 93 284 164 256 257 c 0
 228 350 225 450 248 556 c 0
 269 658 313 756 378 850 c 0
 443 944 522 1017 615 1069 c 0
 708 1122 804 1148 904 1148 c 0
 1037 1148 1133 1101 1193 1006 c 0
 1253 911 1262 765 1220 568 c 2
 1212 528 l 1
 442 528 l 1
 425 451 426 380 445 316 c 0
 482 188 577 124 712 124 c 0
 832 124 973 164 1135 244 c 1xfc
482 667 m 1
 1039 667 l 1
 1045 694 l 2
 1064 785 1057 858 1024 912 c 0
 991 966 938 993 863 993 c 0
 712 993 571 882 482 667 c 1
724 1288 m 0
 690 1288 663 1300 644 1324 c 0
 625 1348 620 1377 627 1412 c 0
 634 1447 653 1476 682 1500 c 0
 712 1524 744 1536 777 1536 c 0
 810 1536 837 1524 856 1500 c 0
 876 1476 882 1447 875 1412 c 0
 868 1377 849 1348 819 1324 c 0
 790 1300 758 1288 724 1288 c 0
1159 1288 m 0
 1125 1288 1098 1300 1079 1324 c 0
 1060 1348 1054 1377 1061 1412 c 0
 1068 1447 1087 1476 1117 1500 c 0
 1147 1524 1179 1536 1212 1536 c 0
 1245 1536 1272 1524 1291 1500 c 0
 1311 1476 1317 1447 1310 1412 c 0
 1303 1377 1284 1348 1254 1324 c 0xfa
 1224 1300 1192 1288 1159 1288 c 0
EndSplineSet
EndChar

StartChar: igrave
Encoding: 236 236 174
Width: 1229
Flags: MW
HStem: 0 155<685 964> 962 155<394 671 361 890>
VStem: 361 736<962 1288>
LayerCount: 2
Fore
SplineSet
964 0 m 1
 467 0 l 1
 671 962 l 1
 361 962 l 1
 394 1117 l 1
 890 1117 l 1
 685 155 l 1
 996 155 l 1
 964 0 l 1
871 1614 m 1
 1097 1288 l 1
 927 1288 l 1
 655 1614 l 1
 871 1614 l 1
EndSplineSet
EndChar

StartChar: iacute
Encoding: 237 237 175
Width: 1229
Flags: MW
HStem: 0 155<685 964> 962 155<394 671 361 890>
VStem: 361 806<962 1614>
LayerCount: 2
Fore
SplineSet
964 0 m 1
 467 0 l 1
 671 962 l 1
 361 962 l 1
 394 1117 l 1
 890 1117 l 1
 685 155 l 1
 996 155 l 1
 964 0 l 1
755 1288 m 1
 585 1288 l 1
 951 1614 l 1
 1167 1614 l 1
 755 1288 l 1
EndSplineSet
EndChar

StartChar: icircumflex
Encoding: 238 238 176
Width: 1229
Flags: MW
HStem: 0 155<685 964> 962 155<394 671 361 890>
VStem: 361 776<962 1288>
LayerCount: 2
Fore
SplineSet
964 0 m 1
 467 0 l 1
 671 962 l 1
 361 962 l 1
 394 1117 l 1
 890 1117 l 1
 685 155 l 1
 996 155 l 1
 964 0 l 1
981 1288 m 1
 878 1456 l 1
 702 1288 l 1
 547 1288 l 1
 850 1614 l 1
 974 1614 l 1
 1137 1288 l 1
 981 1288 l 1
EndSplineSet
EndChar

StartChar: idieresis
Encoding: 239 239 177
Width: 1229
Flags: MW
HStem: 0 155<685 964> 962 155<394 671 361 890>
VStem: 361 852 524 254 958 255
LayerCount: 2
Fore
SplineSet
964 0 m 1xe0
 467 0 l 1
 671 962 l 1
 361 962 l 1
 394 1117 l 1
 890 1117 l 1
 685 155 l 1
 996 155 l 1
 964 0 l 1xe0
624 1288 m 0
 590 1288 563 1300 544 1324 c 0
 525 1348 520 1377 527 1412 c 0
 534 1447 553 1476 582 1500 c 0
 612 1524 644 1536 677 1536 c 0
 710 1536 737 1524 756 1500 c 0
 776 1476 782 1447 775 1412 c 0
 768 1377 749 1348 719 1324 c 0xd0
 690 1300 658 1288 624 1288 c 0
1059 1288 m 0
 1025 1288 998 1300 979 1324 c 0
 960 1348 954 1377 961 1412 c 0
 968 1447 987 1476 1017 1500 c 0
 1047 1524 1079 1536 1112 1536 c 0
 1145 1536 1172 1524 1191 1500 c 0
 1211 1476 1217 1447 1210 1412 c 0
 1203 1377 1184 1348 1154 1324 c 0xc8
 1124 1300 1092 1288 1059 1288 c 0
EndSplineSet
EndChar

StartChar: eth
Encoding: 240 240 178
Width: 1229
Flags: MW
HStem: -31 155<591.5 689.5> 931 155<782.5 845.5 782.5 861> 1458 156<481 549 481 549>
VStem: 183 197 1073 225
LayerCount: 2
Fore
SplineSet
1096 991 m 1
 1085 1056 1065 1116 1038 1171 c 0
 1011 1226 963 1284 895 1344 c 1
 627 1140 l 1
 549 1257 l 1
 764 1418 l 1
 684 1445 598 1458 506 1458 c 2
 481 1458 l 1
 515 1614 l 1
 549 1614 l 2
 628 1614 698 1610 757 1603 c 0
 817 1596 878 1578 939 1549 c 1
 1195 1744 l 1
 1274 1628 l 1
 1062 1468 l 1
 1145 1387 1203 1305 1238 1220 c 0
 1273 1136 1293 1040 1298 932 c 0
 1303 825 1294 718 1272 613 c 0
 1230 417 1151 261 1034 144 c 0
 917 27 774 -31 605 -31 c 0
 447 -31 331 22 257 127 c 0
 184 233 165 369 200 536 c 0
 224 647 267 744 328 826 c 0
 389 908 465 972 556 1017 c 0
 647 1063 738 1086 827 1086 c 0
 864 1086 903 1081 943 1072 c 0
 984 1063 1035 1036 1096 991 c 1
641 124 m 0
 739 124 827 162 905 237 c 0
 983 313 1035 410 1060 528 c 0
 1085 645 1074 742 1028 817 c 0
 982 893 910 931 812 931 c 0
 713 931 625 893 547 817 c 0
 469 742 418 645 393 528 c 0
 368 410 378 313 424 237 c 0
 470 162 542 124 641 124 c 0
EndSplineSet
EndChar

StartChar: ntilde
Encoding: 241 241 179
Width: 1229
Flags: MW
HStem: 0 21G<157 343 157 157 902 902 902 1088> 977 171<968.5 978.5> 1097 20G<394 580 580 580> 1287 140<1062 1077.5> 1404 140<786.5 804.5>
VStem: 1068 193
LayerCount: 2
Fore
SplineSet
343 0 m 1xac
 157 0 l 1
 394 1117 l 1
 580 1117 l 1xac
 528 873 l 1
 599 959 678 1026 764 1075 c 0
 850 1124 931 1148 1006 1148 c 0
 1072 1148 1128 1130 1174 1095 c 0
 1221 1060 1249 1015 1258 958 c 0
 1268 901 1255 790 1220 624 c 2
 1088 0 l 1
 902 0 l 1
 1039 647 l 2
 1062 754 1071 825 1068 859 c 0
 1063 928 1011 977 946 977 c 0
 881 977 804 946 716 884 c 0xcc
 628 822 550 744 481 651 c 1
 343 0 l 1xac
703 1288 m 1
 578 1288 l 1
 615 1464 710 1544 814 1544 c 0
 855 1544 894 1531 931 1504 c 2xac
 968 1479 l 2
 1016 1444 1051 1427 1073 1427 c 0
 1113 1427 1141 1466 1158 1544 c 1
 1285 1544 l 1
 1266 1476 1247 1426 1226 1395 c 0
 1185 1332 1112 1287 1043 1287 c 0
 1000 1287 956 1303 912 1336 c 2
 874 1364 l 1xb4
 854 1381 l 2
 835 1396 815 1404 794 1404 c 0
 779 1404 763 1396 745 1381 c 0
 727 1366 713 1335 703 1288 c 1
EndSplineSet
EndChar

StartChar: ograve
Encoding: 242 242 180
Width: 1229
Flags: MW
HStem: -31 155<591 687.5> 993 155<779 875.5>
VStem: 187 203 1075 203
LayerCount: 2
Fore
SplineSet
608 -31 m 0
 448 -31 332 25 259 136 c 0
 187 248 169 389 205 559 c 0
 242 729 320 870 439 981 c 0
 559 1092 699 1148 859 1148 c 0
 1018 1148 1134 1092 1206 981 c 0
 1279 870 1297 729 1260 559 c 0
 1224 389 1146 248 1026 136 c 0
 907 25 767 -31 608 -31 c 0
641 124 m 0
 740 124 827 163 902 240 c 0
 977 317 1029 424 1058 559 c 0
 1087 694 1080 800 1038 877 c 0
 996 954 925 993 826 993 c 0
 726 993 638 954 563 877 c 0
 488 800 436 694 407 559 c 0
 378 424 385 317 427 240 c 0
 470 163 541 124 641 124 c 0
918 1614 m 1
 1144 1288 l 1
 974 1288 l 1
 702 1614 l 1
 918 1614 l 1
EndSplineSet
EndChar

StartChar: oacute
Encoding: 243 243 181
Width: 1229
Flags: MW
HStem: -31 155<591 687.5> 993 155<779 875.5>
VStem: 187 203 1075 203
LayerCount: 2
Fore
SplineSet
608 -31 m 0
 448 -31 332 25 259 136 c 0
 187 248 169 389 205 559 c 0
 242 729 320 870 439 981 c 0
 559 1092 699 1148 859 1148 c 0
 1018 1148 1134 1092 1206 981 c 0
 1279 870 1297 729 1260 559 c 0
 1224 389 1146 248 1026 136 c 0
 907 25 767 -31 608 -31 c 0
641 124 m 0
 740 124 827 163 902 240 c 0
 977 317 1029 424 1058 559 c 0
 1087 694 1080 800 1038 877 c 0
 996 954 925 993 826 993 c 0
 726 993 638 954 563 877 c 0
 488 800 436 694 407 559 c 0
 378 424 385 317 427 240 c 0
 470 163 541 124 641 124 c 0
802 1288 m 1
 632 1288 l 1
 998 1614 l 1
 1214 1614 l 1
 802 1288 l 1
EndSplineSet
EndChar

StartChar: ocircumflex
Encoding: 244 244 182
Width: 1229
Flags: MW
HStem: -31 155<591 687.5> 993 155<779 875.5>
VStem: 187 203 1075 203
LayerCount: 2
Fore
SplineSet
608 -31 m 0
 448 -31 332 25 259 136 c 0
 187 248 169 389 205 559 c 0
 242 729 320 870 439 981 c 0
 559 1092 699 1148 859 1148 c 0
 1018 1148 1134 1092 1206 981 c 0
 1279 870 1297 729 1260 559 c 0
 1224 389 1146 248 1026 136 c 0
 907 25 767 -31 608 -31 c 0
641 124 m 0
 740 124 827 163 902 240 c 0
 977 317 1029 424 1058 559 c 0
 1087 694 1080 800 1038 877 c 0
 996 954 925 993 826 993 c 0
 726 993 638 954 563 877 c 0
 488 800 436 694 407 559 c 0
 378 424 385 317 427 240 c 0
 470 163 541 124 641 124 c 0
1027 1288 m 1
 924 1456 l 1
 748 1288 l 1
 593 1288 l 1
 896 1614 l 1
 1020 1614 l 1
 1183 1288 l 1
 1027 1288 l 1
EndSplineSet
EndChar

StartChar: otilde
Encoding: 245 245 183
Width: 1229
Flags: MW
HStem: -31 155<591 687.5> 993 155<779 875.5> 1287 140<1046 1061.5> 1404 140<770.5 788.5>
VStem: 187 203 1075 203
LayerCount: 2
Fore
SplineSet
608 -31 m 0xdc
 448 -31 332 25 259 136 c 0
 187 248 169 389 205 559 c 0
 242 729 320 870 439 981 c 0
 559 1092 699 1148 859 1148 c 0
 1018 1148 1134 1092 1206 981 c 0
 1279 870 1297 729 1260 559 c 0
 1224 389 1146 248 1026 136 c 0
 907 25 767 -31 608 -31 c 0xdc
641 124 m 0
 740 124 827 163 902 240 c 0
 977 317 1029 424 1058 559 c 0
 1087 694 1080 800 1038 877 c 0
 996 954 925 993 826 993 c 0
 726 993 638 954 563 877 c 0
 488 800 436 694 407 559 c 0
 378 424 385 317 427 240 c 0
 470 163 541 124 641 124 c 0
687 1288 m 1
 562 1288 l 1
 599 1464 694 1544 798 1544 c 0
 839 1544 878 1531 915 1504 c 2xdc
 952 1479 l 2
 1000 1444 1035 1427 1057 1427 c 0
 1097 1427 1125 1466 1142 1544 c 1
 1269 1544 l 1
 1250 1476 1231 1426 1210 1395 c 0
 1169 1332 1096 1287 1027 1287 c 0
 984 1287 940 1303 896 1336 c 2
 858 1364 l 1xec
 838 1381 l 2
 819 1396 799 1404 778 1404 c 0
 763 1404 747 1396 729 1381 c 0
 711 1366 697 1335 687 1288 c 1
EndSplineSet
EndChar

StartChar: odieresis
Encoding: 246 246 184
Width: 1229
Flags: MW
HStem: -31 155<591 687.5> 993 155<779 875.5>
VStem: 187 203 570 254 1004 255 1075 203
LayerCount: 2
Fore
SplineSet
608 -31 m 0xf4
 448 -31 332 25 259 136 c 0
 187 248 169 389 205 559 c 0
 242 729 320 870 439 981 c 0
 559 1092 699 1148 859 1148 c 0
 1018 1148 1134 1092 1206 981 c 0
 1279 870 1297 729 1260 559 c 0
 1224 389 1146 248 1026 136 c 0
 907 25 767 -31 608 -31 c 0xf4
641 124 m 0
 740 124 827 163 902 240 c 0
 977 317 1029 424 1058 559 c 0
 1087 694 1080 800 1038 877 c 0
 996 954 925 993 826 993 c 0
 726 993 638 954 563 877 c 0
 488 800 436 694 407 559 c 0
 378 424 385 317 427 240 c 0
 470 163 541 124 641 124 c 0
670 1288 m 0
 636 1288 609 1300 590 1324 c 0
 571 1348 566 1377 573 1412 c 0
 580 1447 599 1476 628 1500 c 0
 658 1524 690 1536 723 1536 c 0
 756 1536 783 1524 802 1500 c 0
 822 1476 828 1447 821 1412 c 0
 814 1377 795 1348 765 1324 c 0
 736 1300 704 1288 670 1288 c 0
1105 1288 m 0
 1071 1288 1044 1300 1025 1324 c 0
 1006 1348 1000 1377 1007 1412 c 0
 1014 1447 1033 1476 1063 1500 c 0
 1093 1524 1125 1536 1158 1536 c 0
 1191 1536 1218 1524 1237 1500 c 0
 1257 1476 1263 1447 1256 1412 c 0
 1249 1377 1230 1348 1200 1324 c 0xf8
 1170 1300 1138 1288 1105 1288 c 0
EndSplineSet
EndChar

StartChar: divide
Encoding: 247 247 185
Width: 1229
Flags: MW
HStem: 465 156<202 1255 169 1288>
VStem: 169 1119<465 621>
LayerCount: 2
Fore
SplineSet
778 776 m 0
 740 776 710 790 687 819 c 0
 665 848 658 881 666 919 c 0
 674 958 695 991 730 1020 c 0
 765 1049 801 1063 839 1063 c 0
 877 1063 907 1049 930 1020 c 0
 953 991 961 958 953 919 c 0
 945 881 923 848 888 819 c 0
 853 790 816 776 778 776 c 0
202 621 m 1
 1288 621 l 1
 1255 465 l 1
 169 465 l 1
 202 621 l 1
618 23 m 0
 580 23 550 37 527 66 c 0
 505 95 498 128 506 167 c 0
 514 206 535 239 570 267 c 0
 605 296 641 310 679 310 c 0
 717 310 747 296 770 267 c 0
 793 239 801 206 793 167 c 0
 785 128 763 95 728 66 c 0
 693 37 656 23 618 23 c 0
EndSplineSet
EndChar

StartChar: oslash
Encoding: 248 248 186
Width: 1229
Flags: MW
HStem: -31 155<602.5 692 602.5 695> 993 155<773 859.5>
VStem: 190 200 1077 200
LayerCount: 2
Fore
SplineSet
341 44 m 1
 216 -93 l 1
 67 -93 l 1
 264 128 l 1
 191 254 171 399 206 564 c 0
 241 726 315 864 429 977 c 0
 544 1091 686 1148 857 1148 c 0
 890 1148 923 1146 955 1141 c 0
 988 1136 1016 1130 1040 1121 c 0
 1065 1112 1093 1097 1126 1075 c 1
 1249 1210 l 1
 1399 1210 l 1
 1204 995 l 1
 1276 866 1295 721 1260 559 c 0
 1227 401 1153 263 1040 145 c 0
 927 28 783 -31 607 -31 c 0
 565 -31 524 -27 485 -20 c 0
 446 -13 398 8 341 44 c 1
400 280 m 1
 1005 943 l 1
 953 976 893 993 826 993 c 0
 720 993 631 954 558 877 c 0
 486 800 436 696 408 564 c 0
 387 464 384 369 400 280 c 1
1068 845 m 1
 461 177 l 1
 518 142 574 124 631 124 c 0
 753 124 848 165 916 246 c 0
 984 328 1031 431 1057 554 c 0
 1080 661 1083 758 1068 845 c 1
EndSplineSet
EndChar

StartChar: ugrave
Encoding: 249 249 187
Width: 1229
Flags: MW
HStem: -31 171<488 534.5> 0 21G<888 1074 888 888> 1097 20G<380 566 566 566 1125 1311 1311 1311>
VStem: 205 193
LayerCount: 2
Fore
SplineSet
1125 1117 m 1x70
 1311 1117 l 1
 1074 0 l 1
 888 0 l 1x70
 940 245 l 1
 780 61 608 -31 461 -31 c 0
 396 -31 339 -14 292 21 c 0
 245 56 217 102 208 159 c 0
 199 216 212 328 247 493 c 2
 380 1117 l 1
 566 1117 l 1
 428 470 l 2
 405 363 395 292 398 257 c 0
 405 189 456 140 520 140 c 0
 585 140 662 171 750 232 c 0xb0
 839 294 918 372 987 466 c 1
 1125 1117 l 1x70
919 1614 m 1
 1145 1288 l 1
 975 1288 l 1
 703 1614 l 1
 919 1614 l 1
EndSplineSet
EndChar

StartChar: uacute
Encoding: 250 250 188
Width: 1229
Flags: MW
HStem: -31 171<488 534.5> 0 21G<888 1074 888 888> 1097 20G<380 566 566 566 1125 1311 1311 1311>
VStem: 205 193
LayerCount: 2
Fore
SplineSet
1125 1117 m 1x70
 1311 1117 l 1
 1074 0 l 1
 888 0 l 1x70
 940 245 l 1
 780 61 608 -31 461 -31 c 0
 396 -31 339 -14 292 21 c 0
 245 56 217 102 208 159 c 0
 199 216 212 328 247 493 c 2
 380 1117 l 1
 566 1117 l 1
 428 470 l 2
 405 363 395 292 398 257 c 0
 405 189 456 140 520 140 c 0
 585 140 662 171 750 232 c 0xb0
 839 294 918 372 987 466 c 1
 1125 1117 l 1x70
850 1288 m 1
 680 1288 l 1
 1046 1614 l 1
 1262 1614 l 1
 850 1288 l 1
EndSplineSet
EndChar

StartChar: ucircumflex
Encoding: 251 251 189
Width: 1229
Flags: MW
HStem: -31 171<488 534.5> 0 21G<888 1074 888 888> 1097 20G<380 566 566 566 1125 1311 1311 1311>
VStem: 205 193
LayerCount: 2
Fore
SplineSet
1125 1117 m 1x70
 1311 1117 l 1
 1074 0 l 1
 888 0 l 1x70
 940 245 l 1
 780 61 608 -31 461 -31 c 0
 396 -31 339 -14 292 21 c 0
 245 56 217 102 208 159 c 0
 199 216 212 328 247 493 c 2
 380 1117 l 1
 566 1117 l 1
 428 470 l 2
 405 363 395 292 398 257 c 0
 405 189 456 140 520 140 c 0
 585 140 662 171 750 232 c 0xb0
 839 294 918 372 987 466 c 1
 1125 1117 l 1x70
1029 1288 m 1
 926 1456 l 1
 750 1288 l 1
 595 1288 l 1
 898 1614 l 1
 1022 1614 l 1
 1185 1288 l 1
 1029 1288 l 1
EndSplineSet
EndChar

StartChar: udieresis
Encoding: 252 252 190
Width: 1229
Flags: MW
HStem: -31 171<488 534.5> 0 21G<888 1074 888 888> 1097 20G<380 566 566 566 1125 1311 1311 1311>
VStem: 205 193 572 254 1006 255
LayerCount: 2
Fore
SplineSet
1125 1117 m 1x70
 1311 1117 l 1
 1074 0 l 1
 888 0 l 1x7c
 940 245 l 1
 780 61 608 -31 461 -31 c 0
 396 -31 339 -14 292 21 c 0
 245 56 217 102 208 159 c 0
 199 216 212 328 247 493 c 2
 380 1117 l 1
 566 1117 l 1
 428 470 l 2
 405 363 395 292 398 257 c 0
 405 189 456 140 520 140 c 0
 585 140 662 171 750 232 c 0xb0
 839 294 918 372 987 466 c 1
 1125 1117 l 1x70
672 1288 m 0
 638 1288 611 1300 592 1324 c 0
 573 1348 568 1377 575 1412 c 0
 582 1447 601 1476 630 1500 c 0
 660 1524 692 1536 725 1536 c 0
 758 1536 785 1524 804 1500 c 0
 824 1476 830 1447 823 1412 c 0
 816 1377 797 1348 767 1324 c 0
 738 1300 706 1288 672 1288 c 0
1107 1288 m 0
 1073 1288 1046 1300 1027 1324 c 0
 1008 1348 1002 1377 1009 1412 c 0
 1016 1447 1035 1476 1065 1500 c 0
 1095 1524 1127 1536 1160 1536 c 0
 1193 1536 1220 1524 1239 1500 c 0
 1259 1476 1265 1447 1258 1412 c 0
 1251 1377 1232 1348 1202 1324 c 0
 1172 1300 1140 1288 1107 1288 c 0
EndSplineSet
EndChar

StartChar: yacute
Encoding: 253 253 191
Width: 1229
Flags: MW
HStem: -466 155<105.5 159 105.5 166.5> -451 21G<-46 -46> 1097 20G<304 509 509 509 1264 1451 1451 1451>
VStem: -46 1497
LayerCount: 2
Fore
SplineSet
566 2 m 2xb0
 592 45 l 1
 304 1117 l 1
 509 1117 l 1
 742 279 l 1
 1264 1117 l 1
 1451 1117 l 1
 797 79 l 2
 659 -140 541 -286 443 -358 c 0
 346 -430 232 -466 101 -466 c 0xb0
 45 -466 -4 -461 -46 -451 c 1x70
 -12 -287 l 1
 35 -303 82 -311 129 -311 c 0
 189 -311 245 -299 296 -276 c 0
 348 -253 400 -211 451 -152 c 0
 502 -93 541 -41 566 2 c 2xb0
896 1288 m 1
 726 1288 l 1
 1092 1614 l 1
 1308 1614 l 1
 896 1288 l 1
EndSplineSet
EndChar

StartChar: thorn
Encoding: 254 254 192
Width: 1229
Flags: MW
HStem: -434 21G<44 230 44 44> -16 156<509.5 594.5 509.5 621.5> -5 21G<369 369> 0 21G<323 323> 970 178<880 1037.5> 1128 20G<957.5 1037.5> 1532 20G<466 652 652 652>
VStem: 1059 212
LayerCount: 2
Fore
SplineSet
652 1552 m 1xc7
 507 866 l 1
 584 959 667 1030 756 1077 c 0
 846 1124 924 1148 991 1148 c 0
 1084 1148 1160 1108 1217 1027 c 0
 1274 946 1286 824 1251 660 c 0
 1210 467 1120 304 981 172 c 0
 852 49 716 -16 527 -16 c 0xc7
 492 -16 440 -12 369 -5 c 2xa7
 323 0 l 1x97
 230 -434 l 1
 44 -434 l 1
 466 1552 l 1
 652 1552 l 1xc7
460 645 m 1
 358 166 l 1
 421 149 481 140 538 140 c 0
 651 140 755 184 851 272 c 0
 947 361 1011 482 1043 635 c 0
 1067 746 1064 830 1034 886 c 0
 1004 942 962 970 909 970 c 0
 851 970 781 941 698 882 c 0xcb
 616 823 537 744 460 645 c 1
EndSplineSet
EndChar

StartChar: ydieresis
Encoding: 255 255 193
Width: 1229
Flags: MW
HStem: -466 155<105.5 159 105.5 166.5> -451 21G<-46 -46> 1097 20G<304 509 509 509 1264 1451 1451 1451>
VStem: -46 1497 618 254 1052 255
LayerCount: 2
Fore
SplineSet
566 2 m 2xb0
 592 45 l 1
 304 1117 l 1
 509 1117 l 1
 742 279 l 1
 1264 1117 l 1
 1451 1117 l 1
 797 79 l 2
 659 -140 541 -286 443 -358 c 0
 346 -430 232 -466 101 -466 c 0xb0
 45 -466 -4 -461 -46 -451 c 1x70
 -12 -287 l 1
 35 -303 82 -311 129 -311 c 0
 189 -311 245 -299 296 -276 c 0
 348 -253 400 -211 451 -152 c 0
 502 -93 541 -41 566 2 c 2xb0
718 1288 m 0
 684 1288 657 1300 638 1324 c 0
 619 1348 614 1377 621 1412 c 0
 628 1447 647 1476 676 1500 c 0
 706 1524 738 1536 771 1536 c 0
 804 1536 831 1524 850 1500 c 0
 870 1476 876 1447 869 1412 c 0
 862 1377 843 1348 813 1324 c 0xa8
 784 1300 752 1288 718 1288 c 0
1153 1288 m 0
 1119 1288 1092 1300 1073 1324 c 0
 1054 1348 1048 1377 1055 1412 c 0
 1062 1447 1081 1476 1111 1500 c 0
 1141 1524 1173 1536 1206 1536 c 0
 1239 1536 1266 1524 1285 1500 c 0
 1305 1476 1311 1447 1304 1412 c 0
 1297 1377 1278 1348 1248 1324 c 0xa4
 1218 1300 1186 1288 1153 1288 c 0
EndSplineSet
EndChar

StartChar: Amacron
Encoding: 256 256 194
Width: 1229
Flags: MW
HStem: 0 21G<33 227 33 33 984 984 984 1197> 341 155<404 938 485 938 485 950> 1532 20G<840 1045 1045 1045> 1654 124<713 1245 686 1272>
VStem: 33 1239
LayerCount: 2
Fore
SplineSet
404 341 m 1
 227 0 l 1
 33 0 l 1
 840 1552 l 1
 1045 1552 l 1
 1197 0 l 1
 984 0 l 1
 950 341 l 1
 404 341 l 1
793 1085 m 1
 485 496 l 1
 938 496 l 1
 876 1085 l 1
 865 1241 l 1
 793 1085 l 1
1245 1654 m 1
 686 1654 l 1
 713 1778 l 1
 1272 1778 l 1
 1245 1654 l 1
EndSplineSet
EndChar

StartChar: amacron
Encoding: 257 257 195
Width: 1229
Flags: MW
HStem: -31 21G<411.5 491.5> -31 178<411.5 569> 0 21G<924 1118 924 924> 977 156<854.5 938.5 799 940.5> 1097 20G<1126 1313 1313 1313> 1243 124<626 1158 599 1185>
VStem: 179 212 924 190
LayerCount: 2
Fore
SplineSet
942 251 m 1xb7
 865 158 782 87 692 40 c 0
 603 -7 525 -31 458 -31 c 0
 365 -31 289 9 232 90 c 0
 175 171 164 293 199 457 c 0
 226 586 275 702 346 803 c 0
 489 1007 677 1133 921 1133 c 0xb7
 956 1133 1009 1129 1079 1122 c 2
 1126 1117 l 1
 1313 1117 l 1xaf
 1145 328 l 2
 1116 193 1107 84 1118 0 c 1
 924 0 l 1
 922 61 928 145 942 251 c 1xb7
989 472 m 1
 1091 951 l 1
 1028 968 969 977 912 977 c 0
 797 977 692 933 597 844 c 0
 502 755 439 635 406 482 c 0
 383 371 386 288 415 231 c 0
 445 175 487 147 540 147 c 0
 598 147 668 176 750 235 c 0x57
 833 294 912 373 989 472 c 1
1158 1243 m 1
 599 1243 l 1
 626 1367 l 1
 1185 1367 l 1
 1158 1243 l 1
EndSplineSet
EndChar

StartChar: Abreve
Encoding: 258 258 196
Width: 1229
Flags: MW
HStem: 0 21G<33 227 33 33 984 984 984 1197> 341 155<404 938 485 938 485 950> 1532 20G<840 1045 1045 1045> 1654 132<973.5 1010.5>
VStem: 737 131
LayerCount: 2
Fore
SplineSet
404 341 m 1
 227 0 l 1
 33 0 l 1
 840 1552 l 1
 1045 1552 l 1
 1197 0 l 1
 984 0 l 1
 950 341 l 1
 404 341 l 1
793 1085 m 1
 485 496 l 1
 938 496 l 1
 876 1085 l 1
 865 1241 l 1
 793 1085 l 1
740 1980 m 1
 868 1980 l 1
 863 1929 872 1883 896 1844 c 0
 921 1805 953 1786 994 1786 c 0
 1035 1786 1075 1806 1116 1845 c 0
 1157 1885 1185 1930 1202 1980 c 1
 1330 1980 l 1
 1306 1906 1274 1846 1235 1800 c 0
 1156 1709 1055 1654 966 1654 c 0
 921 1654 881 1667 844 1693 c 0
 771 1745 725 1832 740 1980 c 1
EndSplineSet
EndChar

StartChar: abreve
Encoding: 259 259 197
Width: 1229
Flags: MW
HStem: -31 21G<411.5 491.5> -31 178<411.5 569> 0 21G<924 1118 924 924> 977 156<854.5 938.5 799 940.5> 1097 20G<1126 1313 1313 1313> 1243 132<887.5 924.5> 1549 20G<654 782 782 782 1116 1244 1244 1244>
VStem: 179 212 651 131 924 190
LayerCount: 2
Fore
SplineSet
942 251 m 1xb7c0
 865 158 782 87 692 40 c 0
 603 -7 525 -31 458 -31 c 0
 365 -31 289 9 232 90 c 0
 175 171 164 293 199 457 c 0
 226 586 275 702 346 803 c 0
 489 1007 677 1133 921 1133 c 0xb7c0
 956 1133 1009 1129 1079 1122 c 2
 1126 1117 l 1
 1313 1117 l 1xafc0
 1145 328 l 2
 1116 193 1107 84 1118 0 c 1
 924 0 l 1
 922 61 928 145 942 251 c 1xb7c0
989 472 m 1
 1091 951 l 1
 1028 968 969 977 912 977 c 0
 797 977 692 933 597 844 c 0
 502 755 439 635 406 482 c 0
 383 371 386 288 415 231 c 0
 445 175 487 147 540 147 c 0
 598 147 668 176 750 235 c 0x57c0
 833 294 912 373 989 472 c 1
654 1569 m 1
 782 1569 l 1
 777 1518 786 1472 810 1433 c 0
 835 1394 867 1375 908 1375 c 0
 949 1375 989 1395 1030 1434 c 0
 1071 1474 1099 1519 1116 1569 c 1
 1244 1569 l 1
 1220 1495 1188 1435 1149 1389 c 0
 1070 1298 969 1243 880 1243 c 0
 835 1243 795 1256 758 1282 c 0
 685 1334 639 1421 654 1569 c 1
EndSplineSet
EndChar

StartChar: Aogonek
Encoding: 260 260 198
Width: 1229
Flags: MW
HStem: -424 107<948 1060.5> 0 10<1006 1197> 341 155<404 938 485 938 485 950> 1532 20G<840 1045 1045 1045>
VStem: 799 246 840 106
LayerCount: 2
Fore
SplineSet
404 341 m 1xf8
 227 0 l 1
 33 0 l 1
 840 1552 l 1xf4
 1045 1552 l 1
 1197 0 l 1
 984 0 l 1
 950 341 l 1
 404 341 l 1xf8
793 1085 m 1
 485 496 l 1
 938 496 l 1
 876 1085 l 1
 865 1241 l 1
 793 1085 l 1
1006 10 m 1
 1199 10 l 1
 1133 -18 1076 -57 1028 -107 c 0
 981 -157 953 -198 946 -230 c 0
 942 -251 947 -270 962 -289 c 0xf4
 977 -308 1006 -317 1049 -317 c 0
 1072 -317 1100 -311 1133 -298 c 1
 1112 -395 l 1
 1064 -414 1020 -424 979 -424 c 0
 917 -424 869 -407 836 -374 c 0
 803 -341 792 -298 803 -247 c 0xf8
 820 -166 888 -81 1006 10 c 1
EndSplineSet
EndChar

StartChar: aogonek
Encoding: 261 261 199
Width: 1229
Flags: MW
HStem: -425 107<868 980.5> -31 21G<411.5 491.5> -31 178<411.5 569> 0 9<926 1118 924 1119> 977 156<854.5 938.5 799 940.5> 1097 20G<1126 1313 1313 1313>
VStem: 179 212 719 147 924 190
LayerCount: 2
Fore
SplineSet
942 251 m 1xdb80
 865 158 782 87 692 40 c 0
 603 -7 525 -31 458 -31 c 0
 365 -31 289 9 232 90 c 0
 175 171 164 293 199 457 c 0
 226 586 275 702 346 803 c 0
 489 1007 677 1133 921 1133 c 0xdb80
 956 1133 1009 1129 1079 1122 c 2
 1126 1117 l 1
 1313 1117 l 1xd780
 1145 328 l 2
 1116 193 1107 84 1118 0 c 1
 924 0 l 1
 922 61 928 145 942 251 c 1xdb80
989 472 m 1
 1091 951 l 1
 1028 968 969 977 912 977 c 0
 797 977 692 933 597 844 c 0
 502 755 439 635 406 482 c 0
 383 371 386 288 415 231 c 0
 445 175 487 147 540 147 c 0
 598 147 668 176 750 235 c 0xab80
 833 294 912 373 989 472 c 1
926 9 m 1xdb80
 1119 9 l 1
 1053 -19 996 -58 948 -108 c 0
 901 -158 873 -199 866 -231 c 0
 862 -252 867 -271 882 -290 c 0
 897 -309 926 -318 969 -318 c 0
 992 -318 1020 -312 1053 -299 c 1
 1032 -396 l 1
 984 -415 940 -425 899 -425 c 0
 837 -425 789 -408 756 -375 c 0
 723 -342 712 -299 723 -248 c 0
 740 -167 808 -82 926 9 c 1xdb80
EndSplineSet
EndChar

StartChar: Cacute
Encoding: 262 262 200
Width: 1229
Flags: MW
HStem: -47 155<710.5 812> 1443 156<1053.5 1127>
VStem: 255 213
LayerCount: 2
Fore
SplineSet
1130 201 m 1
 1091 18 l 1
 966 -25 858 -47 766 -47 c 0
 645 -47 540 -15 451 50 c 0
 363 115 304 212 275 340 c 0
 246 469 248 614 282 776 c 0
 317 937 375 1081 458 1209 c 0
 541 1337 641 1434 757 1500 c 0
 873 1566 992 1599 1115 1599 c 0
 1207 1599 1307 1577 1414 1534 c 1
 1374 1350 l 1
 1280 1412 1180 1443 1074 1443 c 0
 994 1443 915 1416 837 1361 c 0
 759 1306 688 1226 625 1120 c 0
 562 1015 518 900 491 776 c 0
 464 650 461 534 480 427 c 0
 519 214 631 108 790 108 c 0
 895 108 1009 139 1130 201 c 1
1076 1722 m 1
 906 1722 l 1
 1272 2048 l 1
 1488 2048 l 1
 1076 1722 l 1
EndSplineSet
EndChar

StartChar: cacute
Encoding: 263 263 201
Width: 1229
Flags: MW
HStem: -31 171<732 788.5> 993 155<923 1008.5>
VStem: 266 209
LayerCount: 2
Fore
SplineSet
1139 211 m 1
 1101 32 l 1
 968 -10 845 -31 732 -31 c 0
 397 -33 207 224 282 558 c 0
 318 727 403 868 537 980 c 0
 672 1092 817 1148 973 1148 c 0
 1088 1148 1206 1126 1325 1083 c 1
 1287 904 l 1
 1170 963 1060 993 957 993 c 0
 889 993 821 976 754 942 c 0
 687 909 629 856 581 785 c 0
 534 714 502 640 486 565 c 0
 464 464 475 368 518 277 c 0
 562 186 651 140 786 140 c 0
 827 140 867 143 908 148 c 0
 949 154 1026 175 1139 211 c 1
937 1288 m 1
 767 1288 l 1
 1133 1614 l 1
 1349 1614 l 1
 937 1288 l 1
EndSplineSet
EndChar

StartChar: Ccircumflex
Encoding: 264 264 202
Width: 1229
Flags: MW
HStem: -47 155<710.5 812> 1443 156<1053.5 1127>
VStem: 255 213
LayerCount: 2
Fore
SplineSet
1130 201 m 1
 1091 18 l 1
 966 -25 858 -47 766 -47 c 0
 645 -47 540 -15 451 50 c 0
 363 115 304 212 275 340 c 0
 246 469 248 614 282 776 c 0
 317 937 375 1081 458 1209 c 0
 541 1337 641 1434 757 1500 c 0
 873 1566 992 1599 1115 1599 c 0
 1207 1599 1307 1577 1414 1534 c 1
 1374 1350 l 1
 1280 1412 1180 1443 1074 1443 c 0
 994 1443 915 1416 837 1361 c 0
 759 1306 688 1226 625 1120 c 0
 562 1015 518 900 491 776 c 0
 464 650 461 534 480 427 c 0
 519 214 631 108 790 108 c 0
 895 108 1009 139 1130 201 c 1
1212 1701 m 1
 1109 1869 l 1
 933 1701 l 1
 778 1701 l 1
 1081 2027 l 1
 1205 2027 l 1
 1368 1701 l 1
 1212 1701 l 1
EndSplineSet
EndChar

StartChar: ccircumflex
Encoding: 265 265 203
Width: 1229
Flags: MW
HStem: -31 171<732 788.5> 993 155<923 1008.5> 1564 20G<953 1077 1077 1077>
VStem: 266 209
LayerCount: 2
Fore
SplineSet
1139 211 m 1
 1101 32 l 1
 968 -10 845 -31 732 -31 c 0
 397 -33 207 224 282 558 c 0
 318 727 403 868 537 980 c 0
 672 1092 817 1148 973 1148 c 0
 1088 1148 1206 1126 1325 1083 c 1
 1287 904 l 1
 1170 963 1060 993 957 993 c 0
 889 993 821 976 754 942 c 0
 687 909 629 856 581 785 c 0
 534 714 502 640 486 565 c 0
 464 464 475 368 518 277 c 0
 562 186 651 140 786 140 c 0
 827 140 867 143 908 148 c 0
 949 154 1026 175 1139 211 c 1
1084 1258 m 1
 981 1426 l 1
 805 1258 l 1
 650 1258 l 1
 953 1584 l 1
 1077 1584 l 1
 1240 1258 l 1
 1084 1258 l 1
EndSplineSet
EndChar

StartChar: Cdotaccent
Encoding: 266 266 204
Width: 1229
Flags: MW
HStem: -47 155<710.5 812> 1443 156<1053.5 1127>
VStem: 255 213 1130 102
LayerCount: 2
Fore
SplineSet
1130 201 m 1
 1091 18 l 1
 966 -25 858 -47 766 -47 c 0
 645 -47 540 -15 451 50 c 0
 363 115 304 212 275 340 c 0
 246 469 248 614 282 776 c 0
 317 937 375 1081 458 1209 c 0
 541 1337 641 1434 757 1500 c 0
 873 1566 992 1599 1115 1599 c 0
 1207 1599 1307 1577 1414 1534 c 1
 1374 1350 l 1
 1280 1412 1180 1443 1074 1443 c 0
 994 1443 915 1416 837 1361 c 0
 759 1306 688 1226 625 1120 c 0
 562 1015 518 900 491 776 c 0
 464 650 461 534 480 427 c 0
 519 214 631 108 790 108 c 0
 895 108 1009 139 1130 201 c 1
1081 1779 m 0
 1013 1779 969 1833 984 1901 c 0
 991 1935 1010 1964 1039 1988 c 0
 1068 2012 1100 2024 1133 2024 c 0
 1166 2024 1192 2012 1211 1988 c 0
 1230 1964 1236 1935 1229 1901 c 0
 1222 1867 1203 1838 1174 1814 c 0
 1145 1791 1114 1779 1081 1779 c 0
EndSplineSet
EndChar

StartChar: cdotaccent
Encoding: 267 267 205
Width: 1229
Flags: MW
HStem: -31 171<732 788.5> 993 155<923 1008.5> 1561 20G<998.5 1031.5>
VStem: 266 209 863 251
LayerCount: 2
Fore
SplineSet
1139 211 m 1
 1101 32 l 1
 968 -10 845 -31 732 -31 c 0
 397 -33 207 224 282 558 c 0
 318 727 403 868 537 980 c 0
 672 1092 817 1148 973 1148 c 0
 1088 1148 1206 1126 1325 1083 c 1
 1287 904 l 1
 1170 963 1060 993 957 993 c 0
 889 993 821 976 754 942 c 0
 687 909 629 856 581 785 c 0
 534 714 502 640 486 565 c 0
 464 464 475 368 518 277 c 0
 562 186 651 140 786 140 c 0
 827 140 867 143 908 148 c 0
 949 154 1026 175 1139 211 c 1
963 1336 m 0
 895 1336 851 1390 866 1458 c 0
 873 1492 892 1521 921 1545 c 0
 950 1569 982 1581 1015 1581 c 0
 1048 1581 1074 1569 1093 1545 c 0
 1112 1521 1118 1492 1111 1458 c 0
 1104 1424 1085 1395 1056 1371 c 0
 1027 1348 996 1336 963 1336 c 0
EndSplineSet
EndChar

StartChar: Ccaron
Encoding: 268 268 206
Width: 1229
Flags: MW
HStem: -47 155<710.5 812> 1443 156<1053.5 1127>
VStem: 255 213
LayerCount: 2
Fore
SplineSet
1130 201 m 1
 1091 18 l 1
 966 -25 858 -47 766 -47 c 0
 645 -47 540 -15 451 50 c 0
 363 115 304 212 275 340 c 0
 246 469 248 614 282 776 c 0
 317 937 375 1081 458 1209 c 0
 541 1337 641 1434 757 1500 c 0
 873 1566 992 1599 1115 1599 c 0
 1207 1599 1307 1577 1414 1534 c 1
 1374 1350 l 1
 1280 1412 1180 1443 1074 1443 c 0
 994 1443 915 1416 837 1361 c 0
 759 1306 688 1226 625 1120 c 0
 562 1015 518 900 491 776 c 0
 464 650 461 534 480 427 c 0
 519 214 631 108 790 108 c 0
 895 108 1009 139 1130 201 c 1
1045 2048 m 1
 1149 1880 l 1
 1324 2048 l 1
 1480 2048 l 1
 1177 1722 l 1
 1053 1722 l 1
 890 2048 l 1
 1045 2048 l 1
EndSplineSet
EndChar

StartChar: ccaron
Encoding: 269 269 207
Width: 1229
Flags: MW
HStem: -31 171<732 788.5> 993 155<923 1008.5>
VStem: 266 209
LayerCount: 2
Fore
SplineSet
1139 211 m 1
 1101 32 l 1
 968 -10 845 -31 732 -31 c 0
 397 -33 207 224 282 558 c 0
 318 727 403 868 537 980 c 0
 672 1092 817 1148 973 1148 c 0
 1088 1148 1206 1126 1325 1083 c 1
 1287 904 l 1
 1170 963 1060 993 957 993 c 0
 889 993 821 976 754 942 c 0
 687 909 629 856 581 785 c 0
 534 714 502 640 486 565 c 0
 464 464 475 368 518 277 c 0
 562 186 651 140 786 140 c 0
 827 140 867 143 908 148 c 0
 949 154 1026 175 1139 211 c 1
953 1614 m 1
 1057 1446 l 1
 1232 1614 l 1
 1388 1614 l 1
 1085 1288 l 1
 961 1288 l 1
 798 1614 l 1
 953 1614 l 1
EndSplineSet
EndChar

StartChar: Dcaron
Encoding: 270 270 208
Width: 1229
Flags: MW
HStem: 0 171<393 523> 1396 156<653 653 653 804>
VStem: 1151 196
LayerCount: 2
Fore
SplineSet
523 0 m 2
 155 0 l 1
 484 1552 l 1
 852 1552 l 2
 1021 1552 1141 1522 1211 1463 c 0
 1281 1404 1324 1315 1340 1196 c 0
 1356 1077 1347 935 1312 772 c 0
 1279 617 1228 481 1159 364 c 0
 1091 247 1010 157 917 94 c 0
 824 31 692 0 523 0 c 2
653 1396 m 1
 393 171 l 1
 528 171 l 2
 665 171 767 195 836 244 c 0
 905 293 961 360 1004 446 c 0
 1047 533 1085 652 1117 804 c 0
 1149 953 1159 1067 1146 1147 c 0
 1134 1227 1105 1288 1059 1331 c 0
 1014 1374 929 1396 804 1396 c 2
 653 1396 l 1
889 1980 m 1
 993 1812 l 1
 1168 1980 l 1
 1324 1980 l 1
 1021 1654 l 1
 897 1654 l 1
 734 1980 l 1
 889 1980 l 1
EndSplineSet
EndChar

StartChar: dcaron
Encoding: 271 271 209
Width: 1229
Flags: MW
HStem: -31 21G<423.5 503.5> -31 178<423.5 581> 0 21G<901 901 901 1088> 977 156<866.5 950.5 811 952.5> 1097 20G<1138 1138> 1102 20G<1091 1091>
VStem: 191 212
LayerCount: 2
Fore
SplineSet
901 0 m 1xb2
 954 251 l 1
 877 158 794 87 704 40 c 0
 615 -7 537 -31 470 -31 c 0
 377 -31 301 9 244 90 c 0
 187 171 176 293 211 457 c 0
 238 586 287 702 358 803 c 0
 501 1007 689 1133 933 1133 c 0xb2
 968 1133 1021 1129 1091 1122 c 2xa6
 1138 1117 l 1xaa
 1244 1614 l 1
 1431 1614 l 1
 1088 0 l 1
 901 0 l 1xb2
1001 472 m 1
 1103 951 l 1
 1040 968 981 977 924 977 c 0
 809 977 704 933 609 844 c 0
 514 755 451 635 418 482 c 0
 395 371 398 288 427 231 c 0
 457 175 499 147 552 147 c 0
 610 147 680 176 762 235 c 0x52
 845 294 924 373 1001 472 c 1
764 1814 m 1
 868 1646 l 1
 1043 1814 l 1
 1199 1814 l 1
 896 1488 l 1
 772 1488 l 1
 609 1814 l 1
 764 1814 l 1
EndSplineSet
EndChar

StartChar: Dcroat
Encoding: 272 272 210
Width: 1229
Flags: MW
HStem: 0 171<395 530 530 567> 714 155<186 308 153 341 543 758> 1396 156<655 806 655 655>
VStem: 1156 192
LayerCount: 2
Fore
SplineSet
567 0 m 2
 157 0 l 1
 308 714 l 1
 153 714 l 1
 186 869 l 1
 341 869 l 1
 486 1552 l 1
 854 1552 l 2
 1036 1552 1158 1526 1220 1475 c 0
 1282 1424 1322 1334 1339 1207 c 0
 1357 1080 1349 935 1314 772 c 0
 1281 617 1229 479 1158 358 c 0
 1088 237 1010 147 925 88 c 0
 840 29 721 0 567 0 c 2
510 714 m 1
 395 171 l 1
 530 171 l 2
 676 171 779 192 839 234 c 0
 959 319 1055 500 1119 804 c 0
 1151 953 1162 1069 1152 1153 c 0
 1143 1238 1118 1299 1077 1338 c 0
 1037 1377 947 1396 806 1396 c 2
 655 1396 l 1
 543 869 l 1
 791 869 l 1
 758 714 l 1
 510 714 l 1
EndSplineSet
EndChar

StartChar: dslash
Encoding: 273 273 211
Width: 1229
Flags: MW
HStem: -31 21G<427.5 507.5> -31 178<427.5 585> 0 21G<905 905 905 1092> 977 156<870.5 954.5 815 956.5> 1097 20G<1142 1142> 1102 20G<1095 1095> 1257 139<1015 1172 986 1201 1388 1545>
VStem: 195 212
LayerCount: 2
Fore
SplineSet
905 0 m 1xb3
 958 251 l 1
 881 158 798 87 708 40 c 0
 619 -7 541 -31 474 -31 c 0
 381 -31 305 9 248 90 c 0
 191 171 180 293 215 457 c 0
 242 586 291 702 362 803 c 0
 505 1007 693 1133 937 1133 c 0xb3
 972 1133 1025 1129 1095 1122 c 2xa7
 1142 1117 l 1xab
 1172 1257 l 1
 986 1257 l 1
 1015 1396 l 1
 1201 1396 l 1
 1248 1614 l 1
 1435 1614 l 1
 1388 1396 l 1
 1574 1396 l 1
 1545 1257 l 1
 1359 1257 l 1
 1092 0 l 1
 905 0 l 1xb3
1005 472 m 1
 1107 951 l 1
 1044 968 985 977 928 977 c 0
 813 977 708 933 613 844 c 0
 518 755 455 635 422 482 c 0
 399 371 402 288 431 231 c 0
 461 175 503 147 556 147 c 0
 614 147 684 176 766 235 c 0x53
 849 294 928 373 1005 472 c 1
EndSplineSet
EndChar

StartChar: Emacron
Encoding: 274 274 212
Width: 1229
Flags: MW
HStem: 0 171<441 1041> 714 155<589 1114 556 1147> 1396 156<701 1321 701 701> 1754 124<742 1274 715 1301>
VStem: 203 1151
LayerCount: 2
Fore
SplineSet
441 171 m 1
 1077 171 l 1
 1041 0 l 1
 203 0 l 1
 532 1552 l 1
 1354 1552 l 1
 1321 1396 l 1
 701 1396 l 1
 589 869 l 1
 1147 869 l 1
 1114 714 l 1
 556 714 l 1
 441 171 l 1
1274 1754 m 1
 715 1754 l 1
 742 1878 l 1
 1301 1878 l 1
 1274 1754 l 1
EndSplineSet
EndChar

StartChar: emacron
Encoding: 275 275 213
Width: 1229
Flags: MW
HStem: -32 156<644.5 721.5> 528 139<482 1039 482 1212 442 1039> 993 155<854 900.5> 1258 124<669 1201 642 1228>
VStem: 233 197 1055 191
LayerCount: 2
Fore
SplineSet
1135 244 m 1
 1099 74 l 1
 936 3 788 -32 655 -32 c 0
 554 -32 470 -7 401 43 c 0
 332 93 284 164 256 257 c 0
 228 350 225 450 248 556 c 0
 269 658 313 756 378 850 c 0
 443 944 522 1017 615 1069 c 0
 708 1122 804 1148 904 1148 c 0
 1037 1148 1133 1101 1193 1006 c 0
 1253 911 1262 765 1220 568 c 2
 1212 528 l 1
 442 528 l 1
 425 451 426 380 445 316 c 0
 482 188 577 124 712 124 c 0
 832 124 973 164 1135 244 c 1
482 667 m 1
 1039 667 l 1
 1045 694 l 2
 1064 785 1057 858 1024 912 c 0
 991 966 938 993 863 993 c 0
 712 993 571 882 482 667 c 1
1201 1258 m 1
 642 1258 l 1
 669 1382 l 1
 1228 1382 l 1
 1201 1258 l 1
EndSplineSet
EndChar

StartChar: Ebreve
Encoding: 276 276 214
Width: 1229
Flags: MW
HStem: 0 171<441 1041> 714 155<589 1114 556 1147> 1396 156<701 1321 701 701> 1654 132<980.5 1017.5>
VStem: 744 131
LayerCount: 2
Fore
SplineSet
441 171 m 1
 1077 171 l 1
 1041 0 l 1
 203 0 l 1
 532 1552 l 1
 1354 1552 l 1
 1321 1396 l 1
 701 1396 l 1
 589 869 l 1
 1147 869 l 1
 1114 714 l 1
 556 714 l 1
 441 171 l 1
747 1980 m 1
 875 1980 l 1
 870 1929 879 1883 903 1844 c 0
 928 1805 960 1786 1001 1786 c 0
 1042 1786 1082 1806 1123 1845 c 0
 1164 1885 1192 1930 1209 1980 c 1
 1337 1980 l 1
 1313 1906 1281 1846 1242 1800 c 0
 1163 1709 1062 1654 973 1654 c 0
 928 1654 888 1667 851 1693 c 0
 778 1745 732 1832 747 1980 c 1
EndSplineSet
EndChar

StartChar: ebreve
Encoding: 277 277 215
Width: 1229
Flags: MW
HStem: -32 156<644.5 721.5> 528 139<482 1039 482 1212 442 1039> 993 155<854 900.5> 1258 132<939.5 976.5> 1564 20G<706 834 834 834 1168 1296 1296 1296>
VStem: 233 197 703 131 1055 191
LayerCount: 2
Fore
SplineSet
1135 244 m 1
 1099 74 l 1
 936 3 788 -32 655 -32 c 0
 554 -32 470 -7 401 43 c 0
 332 93 284 164 256 257 c 0
 228 350 225 450 248 556 c 0
 269 658 313 756 378 850 c 0
 443 944 522 1017 615 1069 c 0
 708 1122 804 1148 904 1148 c 0
 1037 1148 1133 1101 1193 1006 c 0
 1253 911 1262 765 1220 568 c 2
 1212 528 l 1
 442 528 l 1
 425 451 426 380 445 316 c 0
 482 188 577 124 712 124 c 0
 832 124 973 164 1135 244 c 1
482 667 m 1
 1039 667 l 1
 1045 694 l 2
 1064 785 1057 858 1024 912 c 0
 991 966 938 993 863 993 c 0
 712 993 571 882 482 667 c 1
706 1584 m 1
 834 1584 l 1
 829 1533 838 1487 862 1448 c 0
 887 1409 919 1390 960 1390 c 0
 1001 1390 1041 1410 1082 1449 c 0
 1123 1489 1151 1534 1168 1584 c 1
 1296 1584 l 1
 1272 1510 1240 1450 1201 1404 c 0
 1122 1313 1021 1258 932 1258 c 0
 887 1258 847 1271 810 1297 c 0
 737 1349 691 1436 706 1584 c 1
EndSplineSet
EndChar

StartChar: Edotaccent
Encoding: 278 278 216
Width: 1229
Flags: MW
HStem: 0 171<441 1041> 714 155<589 1114 556 1147> 1396 156<701 1321 701 701>
VStem: 890 151
LayerCount: 2
Fore
SplineSet
441 171 m 1
 1077 171 l 1
 1041 0 l 1
 203 0 l 1
 532 1552 l 1
 1354 1552 l 1
 1321 1396 l 1
 701 1396 l 1
 589 869 l 1
 1147 869 l 1
 1114 714 l 1
 556 714 l 1
 441 171 l 1
990 1732 m 0
 922 1732 878 1786 893 1854 c 0
 900 1888 919 1917 948 1941 c 0
 977 1965 1009 1977 1042 1977 c 0
 1075 1977 1101 1965 1120 1941 c 0
 1139 1917 1145 1888 1138 1854 c 0
 1131 1820 1112 1791 1083 1767 c 0
 1054 1744 1023 1732 990 1732 c 0
EndSplineSet
EndChar

StartChar: edotaccent
Encoding: 279 279 217
Width: 1229
Flags: MW
HStem: -32 156<644.5 721.5> 528 139<482 1039 482 1212 442 1039> 993 155<854 900.5> 1561 20G<984.5 1017.5>
VStem: 233 197 849 251 1055 191
LayerCount: 2
Fore
SplineSet
1135 244 m 1xfa
 1099 74 l 1
 936 3 788 -32 655 -32 c 0
 554 -32 470 -7 401 43 c 0
 332 93 284 164 256 257 c 0
 228 350 225 450 248 556 c 0
 269 658 313 756 378 850 c 0
 443 944 522 1017 615 1069 c 0
 708 1122 804 1148 904 1148 c 0
 1037 1148 1133 1101 1193 1006 c 0
 1253 911 1262 765 1220 568 c 2
 1212 528 l 1
 442 528 l 1
 425 451 426 380 445 316 c 0
 482 188 577 124 712 124 c 0
 832 124 973 164 1135 244 c 1xfa
482 667 m 1
 1039 667 l 1
 1045 694 l 2
 1064 785 1057 858 1024 912 c 0
 991 966 938 993 863 993 c 0
 712 993 571 882 482 667 c 1
949 1336 m 0xfc
 881 1336 837 1390 852 1458 c 0
 859 1492 878 1521 907 1545 c 0
 936 1569 968 1581 1001 1581 c 0
 1034 1581 1060 1569 1079 1545 c 0
 1098 1521 1104 1492 1097 1458 c 0
 1090 1424 1071 1395 1042 1371 c 0
 1013 1348 982 1336 949 1336 c 0xfc
EndSplineSet
EndChar

StartChar: Eogonek
Encoding: 280 280 218
Width: 1229
Flags: MW
HStem: -424 107<544 656.5> 0 10<602 795 602 1041> 0 171<441 1041> 714 155<589 1114 556 1147> 1396 156<701 1321 701 701>
VStem: 395 306 532 10
LayerCount: 2
Fore
SplineSet
441 171 m 1x3c
 1077 171 l 1x3a
 1041 0 l 1
 203 0 l 1
 532 1552 l 1x5a
 1354 1552 l 1
 1321 1396 l 1
 701 1396 l 1
 589 869 l 1
 1147 869 l 1
 1114 714 l 1
 556 714 l 1
 441 171 l 1x3c
602 10 m 1xdc
 795 10 l 1
 729 -18 672 -57 624 -107 c 0
 577 -157 549 -198 542 -230 c 0
 538 -251 543 -270 558 -289 c 0xda
 573 -308 602 -317 645 -317 c 0
 668 -317 696 -311 729 -298 c 1
 708 -395 l 1
 660 -414 616 -424 575 -424 c 0
 513 -424 465 -407 432 -374 c 0
 399 -341 388 -298 399 -247 c 0
 416 -166 484 -81 602 10 c 1xdc
EndSplineSet
EndChar

StartChar: eogonek
Encoding: 281 281 219
Width: 1229
Flags: MW
HStem: -434 21G<552 603.5> -434 107<552 664.5> -32 32<610 721.5> 528 139<482 1039 482 1212 442 1039> 993 155<854 900.5>
VStem: 233 197 403 147 1055 191
LayerCount: 2
Fore
SplineSet
1135 244 m 1xbd
 1099 74 l 1
 936 3 788 -32 655 -32 c 0
 554 -32 470 -7 401 43 c 0
 332 93 284 164 256 257 c 0
 228 350 225 450 248 556 c 0
 269 658 313 756 378 850 c 0
 443 944 522 1017 615 1069 c 0
 708 1122 804 1148 904 1148 c 0
 1037 1148 1133 1101 1193 1006 c 0
 1253 911 1262 765 1220 568 c 2
 1212 528 l 1
 442 528 l 1
 425 451 426 380 445 316 c 0
 482 188 577 124 712 124 c 0
 832 124 973 164 1135 244 c 1xbd
482 667 m 1
 1039 667 l 1
 1045 694 l 2
 1064 785 1057 858 1024 912 c 0
 991 966 938 993 863 993 c 0
 712 993 571 882 482 667 c 1
610 0 m 1
 803 0 l 1
 737 -28 680 -67 632 -117 c 0
 585 -167 557 -208 550 -240 c 0
 546 -261 551 -280 566 -299 c 0
 581 -318 610 -327 653 -327 c 0
 676 -327 704 -321 737 -308 c 1x7b
 716 -405 l 1
 668 -424 624 -434 583 -434 c 0
 521 -434 473 -417 440 -384 c 0
 407 -351 396 -308 407 -257 c 0xbb
 424 -176 492 -91 610 0 c 1
EndSplineSet
EndChar

StartChar: Ecaron
Encoding: 282 282 220
Width: 1229
Flags: MW
HStem: 0 171<441 1041> 714 155<589 1114 556 1147> 1396 156<701 1321 701 701>
VStem: 203 1151
LayerCount: 2
Fore
SplineSet
441 171 m 1
 1077 171 l 1
 1041 0 l 1
 203 0 l 1
 532 1552 l 1
 1354 1552 l 1
 1321 1396 l 1
 701 1396 l 1
 589 869 l 1
 1147 869 l 1
 1114 714 l 1
 556 714 l 1
 441 171 l 1
902 1980 m 1
 1006 1812 l 1
 1181 1980 l 1
 1337 1980 l 1
 1034 1654 l 1
 910 1654 l 1
 747 1980 l 1
 902 1980 l 1
EndSplineSet
EndChar

StartChar: ecaron
Encoding: 283 283 221
Width: 1229
Flags: MW
HStem: -32 156<644.5 721.5> 528 139<482 1039 482 1212 442 1039> 993 155<854 900.5> 1564 20G<706 861 861 861 1140 1296 1296 1296>
VStem: 233 197 1055 191
LayerCount: 2
Fore
SplineSet
1135 244 m 1
 1099 74 l 1
 936 3 788 -32 655 -32 c 0
 554 -32 470 -7 401 43 c 0
 332 93 284 164 256 257 c 0
 228 350 225 450 248 556 c 0
 269 658 313 756 378 850 c 0
 443 944 522 1017 615 1069 c 0
 708 1122 804 1148 904 1148 c 0
 1037 1148 1133 1101 1193 1006 c 0
 1253 911 1262 765 1220 568 c 2
 1212 528 l 1
 442 528 l 1
 425 451 426 380 445 316 c 0
 482 188 577 124 712 124 c 0
 832 124 973 164 1135 244 c 1
482 667 m 1
 1039 667 l 1
 1045 694 l 2
 1064 785 1057 858 1024 912 c 0
 991 966 938 993 863 993 c 0
 712 993 571 882 482 667 c 1
861 1584 m 1
 965 1416 l 1
 1140 1584 l 1
 1296 1584 l 1
 993 1258 l 1
 869 1258 l 1
 706 1584 l 1
 861 1584 l 1
EndSplineSet
EndChar

StartChar: Gcircumflex
Encoding: 284 284 222
Width: 1229
Flags: MW
HStem: -47 155<744.5 822.5> 613 155<894 1016 861 1251> 1443 156<1053 1126>
VStem: 255 213
LayerCount: 2
Fore
SplineSet
1251 768 m 1
 1088 1 l 1
 972 -31 868 -47 777 -47 c 0
 648 -47 539 -15 451 49 c 0
 364 113 305 209 275 338 c 0
 246 467 248 613 282 776 c 0
 317 937 375 1081 458 1209 c 0
 541 1337 641 1434 757 1500 c 0
 873 1566 992 1599 1114 1599 c 0
 1206 1599 1306 1577 1413 1534 c 1
 1373 1350 l 1
 1279 1412 1179 1443 1073 1443 c 0
 993 1443 914 1416 836 1361 c 0
 758 1306 688 1226 625 1120 c 0
 562 1015 518 899 491 774 c 0
 455 606 461 453 508 315 c 0
 555 177 662 108 827 108 c 0
 848 108 876 110 910 113 c 1
 1016 613 l 1
 861 613 l 1
 894 768 l 1
 1251 768 l 1
1202 1701 m 1
 1099 1869 l 1
 923 1701 l 1
 768 1701 l 1
 1071 2027 l 1
 1195 2027 l 1
 1358 1701 l 1
 1202 1701 l 1
EndSplineSet
EndChar

StartChar: gcircumflex
Encoding: 285 285 223
Width: 1229
Flags: MW
HStem: -465 155<434 497.5> -31 21G<423.5 503.5> -31 178<423.5 581> 977 156<866.5 950.5 811 952.5> 1097 20G<1138 1325 1325 1325> 1549 20G<881 1005 1005 1005>
VStem: 191 212
LayerCount: 2
Fore
SplineSet
920 93 m 2xd6
 954 251 l 1
 877 158 794 87 704 40 c 0
 615 -7 537 -31 470 -31 c 0
 377 -31 301 9 244 90 c 0
 187 171 176 293 211 457 c 0
 238 586 287 702 358 803 c 0
 501 1007 689 1133 933 1133 c 0xd6
 968 1133 1021 1129 1091 1122 c 2
 1138 1117 l 1
 1325 1117 l 1xce
 1157 327 l 2
 1117 139 1090 24 1076 -17 c 0
 1062 -59 1045 -101 1025 -144 c 0
 977 -243 899 -322 792 -379 c 0
 685 -436 565 -465 430 -465 c 0
 295 -465 165 -430 41 -361 c 1
 81 -173 l 1
 126 -209 184 -241 255 -268 c 0
 326 -296 398 -310 470 -310 c 0
 583 -310 699 -273 776 -205 c 0
 815 -171 844 -131 865 -86 c 0
 886 -41 904 18 920 93 c 2xd6
1001 472 m 1
 1103 951 l 1
 1040 968 981 977 924 977 c 0
 809 977 704 933 609 844 c 0
 514 755 451 635 418 482 c 0
 395 371 398 288 427 231 c 0
 457 175 499 147 552 147 c 0
 610 147 680 176 762 235 c 0xb6
 845 294 924 373 1001 472 c 1
1012 1243 m 1
 909 1411 l 1
 733 1243 l 1
 578 1243 l 1
 881 1569 l 1
 1005 1569 l 1
 1168 1243 l 1
 1012 1243 l 1
EndSplineSet
EndChar

StartChar: Gbreve
Encoding: 286 286 224
Width: 1229
Flags: MW
HStem: -47 155<744.5 822.5> 613 155<894 1016 861 1251> 1443 156<1053 1126> 1722 132<1131.5 1168.5>
VStem: 255 213 895 131
LayerCount: 2
Fore
SplineSet
1251 768 m 1
 1088 1 l 1
 972 -31 868 -47 777 -47 c 0
 648 -47 539 -15 451 49 c 0
 364 113 305 209 275 338 c 0
 246 467 248 613 282 776 c 0
 317 937 375 1081 458 1209 c 0
 541 1337 641 1434 757 1500 c 0
 873 1566 992 1599 1114 1599 c 0
 1206 1599 1306 1577 1413 1534 c 1
 1373 1350 l 1
 1279 1412 1179 1443 1073 1443 c 0
 993 1443 914 1416 836 1361 c 0
 758 1306 688 1226 625 1120 c 0
 562 1015 518 899 491 774 c 0
 455 606 461 453 508 315 c 0
 555 177 662 108 827 108 c 0
 848 108 876 110 910 113 c 1
 1016 613 l 1
 861 613 l 1
 894 768 l 1
 1251 768 l 1
898 2048 m 1
 1026 2048 l 1
 1021 1997 1030 1951 1054 1912 c 0
 1079 1873 1111 1854 1152 1854 c 0
 1193 1854 1233 1874 1274 1913 c 0
 1315 1953 1343 1998 1360 2048 c 1
 1488 2048 l 1
 1464 1974 1432 1914 1393 1868 c 0
 1314 1777 1213 1722 1124 1722 c 0
 1079 1722 1039 1735 1002 1761 c 0
 929 1813 883 1900 898 2048 c 1
EndSplineSet
EndChar

StartChar: gbreve
Encoding: 287 287 225
Width: 1229
Flags: MW
HStem: -465 155<438 501.5> -31 21G<427.5 507.5> -31 178<427.5 585> 977 156<870.5 954.5 815 956.5> 1097 20G<1142 1329 1329 1329> 1288 132<963.5 1000.5>
VStem: 195 212 727 131
LayerCount: 2
Fore
SplineSet
924 93 m 2xd7
 958 251 l 1
 881 158 798 87 708 40 c 0
 619 -7 541 -31 474 -31 c 0
 381 -31 305 9 248 90 c 0
 191 171 180 293 215 457 c 0
 242 586 291 702 362 803 c 0
 505 1007 693 1133 937 1133 c 0xd7
 972 1133 1025 1129 1095 1122 c 2
 1142 1117 l 1
 1329 1117 l 1xcf
 1161 327 l 2
 1121 139 1094 24 1080 -17 c 0
 1066 -59 1049 -101 1029 -144 c 0
 981 -243 903 -322 796 -379 c 0
 689 -436 569 -465 434 -465 c 0
 299 -465 169 -430 45 -361 c 1
 85 -173 l 1
 130 -209 188 -241 259 -268 c 0
 330 -296 402 -310 474 -310 c 0
 587 -310 703 -273 780 -205 c 0
 819 -171 848 -131 869 -86 c 0
 890 -41 908 18 924 93 c 2xd7
1005 472 m 1
 1107 951 l 1
 1044 968 985 977 928 977 c 0
 813 977 708 933 613 844 c 0
 518 755 455 635 422 482 c 0
 399 371 402 288 431 231 c 0
 461 175 503 147 556 147 c 0
 614 147 684 176 766 235 c 0xb7
 849 294 928 373 1005 472 c 1
730 1614 m 1
 858 1614 l 1
 853 1563 862 1517 886 1478 c 0
 911 1439 943 1420 984 1420 c 0
 1025 1420 1065 1440 1106 1479 c 0
 1147 1519 1175 1564 1192 1614 c 1
 1320 1614 l 1
 1296 1540 1264 1480 1225 1434 c 0
 1146 1343 1045 1288 956 1288 c 0
 911 1288 871 1301 834 1327 c 0
 761 1379 715 1466 730 1614 c 1
EndSplineSet
EndChar

StartChar: Gdotaccent
Encoding: 288 288 226
Width: 1229
Flags: MW
HStem: -47 155<744.5 822.5> 613 155<894 1016 861 1251> 1443 156<1053 1126>
VStem: 255 213 910 322
LayerCount: 2
Fore
SplineSet
1251 768 m 1
 1088 1 l 1
 972 -31 868 -47 777 -47 c 0
 648 -47 539 -15 451 49 c 0
 364 113 305 209 275 338 c 0
 246 467 248 613 282 776 c 0
 317 937 375 1081 458 1209 c 0
 541 1337 641 1434 757 1500 c 0
 873 1566 992 1599 1114 1599 c 0
 1206 1599 1306 1577 1413 1534 c 1
 1373 1350 l 1
 1279 1412 1179 1443 1073 1443 c 0
 993 1443 914 1416 836 1361 c 0
 758 1306 688 1226 625 1120 c 0
 562 1015 518 899 491 774 c 0
 455 606 461 453 508 315 c 0
 555 177 662 108 827 108 c 0
 848 108 876 110 910 113 c 1
 1016 613 l 1
 861 613 l 1
 894 768 l 1
 1251 768 l 1
1081 1779 m 0
 1013 1779 969 1833 984 1901 c 0
 991 1935 1010 1964 1039 1988 c 0
 1068 2012 1100 2024 1133 2024 c 0
 1166 2024 1192 2012 1211 1988 c 0
 1230 1964 1236 1935 1229 1901 c 0
 1222 1867 1203 1838 1174 1814 c 0
 1145 1791 1114 1779 1081 1779 c 0
EndSplineSet
EndChar

StartChar: gdotaccent
Encoding: 289 289 227
Width: 1229
Flags: MW
HStem: -465 155<434 497.5> -31 21G<423.5 503.5> -31 178<423.5 581> 977 156<866.5 950.5 811 952.5> 1097 20G<1138 1325 1325 1325> 1546 20G<987.5 1020.5>
VStem: 191 212 852 251
LayerCount: 2
Fore
SplineSet
920 93 m 2xd6
 954 251 l 1
 877 158 794 87 704 40 c 0
 615 -7 537 -31 470 -31 c 0
 377 -31 301 9 244 90 c 0
 187 171 176 293 211 457 c 0
 238 586 287 702 358 803 c 0
 501 1007 689 1133 933 1133 c 0xd6
 968 1133 1021 1129 1091 1122 c 2
 1138 1117 l 1
 1325 1117 l 1xce
 1157 327 l 2
 1117 139 1090 24 1076 -17 c 0
 1062 -59 1045 -101 1025 -144 c 0
 977 -243 899 -322 792 -379 c 0
 685 -436 565 -465 430 -465 c 0
 295 -465 165 -430 41 -361 c 1
 81 -173 l 1
 126 -209 184 -241 255 -268 c 0
 326 -296 398 -310 470 -310 c 0
 583 -310 699 -273 776 -205 c 0
 815 -171 844 -131 865 -86 c 0
 886 -41 904 18 920 93 c 2xd6
1001 472 m 1
 1103 951 l 1
 1040 968 981 977 924 977 c 0
 809 977 704 933 609 844 c 0
 514 755 451 635 418 482 c 0
 395 371 398 288 427 231 c 0
 457 175 499 147 552 147 c 0
 610 147 680 176 762 235 c 0xb7
 845 294 924 373 1001 472 c 1
952 1321 m 0
 884 1321 840 1375 855 1443 c 0
 862 1477 881 1506 910 1530 c 0
 939 1554 971 1566 1004 1566 c 0
 1037 1566 1063 1554 1082 1530 c 0
 1101 1506 1107 1477 1100 1443 c 0
 1093 1409 1074 1380 1045 1356 c 0
 1016 1333 985 1321 952 1321 c 0
EndSplineSet
EndChar

StartChar: Gcommaaccent
Encoding: 290 290 228
Width: 1229
Flags: MW
HStem: -458 21G<681 701> -47 155<744.5 822.5> 613 155<894 1016 861 1251> 1443 156<1053 1126>
VStem: 255 213 606 231
LayerCount: 2
Fore
SplineSet
1251 768 m 1
 1088 1 l 1
 972 -31 868 -47 777 -47 c 0
 648 -47 539 -15 451 49 c 0
 364 113 305 209 275 338 c 0
 246 467 248 613 282 776 c 0
 317 937 375 1081 458 1209 c 0
 541 1337 641 1434 757 1500 c 0
 873 1566 992 1599 1114 1599 c 0
 1206 1599 1306 1577 1413 1534 c 1
 1373 1350 l 1
 1279 1412 1179 1443 1073 1443 c 0
 993 1443 914 1416 836 1361 c 0
 758 1306 688 1226 625 1120 c 0
 562 1015 518 899 491 774 c 0
 455 606 461 453 508 315 c 0
 555 177 662 108 827 108 c 0
 848 108 876 110 910 113 c 1
 1016 613 l 1
 861 613 l 1
 894 768 l 1
 1251 768 l 1
521 -718 m 1
 539 -637 l 1
 633 -613 676 -558 701 -458 c 1
 661 -458 634 -447 619 -424 c 0
 605 -401 601 -377 606 -351 c 0
 613 -321 629 -296 654 -275 c 0
 680 -254 707 -244 735 -244 c 0
 808 -244 855 -312 832 -420 c 0
 801 -561 676 -698 521 -718 c 1
EndSplineSet
EndChar

StartChar: gcommaaccent
Encoding: 291 291 229
Width: 1229
Flags: MW
HStem: -465 155<434 497.5> -31 21G<423.5 503.5> -31 178<423.5 581> 977 156<866.5 950.5 811 952.5> 1097 20G<1138 1325 1325 1325> 1563 20G<995 1018.5>
VStem: 191 212 838 269
LayerCount: 2
Fore
SplineSet
920 93 m 2xd6
 954 251 l 1
 877 158 794 87 704 40 c 0
 615 -7 537 -31 470 -31 c 0
 377 -31 301 9 244 90 c 0
 187 171 176 293 211 457 c 0
 238 586 287 702 358 803 c 0
 501 1007 689 1133 933 1133 c 0xd6
 968 1133 1021 1129 1091 1122 c 2
 1138 1117 l 1
 1325 1117 l 1xce
 1157 327 l 2
 1117 139 1090 24 1076 -17 c 0
 1062 -59 1045 -101 1025 -144 c 0
 977 -243 899 -322 792 -379 c 0
 685 -436 565 -465 430 -465 c 0
 295 -465 165 -430 41 -361 c 1
 81 -173 l 1
 126 -209 184 -241 255 -268 c 0
 326 -296 398 -310 470 -310 c 0
 583 -310 699 -273 776 -205 c 0
 815 -171 844 -131 865 -86 c 0
 886 -41 904 18 920 93 c 2xd6
1001 472 m 1
 1103 951 l 1
 1040 968 981 977 924 977 c 0
 809 977 704 933 609 844 c 0
 514 755 451 635 418 482 c 0
 395 371 398 288 427 231 c 0
 457 175 499 147 552 147 c 0
 610 147 680 176 762 235 c 0xb7
 845 294 924 373 1001 472 c 1
1203 1884 m 1
 1183 1790 l 1
 1074 1761 1025 1699 995 1583 c 1
 1042 1583 1073 1570 1089 1543 c 0
 1106 1517 1111 1489 1104 1460 c 0
 1097 1425 1078 1395 1049 1371 c 0
 1020 1348 989 1336 956 1336 c 0
 914 1336 882 1354 859 1390 c 0
 836 1427 832 1476 845 1539 c 0
 878 1701 1025 1861 1203 1884 c 1
EndSplineSet
EndChar

StartChar: Hcircumflex
Encoding: 292 292 230
Width: 1229
Flags: MW
HStem: 0 21G<126 328 126 126 902 902 902 1103> 729 155<515 1056 482 1089> 1532 20G<455 657 657 657 1231 1432 1432 1432>
VStem: 126 1306
LayerCount: 2
Fore
SplineSet
328 0 m 1
 126 0 l 1
 455 1552 l 1
 657 1552 l 1
 515 884 l 1
 1089 884 l 1
 1231 1552 l 1
 1432 1552 l 1
 1103 0 l 1
 902 0 l 1
 1056 729 l 1
 482 729 l 1
 328 0 l 1
1104 1654 m 1
 1001 1822 l 1
 825 1654 l 1
 670 1654 l 1
 973 1980 l 1
 1097 1980 l 1
 1260 1654 l 1
 1104 1654 l 1
EndSplineSet
EndChar

StartChar: hcircumflex
Encoding: 293 293 231
Width: 1229
Flags: MW
HStem: 0 21G<155 341 155 155 900 900 900 1086> 977 171<966.5 976.5>
VStem: 1066 195
LayerCount: 2
Fore
SplineSet
341 0 m 1
 155 0 l 1
 498 1614 l 1
 684 1614 l 1
 526 873 l 1
 597 959 676 1026 762 1075 c 0
 848 1124 929 1148 1004 1148 c 0
 1067 1148 1122 1132 1167 1099 c 0
 1212 1067 1240 1028 1251 982 c 0
 1260 947 1264 909 1261 869 c 0
 1259 830 1245 748 1218 624 c 2
 1086 0 l 1
 900 0 l 1
 1037 647 l 2
 1060 754 1069 825 1066 859 c 0
 1061 928 1009 977 944 977 c 0
 879 977 802 946 714 884 c 0
 626 822 548 744 479 651 c 1
 341 0 l 1
1045 1716 m 1
 942 1884 l 1
 766 1716 l 1
 611 1716 l 1
 914 2042 l 1
 1038 2042 l 1
 1201 1716 l 1
 1045 1716 l 1
EndSplineSet
EndChar

StartChar: Hbar
Encoding: 294 294 232
Width: 1229
Flags: MW
HStem: 0 21G<126 328 126 126 902 902 902 1103> 729 155<515 1056 482 1089> 1048 155<326 348 293 381 583 1124 1358 1379> 1532 20G<455 657 657 657 1231 1432 1432 1432>
VStem: 126 1306
LayerCount: 2
Fore
SplineSet
328 0 m 1
 126 0 l 1
 348 1048 l 1
 293 1048 l 1
 326 1203 l 1
 381 1203 l 1
 455 1552 l 1
 657 1552 l 1
 583 1203 l 1
 1157 1203 l 1
 1231 1552 l 1
 1432 1552 l 1
 1358 1203 l 1
 1412 1203 l 1
 1379 1048 l 1
 1325 1048 l 1
 1103 0 l 1
 902 0 l 1
 1056 729 l 1
 482 729 l 1
 328 0 l 1
515 884 m 1
 1089 884 l 1
 1124 1048 l 1
 550 1048 l 1
 515 884 l 1
EndSplineSet
EndChar

StartChar: hbar
Encoding: 295 295 233
Width: 1229
Flags: MW
HStem: 0 21G<155 341 155 155 900 900 900 1086> 977 171<966.5 976.5> 1232 124<330 416 303 443 629 862>
VStem: 1066 195
LayerCount: 2
Fore
SplineSet
341 0 m 1
 155 0 l 1
 416 1232 l 1
 303 1232 l 1
 330 1356 l 1
 443 1356 l 1
 498 1614 l 1
 684 1614 l 1
 629 1356 l 1
 889 1356 l 1
 862 1232 l 1
 602 1232 l 1
 526 873 l 1
 597 959 676 1026 762 1075 c 0
 848 1124 929 1148 1004 1148 c 0
 1067 1148 1122 1132 1167 1099 c 0
 1212 1067 1240 1028 1251 982 c 0
 1260 947 1264 909 1261 869 c 0
 1259 830 1245 748 1218 624 c 2
 1086 0 l 1
 900 0 l 1
 1037 647 l 2
 1060 754 1069 825 1066 859 c 0
 1061 928 1009 977 944 977 c 0
 879 977 802 946 714 884 c 0
 626 822 548 744 479 651 c 1
 341 0 l 1
EndSplineSet
EndChar

StartChar: Itilde
Encoding: 296 296 234
Width: 1229
Flags: MW
HStem: 0 155<204 545 747 1056 172 545> 1396 156<501 809 468 1385 1011 1011 1011 1352> 1654 140<1124 1139.5> 1771 140<848.5 866.5>
VStem: 172 1213
LayerCount: 2
Fore
SplineSet
1056 0 m 1xd8
 172 0 l 1
 204 155 l 1
 545 155 l 1
 809 1396 l 1
 468 1396 l 1
 501 1552 l 1
 1385 1552 l 1
 1352 1396 l 1
 1011 1396 l 1
 747 155 l 1
 1088 155 l 1
 1056 0 l 1xd8
765 1655 m 1
 640 1655 l 1
 677 1831 772 1911 876 1911 c 0
 917 1911 956 1898 993 1871 c 2xd8
 1030 1846 l 2
 1078 1811 1113 1794 1135 1794 c 0
 1175 1794 1203 1833 1220 1911 c 1
 1347 1911 l 1
 1328 1843 1309 1793 1288 1762 c 0
 1247 1699 1174 1654 1105 1654 c 0
 1062 1654 1018 1670 974 1703 c 2
 936 1731 l 1xe8
 916 1748 l 2
 897 1763 877 1771 856 1771 c 0
 841 1771 825 1763 807 1748 c 0
 789 1733 775 1702 765 1655 c 1
EndSplineSet
EndChar

StartChar: itilde
Encoding: 297 297 235
Width: 1229
Flags: MW
HStem: 0 155<685 964> 962 155<394 671 361 890> 1227 140<987 1002.5> 1344 140<711.5 729.5>
VStem: 361 849<962 1484>
LayerCount: 2
Fore
SplineSet
964 0 m 1xd8
 467 0 l 1
 671 962 l 1
 361 962 l 1
 394 1117 l 1
 890 1117 l 1
 685 155 l 1
 996 155 l 1
 964 0 l 1xd8
628 1228 m 1
 503 1228 l 1
 540 1404 635 1484 739 1484 c 0
 780 1484 819 1471 856 1444 c 2xd8
 893 1419 l 2
 941 1384 976 1367 998 1367 c 0
 1038 1367 1066 1406 1083 1484 c 1
 1210 1484 l 1
 1191 1416 1172 1366 1151 1335 c 0
 1110 1272 1037 1227 968 1227 c 0
 925 1227 881 1243 837 1276 c 2
 799 1304 l 1xe8
 779 1321 l 2
 760 1336 740 1344 719 1344 c 0
 704 1344 688 1336 670 1321 c 0
 652 1306 638 1275 628 1228 c 1
EndSplineSet
EndChar

StartChar: Imacron
Encoding: 298 298 236
Width: 1229
Flags: MW
HStem: 0 155<204 545 747 1056 172 545> 1396 156<501 809 468 1385 1011 1011 1011 1352> 1754 124<734 1266 707 1293>
VStem: 172 1213
LayerCount: 2
Fore
SplineSet
1056 0 m 1
 172 0 l 1
 204 155 l 1
 545 155 l 1
 809 1396 l 1
 468 1396 l 1
 501 1552 l 1
 1385 1552 l 1
 1352 1396 l 1
 1011 1396 l 1
 747 155 l 1
 1088 155 l 1
 1056 0 l 1
1266 1754 m 1
 707 1754 l 1
 734 1878 l 1
 1293 1878 l 1
 1266 1754 l 1
EndSplineSet
EndChar

StartChar: imacron
Encoding: 299 299 237
Width: 1229
Flags: MW
HStem: 0 155<685 964> 962 155<394 671 361 890> 1227 124<577 1109 550 1136>
VStem: 361 775<962 1351>
LayerCount: 2
Fore
SplineSet
964 0 m 1
 467 0 l 1
 671 962 l 1
 361 962 l 1
 394 1117 l 1
 890 1117 l 1
 685 155 l 1
 996 155 l 1
 964 0 l 1
1109 1227 m 1
 550 1227 l 1
 577 1351 l 1
 1136 1351 l 1
 1109 1227 l 1
EndSplineSet
EndChar

StartChar: Ibreve
Encoding: 300 300 238
Width: 1229
Flags: MW
HStem: 0 155<204 545 747 1056 172 545> 1396 156<501 809 468 1385 1011 1011 1011 1352> 1654 132<973.5 1010.5>
VStem: 737 10
LayerCount: 2
Fore
SplineSet
1056 0 m 1
 172 0 l 1
 204 155 l 1
 545 155 l 1
 809 1396 l 1
 468 1396 l 1
 501 1552 l 1
 1385 1552 l 1
 1352 1396 l 1
 1011 1396 l 1
 747 155 l 1
 1088 155 l 1
 1056 0 l 1
740 1980 m 1
 868 1980 l 1
 863 1929 872 1883 896 1844 c 0
 921 1805 953 1786 994 1786 c 0
 1035 1786 1075 1806 1116 1845 c 0
 1157 1885 1185 1930 1202 1980 c 1
 1330 1980 l 1
 1306 1906 1274 1846 1235 1800 c 0
 1156 1709 1055 1654 966 1654 c 0
 921 1654 881 1667 844 1693 c 0
 771 1745 725 1832 740 1980 c 1
EndSplineSet
EndChar

StartChar: ibreve
Encoding: 301 301 239
Width: 1229
Flags: MW
HStem: 0 155<685 964> 962 155<394 671 361 890> 1227 132<837.5 874.5> 1533 20G<604 732 732 732 1066 1194 1194 1194>
VStem: 601 131
LayerCount: 2
Fore
SplineSet
964 0 m 1
 467 0 l 1
 671 962 l 1
 361 962 l 1
 394 1117 l 1
 890 1117 l 1
 685 155 l 1
 996 155 l 1
 964 0 l 1
604 1553 m 1
 732 1553 l 1
 727 1502 736 1456 760 1417 c 0
 785 1378 817 1359 858 1359 c 0
 899 1359 939 1379 980 1418 c 0
 1021 1458 1049 1503 1066 1553 c 1
 1194 1553 l 1
 1170 1479 1138 1419 1099 1373 c 0
 1020 1282 919 1227 830 1227 c 0
 785 1227 745 1240 708 1266 c 0
 635 1318 589 1405 604 1553 c 1
EndSplineSet
EndChar

StartChar: Iogonek
Encoding: 302 302 240
Width: 1229
Flags: MW
HStem: -424 107<536 648.5> 0 10<594 787 594 1056> 0 155<204 545 747 1056 172 545> 1396 156<501 809 468 1385 1011 1011 1011 1352>
VStem: 468 66
LayerCount: 2
Fore
SplineSet
1056 0 m 1x58
 172 0 l 1xd8
 204 155 l 1
 545 155 l 1
 809 1396 l 1
 468 1396 l 1
 501 1552 l 1
 1385 1552 l 1
 1352 1396 l 1
 1011 1396 l 1
 747 155 l 1
 1088 155 l 1x38
 1056 0 l 1x58
594 10 m 1
 787 10 l 1
 721 -18 664 -57 616 -107 c 0
 569 -157 541 -198 534 -230 c 0
 530 -251 535 -270 550 -289 c 0
 565 -308 594 -317 637 -317 c 0
 660 -317 688 -311 721 -298 c 1
 700 -395 l 1
 652 -414 608 -424 567 -424 c 0
 505 -424 457 -407 424 -374 c 0
 391 -341 380 -298 391 -247 c 0
 408 -166 476 -81 594 10 c 1
EndSplineSet
EndChar

StartChar: iogonek
Encoding: 303 303 241
Width: 1229
Flags: MW
HStem: -424 107<492 604.5> 0 10<550 743 550 965> 0 155<686 965> 962 155<395 672 362 891>
VStem: 343 147 677 336
LayerCount: 2
Fore
SplineSet
965 0 m 1x5c
 468 0 l 1xdc
 672 962 l 1
 362 962 l 1
 395 1117 l 1
 891 1117 l 1
 686 155 l 1
 997 155 l 1x3c
 965 0 l 1x5c
760 1520 m 0
 769 1562 789 1593 822 1614 c 0
 855 1635 885 1645 910 1645 c 0
 936 1645 961 1635 985 1614 c 0
 1010 1593 1018 1562 1009 1520 c 0
 1000 1479 978 1448 945 1427 c 0
 912 1406 883 1396 857 1396 c 0
 832 1396 807 1406 782 1427 c 0
 758 1448 751 1479 760 1520 c 0
550 10 m 1
 743 10 l 1
 677 -18 620 -57 572 -107 c 0
 525 -157 497 -198 490 -230 c 0
 486 -251 491 -270 506 -289 c 0
 521 -308 550 -317 593 -317 c 0
 616 -317 644 -311 677 -298 c 1
 656 -395 l 1
 608 -414 564 -424 523 -424 c 0
 461 -424 413 -407 380 -374 c 0
 347 -341 336 -298 347 -247 c 0
 364 -166 432 -81 550 10 c 1
EndSplineSet
EndChar

StartChar: Idot
Encoding: 304 304 242
Width: 1229
Flags: MW
HStem: 0 155<204 545 747 1056 172 545> 1396 156<501 809 468 1385 1011 1011 1011 1352>
VStem: 868 188
LayerCount: 2
Fore
SplineSet
1056 0 m 1
 172 0 l 1
 204 155 l 1
 545 155 l 1
 809 1396 l 1
 468 1396 l 1
 501 1552 l 1
 1385 1552 l 1
 1352 1396 l 1
 1011 1396 l 1
 747 155 l 1
 1088 155 l 1
 1056 0 l 1
968 1700 m 0
 900 1700 856 1754 871 1822 c 0
 878 1856 897 1885 926 1909 c 0
 955 1933 987 1945 1020 1945 c 0
 1053 1945 1079 1933 1098 1909 c 0
 1117 1885 1123 1856 1116 1822 c 0
 1109 1788 1090 1759 1061 1735 c 0
 1032 1712 1001 1700 968 1700 c 0
EndSplineSet
EndChar

StartChar: dotlessi
Encoding: 305 305 243
Width: 1229
Flags: MW
HStem: 0 155<685 964> 962 155<394 671 361 890>
VStem: 361 635
LayerCount: 2
Fore
SplineSet
964 0 m 1
 467 0 l 1
 671 962 l 1
 361 962 l 1
 394 1117 l 1
 890 1117 l 1
 685 155 l 1
 996 155 l 1
 964 0 l 1
EndSplineSet
EndChar

StartChar: IJ
Encoding: 306 306 244
Width: 1229
Flags: MW
HStem: -47 156<689 763.5 689 816> 0 21G<33 235 33 33> 1532 20G<362 564 564 564 1323 1525 1525 1525>
VStem: 33 1492
LayerCount: 2
Fore
SplineSet
357 34 m 1xb0
 397 224 l 1
 526 147 640 109 738 109 c 0
 789 109 838 119 884 139 c 0
 931 159 971 192 1006 239 c 0
 1041 286 1075 387 1108 541 c 2
 1323 1552 l 1
 1525 1552 l 1
 1309 536 l 2
 1274 371 1230 252 1177 179 c 0
 1070 34 922 -47 710 -47 c 0
 591 -47 474 -20 357 34 c 1xb0
235 0 m 1x70
 33 0 l 1
 362 1552 l 1
 564 1552 l 1
 235 0 l 1x70
EndSplineSet
EndChar

StartChar: ij
Encoding: 307 307 245
Width: 1229
Flags: MW
HStem: -466 156<555.5 605> -438 21G<300 300> 0 21G<90 276 90 90> 1097 20G<327 513 513 513 1190 1376 1376 1376>
VStem: 337 298 1241 256
LayerCount: 2
Fore
SplineSet
300 -438 m 1x7c
 337 -264 l 1
 435 -295 520 -310 591 -310 c 0
 653 -310 708 -299 755 -277 c 0
 803 -256 845 -219 880 -168 c 0
 915 -117 947 -27 974 100 c 2
 1190 1117 l 1
 1376 1117 l 1
 1167 135 l 2
 1127 -54 1077 -186 1016 -259 c 0
 956 -333 891 -386 820 -418 c 0
 750 -450 660 -466 550 -466 c 0xbc
 471 -466 387 -457 300 -438 c 1x7c
1245 1520 m 0
 1254 1562 1274 1593 1307 1614 c 0
 1340 1635 1369 1645 1395 1645 c 0
 1421 1645 1446 1635 1470 1614 c 0
 1494 1593 1502 1562 1493 1520 c 0
 1484 1479 1463 1448 1430 1427 c 0
 1397 1406 1368 1396 1342 1396 c 0
 1316 1396 1291 1406 1267 1427 c 0
 1243 1448 1236 1479 1245 1520 c 0
276 0 m 1
 90 0 l 1
 327 1117 l 1
 513 1117 l 1
 276 0 l 1
382 1520 m 0
 391 1562 411 1593 444 1614 c 0
 477 1635 507 1645 532 1645 c 0
 558 1645 583 1635 607 1614 c 0
 632 1593 640 1562 631 1520 c 0
 622 1479 600 1448 567 1427 c 0
 534 1406 505 1396 479 1396 c 0
 454 1396 429 1406 404 1427 c 0
 380 1448 373 1479 382 1520 c 0
EndSplineSet
EndChar

StartChar: Jcircumflex
Encoding: 308 308 246
Width: 1229
Flags: MW
HStem: -47 156<449 523.5 449 576> 1396 156<734 1050 701 1285>
VStem: 117 1189
LayerCount: 2
Fore
SplineSet
117 34 m 1
 157 224 l 1
 286 147 400 109 498 109 c 0
 549 109 598 119 644 139 c 0
 691 159 731 192 766 239 c 0
 801 286 835 387 868 541 c 2
 1050 1396 l 1
 701 1396 l 1
 734 1552 l 1
 1285 1552 l 1
 1069 536 l 2
 1034 371 990 252 937 179 c 0
 830 34 682 -47 470 -47 c 0
 351 -47 234 -20 117 34 c 1
1150 1654 m 1
 1047 1822 l 1
 871 1654 l 1
 716 1654 l 1
 1019 1980 l 1
 1143 1980 l 1
 1306 1654 l 1
 1150 1654 l 1
EndSplineSet
EndChar

StartChar: jcircumflex
Encoding: 309 309 247
Width: 1229
Flags: MW
HStem: -466 156<333.5 383> -438 21G<78 78> 962 155<494 935 461 1154>
VStem: 78 1165
LayerCount: 2
Fore
SplineSet
78 -438 m 1x70
 115 -264 l 1
 213 -295 298 -310 369 -310 c 0
 431 -310 486 -299 533 -277 c 0
 581 -256 623 -219 658 -168 c 0
 693 -117 725 -27 752 100 c 2
 935 962 l 1
 461 962 l 1
 494 1117 l 1
 1154 1117 l 1
 945 135 l 2
 905 -54 855 -186 794 -259 c 0
 734 -333 669 -386 598 -418 c 0
 528 -450 438 -466 328 -466 c 0xb0
 249 -466 165 -457 78 -438 c 1x70
1087 1347 m 1
 984 1515 l 1
 808 1347 l 1
 653 1347 l 1
 956 1673 l 1
 1080 1673 l 1
 1243 1347 l 1
 1087 1347 l 1
EndSplineSet
EndChar

StartChar: Kcommaaccent
Encoding: 310 310 248
Width: 1229
Flags: MW
HStem: 0 21G<157 359 157 157 975 975 975 1228> 1532 20G<486 688 688 688 1265 1479 1479 1479>
VStem: 486 340 595 93
LayerCount: 2
Fore
SplineSet
359 0 m 1xd0
 157 0 l 1
 486 1552 l 1xe0
 688 1552 l 1
 527 791 l 1
 1265 1552 l 1
 1479 1552 l 1
 766 815 l 1
 1228 0 l 1
 975 0 l 1
 527 791 l 1
 359 0 l 1xd0
510 -671 m 1
 528 -590 l 1
 622 -566 665 -511 690 -411 c 1
 650 -411 623 -400 608 -377 c 0
 594 -354 590 -330 595 -304 c 0
 602 -274 618 -249 643 -228 c 0xd0
 669 -207 696 -197 724 -197 c 0
 797 -197 844 -265 821 -373 c 0
 790 -514 665 -651 510 -671 c 1
EndSplineSet
EndChar

StartChar: kcommaaccent
Encoding: 311 311 249
Width: 1229
Flags: MW
HStem: 0 21G<205 391 205 205 934 934 934 1190> 1097 20G<1165 1413 1413 1413>
VStem: 517 217 548 200
LayerCount: 2
Fore
SplineSet
391 0 m 1xd0
 205 0 l 1
 548 1614 l 1xd0
 734 1614 l 1xe0
 518 600 l 1
 1165 1117 l 1
 1413 1117 l 1
 767 600 l 1
 1190 0 l 1
 934 0 l 1
 518 600 l 1
 391 0 l 1xd0
432 -671 m 1
 450 -590 l 1
 544 -566 587 -511 612 -411 c 1
 572 -411 545 -400 530 -377 c 0
 516 -354 512 -330 517 -304 c 0
 524 -274 540 -249 565 -228 c 0xe0
 591 -207 618 -197 646 -197 c 0
 719 -197 766 -265 743 -373 c 0
 712 -514 587 -651 432 -671 c 1
EndSplineSet
EndChar

StartChar: kgreenlandic
Encoding: 312 312 250
Width: 1229
Flags: MW
HStem: 0 21G<205 391 205 205 934 934 934 1190> 1097 20G<442 628 628 628 1165 1413 1413 1413>
VStem: 205 1208<0 1117>
LayerCount: 2
Fore
SplineSet
391 0 m 1
 205 0 l 1
 442 1117 l 1
 628 1117 l 1
 518 600 l 1
 1165 1117 l 1
 1413 1117 l 1
 767 600 l 1
 1190 0 l 1
 934 0 l 1
 518 600 l 1
 391 0 l 1
EndSplineSet
EndChar

StartChar: Lacute
Encoding: 313 313 251
Width: 1229
Flags: MW
HStem: 0 171<457 1057> 1532 20G<548 750 750 750>
VStem: 219 941
LayerCount: 2
Fore
SplineSet
457 171 m 1
 1093 171 l 1
 1057 0 l 1
 219 0 l 1
 548 1552 l 1
 750 1552 l 1
 457 171 l 1
748 1654 m 1
 578 1654 l 1
 944 1980 l 1
 1160 1980 l 1
 748 1654 l 1
EndSplineSet
EndChar

StartChar: lacute
Encoding: 314 314 252
Width: 1229
Flags: MW
HStem: 0 155<673 990> 1458 156<464 764 430 984>
VStem: 430 822<1458 2042>
LayerCount: 2
Fore
SplineSet
990 0 m 1
 455 0 l 1
 764 1458 l 1
 430 1458 l 1
 464 1614 l 1
 984 1614 l 1
 673 155 l 1
 1022 155 l 1
 990 0 l 1
840 1716 m 1
 670 1716 l 1
 1036 2042 l 1
 1252 2042 l 1
 840 1716 l 1
EndSplineSet
EndChar

StartChar: Lcommaaccent
Encoding: 315 315 253
Width: 1229
Flags: MW
HStem: 0 171<457 1057> 1532 20G<548 750 750 750>
VStem: 517 233 548 200
LayerCount: 2
Fore
SplineSet
457 171 m 1xd0
 1093 171 l 1
 1057 0 l 1
 219 0 l 1
 548 1552 l 1xd0
 750 1552 l 1xe0
 457 171 l 1xd0
432 -671 m 1
 450 -590 l 1
 544 -566 587 -511 612 -411 c 1
 572 -411 545 -400 530 -377 c 0
 516 -354 512 -330 517 -304 c 0
 524 -274 540 -249 565 -228 c 0xe0
 591 -207 618 -197 646 -197 c 0
 719 -197 766 -265 743 -373 c 0
 712 -514 587 -651 432 -671 c 1
EndSplineSet
EndChar

StartChar: lcommaaccent
Encoding: 316 316 254
Width: 1229
Flags: MW
HStem: 0 155<673 990> 1458 156<464 764 430 984>
VStem: 464 284
LayerCount: 2
Fore
SplineSet
990 0 m 1
 455 0 l 1
 764 1458 l 1
 430 1458 l 1
 464 1614 l 1
 984 1614 l 1
 673 155 l 1
 1022 155 l 1
 990 0 l 1
432 -671 m 1
 450 -590 l 1
 544 -566 587 -511 612 -411 c 1
 572 -411 545 -400 530 -377 c 0
 516 -354 512 -330 517 -304 c 0
 524 -274 540 -249 565 -228 c 0
 591 -207 618 -197 646 -197 c 0
 719 -197 766 -265 743 -373 c 0
 712 -514 587 -651 432 -671 c 1
EndSplineSet
EndChar

StartChar: Lcaron
Encoding: 317 317 255
Width: 1229
Flags: MW
HStem: 0 171<457 1057> 1532 20G<548 750 750 750>
VStem: 219 1253 1241 231
LayerCount: 2
Fore
SplineSet
457 171 m 1xe0
 1093 171 l 1
 1057 0 l 1
 219 0 l 1
 548 1552 l 1
 750 1552 l 1
 457 171 l 1xe0
1156 1075 m 1
 1174 1155 l 1
 1268 1181 1311 1234 1336 1335 c 1
 1296 1335 1269 1346 1255 1369 c 0
 1241 1392 1236 1416 1241 1442 c 0
 1248 1472 1264 1497 1289 1518 c 0
 1315 1539 1342 1549 1370 1549 c 0
 1443 1549 1490 1482 1467 1373 c 0xd0
 1436 1232 1311 1095 1156 1075 c 1
EndSplineSet
EndChar

StartChar: lcaron
Encoding: 318 318 256
Width: 1229
Flags: MW
HStem: 0 155<673 990> 1458 156<464 764 430 984>
VStem: 430 1100 1299 231
LayerCount: 2
Fore
SplineSet
990 0 m 1xe0
 455 0 l 1
 764 1458 l 1
 430 1458 l 1
 464 1614 l 1
 984 1614 l 1
 673 155 l 1
 1022 155 l 1
 990 0 l 1xe0
1214 1137 m 1
 1232 1217 l 1
 1326 1243 1369 1296 1394 1397 c 1
 1354 1397 1327 1408 1313 1431 c 0
 1299 1454 1294 1478 1299 1504 c 0
 1306 1534 1322 1559 1347 1580 c 0
 1373 1601 1400 1611 1428 1611 c 0
 1501 1611 1548 1544 1525 1435 c 0xd0
 1494 1294 1369 1157 1214 1137 c 1
EndSplineSet
EndChar

StartChar: Ldotaccent
Encoding: 319 319 257
Width: 1229
Flags: MW
HStem: 0 171<457 1057> 1532 20G<548 750 750 750>
VStem: 219 903 871 251
LayerCount: 2
Fore
SplineSet
457 171 m 1xe0
 1093 171 l 1
 1057 0 l 1
 219 0 l 1
 548 1552 l 1
 750 1552 l 1
 457 171 l 1xe0
971 601 m 0xd0
 903 601 859 655 874 723 c 0
 881 757 900 786 929 810 c 0
 958 834 990 846 1023 846 c 0
 1056 846 1082 834 1101 810 c 0
 1120 786 1126 757 1119 723 c 0
 1112 689 1093 660 1064 636 c 0
 1035 613 1004 601 971 601 c 0xd0
EndSplineSet
EndChar

StartChar: ldotaccent
Encoding: 320 320 258
Width: 1229
Flags: MW
HStem: 0 155<673 990> 1458 156<464 764 430 984>
VStem: 430 912 1091 251
LayerCount: 2
Fore
SplineSet
990 0 m 1xe0
 455 0 l 1
 764 1458 l 1
 430 1458 l 1
 464 1614 l 1
 984 1614 l 1
 673 155 l 1
 1022 155 l 1
 990 0 l 1xe0
1191 732 m 0xd0
 1123 732 1079 786 1094 854 c 0
 1101 888 1120 917 1149 941 c 0
 1178 965 1210 977 1243 977 c 0
 1276 977 1302 965 1321 941 c 0
 1340 917 1346 888 1339 854 c 0
 1332 820 1313 791 1284 767 c 0
 1255 744 1224 732 1191 732 c 0xd0
EndSplineSet
EndChar

StartChar: Lslash
Encoding: 321 321 259
Width: 1229
Flags: MW
HStem: 0 171<457 1057> 1532 20G<548 750 750 750>
VStem: 133 960<171 619>
LayerCount: 2
Fore
SplineSet
457 171 m 1
 1093 171 l 1
 1057 0 l 1
 219 0 l 1
 367 697 l 1
 133 619 l 1
 167 779 l 1
 401 860 l 1
 548 1552 l 1
 750 1552 l 1
 619 935 l 1
 861 1014 l 1
 826 850 l 1
 584 771 l 1
 457 171 l 1
EndSplineSet
EndChar

StartChar: lslash
Encoding: 322 322 260
Width: 1229
Flags: MW
HStem: 0 155<670 987> 1458 156<461 761 427 981>
VStem: 238 976<566 1068>
LayerCount: 2
Fore
SplineSet
987 0 m 1
 452 0 l 1
 599 695 l 1
 238 566 l 1
 274 734 l 1
 635 863 l 1
 761 1458 l 1
 427 1458 l 1
 461 1614 l 1
 981 1614 l 1
 836 935 l 1
 1214 1068 l 1
 1178 900 l 1
 800 766 l 1
 670 155 l 1
 1019 155 l 1
 987 0 l 1
EndSplineSet
EndChar

StartChar: Nacute
Encoding: 323 323 261
Width: 1229
Flags: MW
HStem: 0 21G<126 312 126 126 917 917 917 1103> 1532 20G<455 637 637 637 1246 1432 1432 1432>
VStem: 126 1306
LayerCount: 2
Fore
SplineSet
528 1018 m 1
 312 0 l 1
 126 0 l 1
 455 1552 l 1
 637 1552 l 1
 967 519 l 1
 994 365 l 1
 999 365 l 1
 1027 519 l 1
 1246 1552 l 1
 1432 1552 l 1
 1103 0 l 1
 917 0 l 1
 598 1016 l 1
 558 1179 l 1
 528 1018 l 1
878 1654 m 1
 708 1654 l 1
 1074 1980 l 1
 1290 1980 l 1
 878 1654 l 1
EndSplineSet
EndChar

StartChar: nacute
Encoding: 324 324 262
Width: 1229
Flags: MW
HStem: 0 21G<155 341 155 155 900 900 900 1086> 977 171<966.5 976.5> 1097 20G<392 578 578 578> 1564 20G<996 1212 1212 1212>
VStem: 1066 193
LayerCount: 2
Fore
SplineSet
341 0 m 1xb8
 155 0 l 1
 392 1117 l 1
 578 1117 l 1xb8
 526 873 l 1
 597 959 676 1026 762 1075 c 0
 848 1124 929 1148 1004 1148 c 0
 1070 1148 1126 1130 1172 1095 c 0
 1219 1060 1247 1015 1256 958 c 0
 1266 901 1253 790 1218 624 c 2
 1086 0 l 1
 900 0 l 1
 1037 647 l 2
 1060 754 1069 825 1066 859 c 0
 1061 928 1009 977 944 977 c 0
 879 977 802 946 714 884 c 0xd8
 626 822 548 744 479 651 c 1
 341 0 l 1xb8
800 1258 m 1
 630 1258 l 1
 996 1584 l 1
 1212 1584 l 1
 800 1258 l 1
EndSplineSet
EndChar

StartChar: Ncommaaccent
Encoding: 325 325 263
Width: 1229
Flags: MW
HStem: 0 21G<126 312 126 126 917 917 917 1103> 1532 20G<455 637 637 637 1246 1432 1432 1432>
VStem: 455 293 517 120
LayerCount: 2
Fore
SplineSet
528 1018 m 1xd0
 312 0 l 1
 126 0 l 1
 455 1552 l 1xe0
 637 1552 l 1
 967 519 l 1
 994 365 l 1
 999 365 l 1
 1027 519 l 1
 1246 1552 l 1
 1432 1552 l 1
 1103 0 l 1
 917 0 l 1
 598 1016 l 1
 558 1179 l 1
 528 1018 l 1xd0
432 -671 m 1
 450 -590 l 1
 544 -566 587 -511 612 -411 c 1
 572 -411 545 -400 530 -377 c 0
 516 -354 512 -330 517 -304 c 0
 524 -274 540 -249 565 -228 c 0xd0
 591 -207 618 -197 646 -197 c 0
 719 -197 766 -265 743 -373 c 0
 712 -514 587 -651 432 -671 c 1
EndSplineSet
EndChar

StartChar: ncommaaccent
Encoding: 326 326 264
Width: 1229
Flags: MW
HStem: 0 21G<155 341 155 155 900 900 900 1086> 977 171<966.5 976.5> 1097 20G<392 578 578 578>
VStem: 453 231 1066 193
LayerCount: 2
Fore
SplineSet
341 0 m 1xb8
 155 0 l 1
 392 1117 l 1
 578 1117 l 1xb8
 526 873 l 1
 597 959 676 1026 762 1075 c 0
 848 1124 929 1148 1004 1148 c 0
 1070 1148 1126 1130 1172 1095 c 0
 1219 1060 1247 1015 1256 958 c 0
 1266 901 1253 790 1218 624 c 2
 1086 0 l 1
 900 0 l 1
 1037 647 l 2
 1060 754 1069 825 1066 859 c 0
 1061 928 1009 977 944 977 c 0
 879 977 802 946 714 884 c 0xd8
 626 822 548 744 479 651 c 1
 341 0 l 1xb8
368 -602 m 1
 386 -522 l 1
 480 -496 523 -442 548 -342 c 1
 508 -342 481 -331 467 -308 c 0
 453 -285 448 -261 453 -235 c 0
 460 -205 476 -180 501 -159 c 0
 527 -138 554 -128 582 -128 c 0
 655 -128 702 -195 679 -304 c 0
 648 -445 523 -582 368 -602 c 1
EndSplineSet
EndChar

StartChar: Ncaron
Encoding: 327 327 265
Width: 1229
Flags: MW
HStem: 0 21G<126 312 126 126 917 917 917 1103> 1532 20G<455 637 637 637 1246 1432 1432 1432>
VStem: 126 1306
LayerCount: 2
Fore
SplineSet
528 1018 m 1
 312 0 l 1
 126 0 l 1
 455 1552 l 1
 637 1552 l 1
 967 519 l 1
 994 365 l 1
 999 365 l 1
 1027 519 l 1
 1246 1552 l 1
 1432 1552 l 1
 1103 0 l 1
 917 0 l 1
 598 1016 l 1
 558 1179 l 1
 528 1018 l 1
895 1980 m 1
 999 1812 l 1
 1174 1980 l 1
 1330 1980 l 1
 1027 1654 l 1
 903 1654 l 1
 740 1980 l 1
 895 1980 l 1
EndSplineSet
EndChar

StartChar: ncaron
Encoding: 328 328 266
Width: 1229
Flags: MW
HStem: 0 21G<155 341 155 155 900 900 900 1086> 977 171<966.5 976.5> 1097 20G<392 578 578 578> 1564 20G<662 817 817 817 1096 1252 1252 1252>
VStem: 1066 193
LayerCount: 2
Fore
SplineSet
341 0 m 1xb8
 155 0 l 1
 392 1117 l 1
 578 1117 l 1xb8
 526 873 l 1
 597 959 676 1026 762 1075 c 0
 848 1124 929 1148 1004 1148 c 0
 1070 1148 1126 1130 1172 1095 c 0
 1219 1060 1247 1015 1256 958 c 0
 1266 901 1253 790 1218 624 c 2
 1086 0 l 1
 900 0 l 1
 1037 647 l 2
 1060 754 1069 825 1066 859 c 0
 1061 928 1009 977 944 977 c 0
 879 977 802 946 714 884 c 0xd8
 626 822 548 744 479 651 c 1
 341 0 l 1xb8
817 1584 m 1
 921 1416 l 1
 1096 1584 l 1
 1252 1584 l 1
 949 1258 l 1
 825 1258 l 1
 662 1584 l 1
 817 1584 l 1
EndSplineSet
EndChar

StartChar: napostrophe
Encoding: 329 329 267
Width: 1229
Flags: MW
HStem: 0 21G<285 471 285 285 1030 1030 1030 1216> 977 171<1096.5 1106.5> 1097 20G<522 708 708 708>
VStem: 465 267 1196 193
LayerCount: 2
Fore
SplineSet
366 1256 m 1xb8
 387 1350 l 1
 425 1359 455 1373 477 1390 c 0
 521 1426 558 1478 574 1557 c 1
 527 1557 496 1570 480 1596 c 0
 464 1623 459 1651 465 1680 c 0
 472 1715 491 1745 520 1768 c 0
 549 1792 580 1804 613 1804 c 0
 655 1804 687 1786 710 1749 c 0
 733 1713 738 1663 725 1600 c 0
 690 1438 545 1279 366 1256 c 1xb8
471 0 m 1
 285 0 l 1
 522 1117 l 1
 708 1117 l 1xb8
 656 873 l 1
 727 959 806 1026 892 1075 c 0
 978 1124 1059 1148 1134 1148 c 0
 1200 1148 1256 1130 1302 1095 c 0
 1349 1060 1377 1015 1386 958 c 0
 1396 901 1383 790 1348 624 c 2
 1216 0 l 1
 1030 0 l 1
 1167 647 l 2
 1190 754 1199 825 1196 859 c 0
 1191 928 1139 977 1074 977 c 0
 1009 977 932 946 844 884 c 0xd8
 756 822 678 744 609 651 c 1
 471 0 l 1
EndSplineSet
EndChar

StartChar: Eng
Encoding: 330 330 268
Width: 1229
Flags: MW
HStem: -466 156<519.5 569> 0 21G<126 312 126 126 1098 1098 1098 1103> 1532 20G<455 637 637 637 1246 1432 1432 1432>
VStem: 126 1306
LayerCount: 2
Fore
SplineSet
264 -438 m 1
 301 -264 l 1
 399 -295 484 -310 555 -310 c 0
 679 -310 773 -271 844 -168 c 0
 870 -130 894 -72 915 5 c 1
 598 1016 l 1
 558 1179 l 1
 528 1018 l 1
 312 0 l 1
 126 0 l 1
 455 1552 l 1
 637 1552 l 1
 967 519 l 1
 994 365 l 1
 999 365 l 1
 1027 519 l 1
 1246 1552 l 1
 1432 1552 l 1
 1131 135 l 1
 1125 107 l 1
 1103 0 l 1
 1098 0 l 1
 1064 -118 1025 -204 980 -259 c 0
 920 -333 855 -386 784 -418 c 0
 714 -450 624 -466 514 -466 c 0
 435 -466 351 -457 264 -438 c 1
EndSplineSet
EndChar

StartChar: eng
Encoding: 331 331 269
Width: 1229
Flags: MW
HStem: -466 156<502.5 552> 0 21G<155 341 155 155 1081 1081 1081 1086> 977 171<966.5 976.5> 1097 20G<392 578 578 578>
VStem: 1066 193
LayerCount: 2
Fore
SplineSet
247 -438 m 1xd8
 284 -264 l 1
 382 -295 467 -310 538 -310 c 0
 600 -310 655 -299 702 -277 c 0
 750 -256 792 -219 827 -168 c 0
 862 -117 894 -27 921 100 c 2
 1037 647 l 2
 1060 754 1069 825 1066 859 c 0
 1061 928 1009 977 944 977 c 0
 879 977 802 946 714 884 c 0xe8
 626 822 548 744 479 651 c 1
 341 0 l 1
 155 0 l 1
 392 1117 l 1
 578 1117 l 1xd8
 526 873 l 1
 597 959 676 1026 762 1075 c 0
 848 1124 929 1148 1004 1148 c 0
 1070 1148 1126 1130 1172 1095 c 0xe8
 1219 1060 1247 1015 1256 958 c 0
 1266 901 1253 790 1218 624 c 2
 1086 0 l 1
 1081 0 l 1
 1047 -118 1008 -204 963 -259 c 0
 903 -333 838 -386 767 -418 c 0
 697 -450 607 -466 497 -466 c 0
 418 -466 334 -457 247 -438 c 1xd8
EndSplineSet
EndChar

StartChar: Omacron
Encoding: 332 332 270
Width: 1229
Flags: MW
HStem: -47 156<588.5 685.5 588.5 692.5> 1443 155<871.5 968.5> 1700 124<722 1254 695 1281>
VStem: 198 202 1157 202
LayerCount: 2
Fore
SplineSet
604 -47 m 0
 428 -47 309 27 247 175 c 0
 186 324 182 524 235 776 c 0
 289 1027 378 1227 502 1375 c 0
 627 1524 777 1598 953 1598 c 0
 1130 1598 1249 1524 1310 1375 c 0
 1371 1227 1375 1027 1321 776 c 0
 1268 524 1179 324 1055 175 c 0
 931 27 781 -47 604 -47 c 0
637 109 m 0
 734 109 827 164 915 274 c 0
 1004 385 1072 552 1119 776 c 0
 1167 1000 1170 1167 1128 1277 c 0
 1087 1388 1017 1443 920 1443 c 0
 823 1443 730 1388 641 1277 c 0
 553 1167 485 1000 437 776 c 0
 390 552 387 385 428 274 c 0
 470 164 540 109 637 109 c 0
1254 1700 m 1
 695 1700 l 1
 722 1824 l 1
 1281 1824 l 1
 1254 1700 l 1
EndSplineSet
EndChar

StartChar: omacron
Encoding: 333 333 271
Width: 1229
Flags: MW
HStem: -31 155<591 687.5> 993 155<779 875.5> 1258 124<629 1161 602 1188>
VStem: 187 203 1075 203
LayerCount: 2
Fore
SplineSet
608 -31 m 0
 448 -31 332 25 259 136 c 0
 187 248 169 389 205 559 c 0
 242 729 320 870 439 981 c 0
 559 1092 699 1148 859 1148 c 0
 1018 1148 1134 1092 1206 981 c 0
 1279 870 1297 729 1260 559 c 0
 1224 389 1146 248 1026 136 c 0
 907 25 767 -31 608 -31 c 0
641 124 m 0
 740 124 827 163 902 240 c 0
 977 317 1029 424 1058 559 c 0
 1087 694 1080 800 1038 877 c 0
 996 954 925 993 826 993 c 0
 726 993 638 954 563 877 c 0
 488 800 436 694 407 559 c 0
 378 424 385 317 427 240 c 0
 470 163 541 124 641 124 c 0
1161 1258 m 1
 602 1258 l 1
 629 1382 l 1
 1188 1382 l 1
 1161 1258 l 1
EndSplineSet
EndChar

StartChar: Obreve
Encoding: 334 334 272
Width: 1229
Flags: MW
HStem: -47 156<588.5 685.5 588.5 692.5> 1443 155<871.5 968.5> 1700 132<983.5 1020.5>
VStem: 198 202 747 131 1157 202
LayerCount: 2
Fore
SplineSet
604 -47 m 0
 428 -47 309 27 247 175 c 0
 186 324 182 524 235 776 c 0
 289 1027 378 1227 502 1375 c 0
 627 1524 777 1598 953 1598 c 0
 1130 1598 1249 1524 1310 1375 c 0
 1371 1227 1375 1027 1321 776 c 0
 1268 524 1179 324 1055 175 c 0
 931 27 781 -47 604 -47 c 0
637 109 m 0
 734 109 827 164 915 274 c 0
 1004 385 1072 552 1119 776 c 0
 1167 1000 1170 1167 1128 1277 c 0
 1087 1388 1017 1443 920 1443 c 0
 823 1443 730 1388 641 1277 c 0
 553 1167 485 1000 437 776 c 0
 390 552 387 385 428 274 c 0
 470 164 540 109 637 109 c 0
750 2026 m 1
 878 2026 l 1
 873 1975 882 1929 906 1890 c 0
 931 1851 963 1832 1004 1832 c 0
 1045 1832 1085 1852 1126 1891 c 0
 1167 1931 1195 1976 1212 2026 c 1
 1340 2026 l 1
 1316 1952 1284 1892 1245 1846 c 0
 1166 1755 1065 1700 976 1700 c 0
 931 1700 891 1713 854 1739 c 0
 781 1791 735 1878 750 2026 c 1
EndSplineSet
EndChar

StartChar: obreve
Encoding: 335 335 273
Width: 1229
Flags: MW
HStem: -31 155<591 687.5> 993 155<779 875.5> 1258 132<890.5 927.5> 1564 20G<657 785 785 785 1119 1247 1247 1247>
VStem: 187 203 654 131 1075 203
LayerCount: 2
Fore
SplineSet
608 -31 m 0
 448 -31 332 25 259 136 c 0
 187 248 169 389 205 559 c 0
 242 729 320 870 439 981 c 0
 559 1092 699 1148 859 1148 c 0
 1018 1148 1134 1092 1206 981 c 0
 1279 870 1297 729 1260 559 c 0
 1224 389 1146 248 1026 136 c 0
 907 25 767 -31 608 -31 c 0
641 124 m 0
 740 124 827 163 902 240 c 0
 977 317 1029 424 1058 559 c 0
 1087 694 1080 800 1038 877 c 0
 996 954 925 993 826 993 c 0
 726 993 638 954 563 877 c 0
 488 800 436 694 407 559 c 0
 378 424 385 317 427 240 c 0
 470 163 541 124 641 124 c 0
657 1584 m 1
 785 1584 l 1
 780 1533 789 1487 813 1448 c 0
 838 1409 870 1390 911 1390 c 0
 952 1390 992 1410 1033 1449 c 0
 1074 1489 1102 1534 1119 1584 c 1
 1247 1584 l 1
 1223 1510 1191 1450 1152 1404 c 0
 1073 1313 972 1258 883 1258 c 0
 838 1258 798 1271 761 1297 c 0
 688 1349 642 1436 657 1584 c 1
EndSplineSet
EndChar

StartChar: Ohungarumlaut
Encoding: 336 336 274
Width: 1229
Flags: MW
HStem: -47 156<588.5 685.5 588.5 692.5> 1443 155<871.5 968.5>
VStem: 198 202 1157 202
LayerCount: 2
Fore
SplineSet
604 -47 m 0
 428 -47 309 27 247 175 c 0
 186 324 182 524 235 776 c 0
 289 1027 378 1227 502 1375 c 0
 627 1524 777 1598 953 1598 c 0
 1130 1598 1249 1524 1310 1375 c 0
 1371 1227 1375 1027 1321 776 c 0
 1268 524 1179 324 1055 175 c 0
 931 27 781 -47 604 -47 c 0
637 109 m 0
 734 109 827 164 915 274 c 0
 1004 385 1072 552 1119 776 c 0
 1167 1000 1170 1167 1128 1277 c 0
 1087 1388 1017 1443 920 1443 c 0
 823 1443 730 1388 641 1277 c 0
 553 1167 485 1000 437 776 c 0
 390 552 387 385 428 274 c 0
 470 164 540 109 637 109 c 0
1123 2026 m 1
 904 1700 l 1
 788 1700 l 1
 1000 2026 l 1
 1123 2026 l 1
1401 2026 m 1
 1178 1700 l 1
 1060 1700 l 1
 1275 2026 l 1
 1401 2026 l 1
EndSplineSet
EndChar

